<svg xmlns="http://www.w3.org/2000/svg" viewBox="0 0 205.28 106.3"><defs><style>.cls-1{fill:#27130e;}.cls-2{fill:#045858;}.cls-3{fill:#68121f;}.cls-4{fill:#010101;}.cls-5{fill:#020202;}</style></defs><g id="Layer_2" data-name="Layer 2"><g id="Layer_1-2" data-name="Layer 1"><path class="cls-1" d="M154.66,14.41c0-4.64-5.8-6.77-11.94-3.69-17.81,8.9-47.57-18.25-59.3-2.18,0,0-.44,1.31-2.39.22-2,1.09-2.39-.22-2.39-.22C66.91-7.53,37.15,19.62,19.34,10.72,13.2,7.64,7.4,9.77,7.4,14.41L5.15,12.67c0-4.63,9-7.82,15.06-4.63C36.6,16.62,60.47-7.17,77.12,2.24L81,.07l3.91,2.17c16.65-9.41,40.52,14.38,56.91,5.8,6.08-3.19,15.06,0,15.06,4.63Z"/><path class="cls-1" d="M21.8,42.34c0-15.38.08-9.92.08-16.06,0-9.85-6.95-16.22-14.48-15.64C2.56,11,0,14.41,0,18.9,0,26.14,8.63,27.73,9.79,28L9.55,45.9h143.3V28c1.16-.29,9.78-1.88,9.78-9.12,0-4.49-2.55-7.88-7.39-8.26-7.53-.58-14.48,5.79-14.48,15.64V42.21H21.8Z"/><path class="cls-2" d="M81.32,40h57.15V30.26c-2.22-2.69-40.5-2.94-57.15-2.94s-54.94.25-57.15,2.94V40Z"/><path class="cls-2" d="M138.67,26.44V28c-3.34-1.26-14.46-2.69-57.27-2.69S27.47,26.74,24.13,28V26.44A18.54,18.54,0,0,0,18.87,13c9,4.2,20,.54,30.68-3,11.79-3.93,22-7.31,27.35-.08a3.2,3.2,0,0,0,1.61,1.39,3.78,3.78,0,0,0,2.61,0,3.58,3.58,0,0,0,3.35-.39,3.78,3.78,0,0,0,.78-.9h0c5.37-7.35,15.58-3.95,27.42,0,10.84,3.62,22,7.36,31.1,2.83.2-.1.4-.18.6-.26l-.08.06A18.52,18.52,0,0,0,138.67,26.44ZM61,14.61c2.62-.46,3.88-1.6,4-4.11Zm4-4.11c.11,2.51,1.37,3.65,4,4.11ZM53,14.61c2.62-.46,3.88-1.6,4-4.11Zm4-4.11c.11,2.51,1.37,3.65,4,4.11Zm-12,4.11c2.62-.46,3.87-1.6,4-4.11Zm4-4.11c.11,2.51,1.37,3.65,4,4.11Zm16.07,8.9c2.63-.46,3.88-1.6,4-4.11Zm4-4.11c.12,2.51,1.37,3.65,4,4.11Zm-12,4.11c2.63-.46,3.88-1.6,4-4.11Zm4-4.11c.12,2.51,1.37,3.65,4,4.11Zm-12,4.11c2.62-.46,3.88-1.6,4-4.11Zm4-4.11c.12,2.51,1.37,3.65,4,4.11Zm16.08,8.9c2.62-.46,3.87-1.6,4-4.11Zm4-4.11c.11,2.51,1.37,3.65,4,4.11ZM69.1,14.61c2.63-.46,3.88-1.6,4-4.11Zm4-4.11c.12,2.51,1.37,3.65,4,4.11ZM65,10.33c2.62-.45,3.88-1.59,4-4.1Zm4-4.1c.11,2.51,1.37,3.65,4,4.1ZM73.21,19.4c2.62-.46,3.87-1.6,4-4.11Zm4-4.11c.11,2.51,1.37,3.65,4,4.11Zm.11,8.9c2.62-.46,3.88-1.6,4-4.11Zm4-4.11c.12,2.51,1.37,3.65,4,4.11Zm0-.68c2.62-.46,3.88-1.6,4-4.11Zm4-4.11c.12,2.51,1.37,3.65,4,4.11Zm.12,8.9c2.62-.46,3.87-1.6,4-4.11Zm4-4.11c.11,2.51,1.36,3.65,4,4.11Zm-4.11-5.47c2.62-.46,3.88-1.6,4-4.11Zm4-4.11c.12,2.51,1.37,3.65,4,4.11Zm.12,8.9c2.62-.46,3.87-1.6,4-4.11Zm4-4.11c.11,2.51,1.36,3.65,4,4.11Zm.11,8.9c2.62-.46,3.88-1.6,4-4.11Zm4-4.11c.12,2.51,1.37,3.65,4,4.11Zm-4.1-5.47c2.62-.46,3.87-1.6,4-4.11Zm4-4.11c.11,2.51,1.36,3.65,4,4.11Zm-8.1-.17c2.62-.45,3.88-1.59,4-4.1Zm4-4.1c.12,2.51,1.37,3.65,4,4.1ZM97.49,19.4c2.62-.46,3.88-1.6,4-4.11Zm4-4.11c.12,2.51,1.37,3.65,4,4.11Zm.11,8.9c2.63-.46,3.88-1.6,4-4.11Zm4-4.11c.12,2.51,1.37,3.65,4,4.11Zm-4.1-5.47c2.62-.46,3.88-1.6,4-4.11Zm4-4.11c.11,2.51,1.37,3.65,4,4.11Zm.11,8.9c2.63-.46,3.88-1.6,4-4.11Zm4-4.11c.12,2.51,1.37,3.65,4,4.11Zm.12,8.9c2.62-.46,3.87-1.6,4-4.11Zm4-4.11c.11,2.51,1.37,3.65,4,4.11Zm-4.11-5.47c2.63-.46,3.88-1.6,4-4.11Zm4-4.11c.12,2.51,1.37,3.65,4,4.11Zm.12,8.9c2.62-.46,3.87-1.6,4-4.11Zm4-4.11c.11,2.51,1.37,3.65,4,4.11Zm.11,8.9c2.62-.46,3.88-1.6,4-4.11Zm4-4.11c.12,2.51,1.37,3.65,4,4.11Zm0-.68c2.62-.46,3.88-1.6,4-4.11Zm4-4.11c.12,2.51,1.37,3.65,4,4.11Zm.12,8.9c2.62-.46,3.87-1.6,4-4.11Zm4-4.11c.11,2.51,1.36,3.65,4,4.11Zm0-.68c2.62-.46,3.87-1.6,4-4.11Zm4-4.11c.11,2.51,1.36,3.65,4,4.11Zm-72.62,8.9c2.62-.46,3.87-1.6,4-4.11Zm4-4.11c.11,2.51,1.37,3.65,4,4.11Zm-12,4.11c2.62-.46,3.87-1.6,4-4.11Zm4-4.11c.11,2.51,1.36,3.65,4,4.11ZM41.06,19.4c2.62-.46,3.87-1.6,4-4.11Zm4-4.11c.11,2.51,1.37,3.65,4,4.11Zm.11,8.9c2.62-.46,3.88-1.6,4-4.11Zm4-4.11c.12,2.51,1.37,3.65,4,4.11ZM33,19.4c2.63-.46,3.88-1.6,4-4.11Zm4-4.11c.12,2.51,1.37,3.65,4,4.11Zm.12,8.9c2.62-.46,3.87-1.6,4-4.11Zm4-4.11c.11,2.51,1.37,3.65,4,4.11ZM24.87,19.4c2.62-.46,3.87-1.6,4-4.11Zm4-4.11c.11,2.51,1.37,3.65,4,4.11Zm.11,8.9c2.63-.46,3.88-1.6,4-4.11Zm4-4.11c.12,2.51,1.37,3.65,4,4.11Z"/><path class="cls-3" d="M9.13,49.27h9.6c3.64,0,5.78.68,5.78,4.69,0,2.31-.46,3.83-2.87,4.22v.19c2.7.17,3.16,1.81,3.16,4.1,0,4.49-2.09,5.1-6,5.1H9.13ZM14,56.59h3.51c1.71,0,2.13-.29,2.13-1.76,0-1.09-.18-1.51-1.54-1.56H14Zm0,7h3.68c1.59,0,2.25-.37,2.25-1.85S19.37,60,17.78,60H14Z"/><path class="cls-3" d="M27.05,49.27h9.41c4.22.07,6.29,1,6.29,5.54,0,3,0,4.83-3.46,5.64v.19c2,.07,3.29,1.17,3.29,3.25v3.68H37.7V65c0-1.37-.53-2.29-2-2.29H31.92v4.85H27.05Zm8.65,9.2c2.1,0,2-.78,2-2.86,0-1.63-.42-2.09-2-2.09H31.92v4.95Z"/><path class="cls-3" d="M61,49.27v12.2c0,4.88-2.29,6.25-7.65,6.25-7.32,0-8.1-1.86-8.1-6.25V49.27h4.88v12.1c0,2.08,1.17,2.1,3.22,2.1s2.78-.17,2.78-2.32V49.27Z"/><path class="cls-3" d="M79.49,60.64v.54c0,2,0,3.81-1.68,5.2s-3.68,1.34-5.8,1.34c-5,0-8.61-.25-8.61-6.93V56.05c0-6,3.24-6.93,8.61-6.93,5,0,7.36.52,7.46,6v.7h-5v-.7c-.17-1.64-1.31-1.76-3-1.76-2.78,0-3,.85-3,3.46v2.86c0,2.73.12,3.78,3,3.78,2,0,3-.15,3-2.29v-.54Z"/><path class="cls-3" d="M81.86,49.27h4.87v6.88H88.2l4.7-6.88h5.9l-6.43,9,7,9.32h-6L88.2,60.4H86.73v7.17H81.86V49.27"/><path class="cls-3" d="M105.07,56.62h7.8V60h-7.8v3.56h8.48v4H100.19V49.27h13.19v4h-8.31Z"/><path class="cls-3" d="M116.55,49.27H126c4.22.07,6.29,1,6.29,5.54,0,3,0,4.83-3.46,5.64v.19c2,.07,3.29,1.17,3.29,3.25v3.68h-4.87V65c.05-1.37-.54-2.29-2-2.29h-3.78v4.85h-4.88Zm8.66,9.2c2.09,0,2-.78,2-2.86,0-1.63-.41-2.09-2-2.09h-3.78v4.95Z"/><path class="cls-3" d="M138.57,49.27v4.1c.07,2.51-.86,3.49-4.2,3.46V55c1.39,0,1.76-.41,1.76-1.63h-1.51v-4.1Z"/><path class="cls-3" d="M149.52,56.44c5.41.39,6.75,1.08,6.75,5.28,0,3,.12,6-7.92,6-4.66,0-7.76-.1-7.76-6.1h4.68c0,1.9.69,2.1,3.08,2.1s3-.15,3-1.69-.27-1.56-2.56-1.71l-1.07-.07c-4.51-.32-7.14-.29-7.14-5.54s2.95-5.59,7.73-5.59c4,0,7.41.08,7.41,5.13V55h-4.68c0-1.87-.78-1.87-2.73-1.87-2.64,0-2.86.53-2.86,1.56,0,1.46.71,1.51,2,1.61Z"/><path class="cls-4" d="M59.46,75.43c.17.36.13,1-.49,1.72A24.06,24.06,0,0,0,55,87.73c0,.56.05.68.45.52a14.19,14.19,0,0,1,3.39-1c1.07-.12,1,.48.22,1A33.3,33.3,0,0,0,54,92.56,1.53,1.53,0,0,1,53,93a2.45,2.45,0,0,1-1.2-.2c-1.43-.52-1.61-1.16-1.29-2.59a55.23,55.23,0,0,1,1.78-6.51c.13-.4-.09-.36-.31-.12s-2.59,2.87-4.6,4.63A18.67,18.67,0,0,1,43,91.4a7.53,7.53,0,0,1-3.34.84,2.93,2.93,0,0,1-1.56-.48,1.76,1.76,0,0,1-.67-.91,3.09,3.09,0,0,1,0-1.28,63.85,63.85,0,0,1,4.2-11.9,2.68,2.68,0,0,0,.17-2.2c-.26-.56.18-.92,1.21-1.36a8,8,0,0,1,2.76-.71c.85,0,1.88.87.9,2.59a59.5,59.5,0,0,0-4.29,9.54c-.62,2.16-.17,2.64.23,2.64a4.44,4.44,0,0,0,2.63-1.24,72.45,72.45,0,0,0,6-6.07,23.12,23.12,0,0,0,3.43-4.31c.31-.76.67-1.4.94-1.92a1.88,1.88,0,0,1,1.56-1C58.07,73.67,59,74.67,59.46,75.43Z"/><path class="cls-4" d="M76.09,81.14a10.35,10.35,0,0,1-1.43,4.91c-.14.24-.09.28.22.16a77.22,77.22,0,0,0,6.82-3.79c1.3-.88,1.52.4.32,1.68A32.82,32.82,0,0,1,71.94,90a11.28,11.28,0,0,0-2.37,1A20.49,20.49,0,0,1,65.2,92.6a4.3,4.3,0,0,1-.89.12,1.66,1.66,0,0,1-.94-.56c-.26-.2-.44.2-.58.48s-2.72,6.87-3.12,7.79c-.22.52-.13.76.18.92a9.65,9.65,0,0,0,3.26.32c.71,0,.93.16.93.36a1.94,1.94,0,0,1-1.25,1.07,20.2,20.2,0,0,1-6,1.32,1.29,1.29,0,0,1-1.16-.6,1.57,1.57,0,0,1,0-1.43c.27-.68,3.39-8.31,6.06-17,.9-3,1.16-4,1.43-5a4.77,4.77,0,0,1,1.07-2.19,4.28,4.28,0,0,1,2.46-1.12,2.47,2.47,0,0,1,1.64.6c.36.32.36.64,0,.92a7.76,7.76,0,0,0-2,3.35c-.23.52.09.56.53.24a19.34,19.34,0,0,1,5-3.31,5.42,5.42,0,0,1,2-.52C75.51,78.35,76.09,80.46,76.09,81.14ZM69.35,83a13.57,13.57,0,0,0-5.22,6.11c-.18.4-.13.6.49.6a9.21,9.21,0,0,0,2.9-.84,7.51,7.51,0,0,0,2.32-1.6c.76-.76,2.41-3.27,2.41-4.59,0-.6-.31-.88-.54-.88S70.82,82,69.35,83Z"/><path class="cls-4" d="M95.12,79.94a64.6,64.6,0,0,0-2.9,7.27c-.44,1.52-.27,2.28.36,2.28,2.1,0,6.6-4.47,8-6.11.44-.52.89-.52,1.07-.2s0,1-.49,1.84c-2,3.27-7.63,7.9-10.71,7.9-1.51,0-2.54-1.12-1.69-5.23A24.08,24.08,0,0,1,90,83.14c.26-.64-.05-.6-.67-.16a27.48,27.48,0,0,0-5.89,6.19,4.84,4.84,0,0,0-.94,1.92c-.13,1.15-1.29,1.55-2.32,1.55s-1.65-1.32-1.33-3c.17-.88,2-6.71,3.52-10.9a47.3,47.3,0,0,1,4.64-9.55c.62-.88,1.16-1.2,1.65-1.2a2.8,2.8,0,0,1,1.74,1c.62.64.85,1.16.18,1.88-3.44,4-5.89,11.58-6.29,13.1-.14.44,0,.64.31.28a34,34,0,0,1,4.91-4.08c1.51-1,2.81-1.79,4.46-1.79C95,78.31,95.61,78.91,95.12,79.94Z"/><path class="cls-4" d="M99,85.38a18.73,18.73,0,0,1,2.37-3.52,2.45,2.45,0,0,0,.75-1.52,1.65,1.65,0,0,1,.58-1.07,1.68,1.68,0,0,1,1.16-.48,1.8,1.8,0,0,0,1.34-.6,2.94,2.94,0,0,1,2-.8c1.7,0,1.79,1,1.79,1.56,0,.24,0,.36.35.47a4.25,4.25,0,0,1,2.23,4,7.68,7.68,0,0,1-2.49,5.35,11.48,11.48,0,0,1-8.26,3.87,3.16,3.16,0,0,1-2.94-3.35A9.24,9.24,0,0,1,99,85.38ZM103,90a3.33,3.33,0,0,0,2.19-1.16c1.29-1.28,2.81-4.35,2.81-5.75,0-1-.32-2.12-1.12-2.12a1.8,1.8,0,0,0-1,.68c-2,2.12-3.79,5.35-3.79,7C102.08,89.49,102.62,90,103,90Z"/><path class="cls-4" d="M116.55,79c2.72-6.11,4.28-8.91,5-9.67a1.57,1.57,0,0,1,1.16-.6,1.14,1.14,0,0,1,.8.28c1.47,1.12,1.25,1.84.31,3.48a80.44,80.44,0,0,0-6.29,14.17c-.71,2.08-.35,2.64.36,2.64,1.38,0,4.77-2.36,7.72-5.55.4-.44.75-.4.93-.12a1.83,1.83,0,0,1-.31,1.56c-1.29,2.35-6.82,7.42-10.93,7.42A2.42,2.42,0,0,1,113,90C113,88.85,113.51,85.77,116.55,79Z"/><path class="cls-4" d="M135.85,78.59a1.35,1.35,0,0,1,.76,1.23c0,.76-.67,1.08-1.43,1.08-2.76,0-5.84,1-5.84,2.28a4.63,4.63,0,0,0,1.34,2.55,5.54,5.54,0,0,1,1.69,3.36,3.36,3.36,0,0,1-1.11,2A16,16,0,0,1,128,92.8a5,5,0,0,1-1.69.36c-1.21,0-2.9-.6-3.08-1.48a1,1,0,0,1,.36-.83,4.67,4.67,0,0,1,1.6-1.12,1,1,0,0,1,1.12.08,3.28,3.28,0,0,0,1.34.24c.58,0,.93-.32.93-.56a4,4,0,0,0-1-1.88,15.33,15.33,0,0,1-1.47-2.23,4.38,4.38,0,0,1-.45-1.68c0-1.44,1.38-3,2.68-3.92A9.71,9.71,0,0,1,133.49,78,4.17,4.17,0,0,1,135.85,78.59Z"/><path class="cls-4" d="M147.45,87.85c1-.6,1.2.48.44,1.2a14.8,14.8,0,0,1-6.2,3.23,6,6,0,0,1-1.91.32c-1.3,0-2.86-.84-2.86-2.23a4.67,4.67,0,0,1,.49-1.8c.45-1.12,1.92-5,2.14-5.55.14-.28.14-.44-.31-.4s-1,.08-1.56.16a1.62,1.62,0,0,1-1.12-.4.91.91,0,0,1,.09-1.24,2,2,0,0,1,1.3-.76c.53-.08,1.29-.24,2.18-.4a.94.94,0,0,0,.85-.6c.22-.39,1.61-3.91,2.05-4.75a3.17,3.17,0,0,1,2.32-1.35,1.44,1.44,0,0,1,1.07.43,1.42,1.42,0,0,1,.27,2,33.67,33.67,0,0,0-1.87,3.64c-.14.31.26.27.53.27,2,0,5.22-.2,6.42-.2s.54.92-.09,1.24a32.63,32.63,0,0,1-7.35,1.48c-.58.08-.76.2-1,.6a23.27,23.27,0,0,0-1.74,4.79c-.22,1.2,0,2,1.12,2A11.82,11.82,0,0,0,147.45,87.85Z"/><path class="cls-4" d="M152,81.38c.89-1.12,3.21-3.51,5.08-3.51a1.61,1.61,0,0,1,1.57.8,1,1,0,0,0,.67.36,2.43,2.43,0,0,1,2.58,2.47A5,5,0,0,1,160.17,85a7.17,7.17,0,0,1-4.91,1.87,3.83,3.83,0,0,1-1.38-.32c-.31-.12-.45-.08-.58.2a2.49,2.49,0,0,0-.36,1.32c0,.88.71,1.48,2,1.48,2.67,0,6.78-1.32,11.33-5.43.44-.44.89-.4,1.07-.12s0,1.08-.58,1.75c-3,3.48-8.61,6.87-13.83,6.87a3.91,3.91,0,0,1-4.06-3.95C148.88,86.85,150,83.9,152,81.38Zm6.38.24a.91.91,0,0,0-1-.88c-.89,0-2.36,2-2.9,3.2-.18.48-.09.6.49.6C156.29,84.54,158.34,82.74,158.34,81.62Z"/><path class="cls-4" d="M178.28,79.5a3.88,3.88,0,0,1-1,1.84c-.54.56-1,.72-1.39.52a2.51,2.51,0,0,0-1.07-.32c-.49,0-1.29.56-2.45,1.88a37.3,37.3,0,0,0-5.09,7.51c-.44,1-1.11,1.55-1.82,1.55a2.62,2.62,0,0,1-1.92-.92,1.33,1.33,0,0,1-.31-1.71A28.71,28.71,0,0,0,164.9,82c.27-1.8.63-2.32,1.43-2.91a4,4,0,0,1,2-.92,1.63,1.63,0,0,1,1.52,1.55,3.28,3.28,0,0,1-.67,1.32,13.52,13.52,0,0,0-1.34,3.88c-.08.39.18.35.49,0A34.19,34.19,0,0,1,172,80.54c1.34-1.35,2.81-2.59,4.64-2.59C177.57,78,178.46,78.67,178.28,79.5Z"/><path class="cls-4" d="M179.88,82.62a3,3,0,0,0-.18-1.4,1.7,1.7,0,0,1,.36-1.36c.53-.83,1.34-2,2.36-2,1.25,0,1.52,2.31,1.47,3.91s-.53,4.47-.62,5.79c-.09,1,.18,1.48.49,1.48s1.61-1.36,4-5.07c.67-1,.72-1.52.58-2a2.11,2.11,0,0,1,.32-1.64,11.15,11.15,0,0,1,1.42-1.91,2,2,0,0,1,1.43-.76,2.61,2.61,0,0,1,1.78,2.07,6.19,6.19,0,0,1-.62,2.2,42.31,42.31,0,0,1-5.58,8.19c-4.77,5.27-8,8.7-8.47,9.38-.4.48-.62.76-.49.92a.83.83,0,0,1,.67.76c-.05,1.16-2.54,2.23-3.48,2.63a3.57,3.57,0,0,0-1.74,1.48,2.4,2.4,0,0,1-2.1,1c-.93,0-1.78-.64-1.51-1.4a5.27,5.27,0,0,1,1.2-2,4.26,4.26,0,0,1,1.92-1.44,1.88,1.88,0,0,0,1-.84,25,25,0,0,1,2.36-3.24c1.08-1.23,2.59-3,4.6-5.19.18-.2.22-.28.13-.28h-.31c-.8,0-1.29-1.15-1.16-3.83Z"/><path class="cls-5" d="M45.4,74.39a26,26,0,0,0-6.15,2.76c-1.94,1.16-3.77,2.51-5.71,3.83a26.18,26.18,0,0,1-3.09,1.83A13.09,13.09,0,0,1,26.91,84a14.76,14.76,0,0,1-1.88.17A5.76,5.76,0,0,1,23,83.67a14.63,14.63,0,0,1-3.2-1.9c-3.79-2.9-6.85-6.37-10.3-9.33a23,23,0,0,0-2.65-2A5.86,5.86,0,0,0,4,69.33a2.23,2.23,0,0,0-1.3.36,5.08,5.08,0,0,0-.54.5,7.26,7.26,0,0,0-.46.63A12.33,12.33,0,0,0,.5,74v0a.25.25,0,0,1-.31.17A.26.26,0,0,1,0,73.86,11.38,11.38,0,0,1,.88,70.4a8.58,8.58,0,0,1,.47-.82A6.59,6.59,0,0,1,2,68.84a3.27,3.27,0,0,1,1.91-.73,6.86,6.86,0,0,1,3.63,1,25.75,25.75,0,0,1,3,2c3.7,2.9,6.89,6.3,10.44,9a12.85,12.85,0,0,0,2.74,1.63,4.31,4.31,0,0,0,1.31.32A10.38,10.38,0,0,0,26.6,82a16.26,16.26,0,0,0,6-2.52c1.92-1.2,3.84-2.56,5.94-3.65a24.32,24.32,0,0,1,6.65-2.41.5.5,0,0,1,.24,1Z"/><path class="cls-5" d="M175.72,101.3A142.24,142.24,0,0,0,192,97.4a24.54,24.54,0,0,0,7.25-3.52A9.86,9.86,0,0,0,201.79,91a11.86,11.86,0,0,0,1.34-3.64c.65-2.4-.52-4.86-2.16-7a68.7,68.7,0,0,0-5.65-6.12,33.34,33.34,0,0,1-5.43-6.6,8.71,8.71,0,0,1-1.22-4.17A7.24,7.24,0,0,1,190,59.4a.19.19,0,0,1,.26-.06.2.2,0,0,1,.06.26,6.73,6.73,0,0,0-1,3.88,8,8,0,0,0,1.33,3.78,32.62,32.62,0,0,0,5.59,6.12,68.51,68.51,0,0,1,6.1,6,14.49,14.49,0,0,1,2.4,3.78,7.58,7.58,0,0,1,.4,4.68,14,14,0,0,1-1.57,4.24,12.13,12.13,0,0,1-3,3.41,26.58,26.58,0,0,1-7.85,3.83,141.72,141.72,0,0,1-16.53,3.95,1,1,0,0,1-1.16-.77,1,1,0,0,1,.78-1.17Z"/></g></g></svg>