<svg xmlns="http://www.w3.org/2000/svg" viewBox="0 0 323.51 67.55"><title>end</title><g id="Layer_2" data-name="Layer 2"><g id="Layer_3" data-name="Layer 3"><path d="M44.54,13,41.83,35.64,36.35,18.5l-8.57-.13-1,32.48,14.56,7L2.58,57.49l14.11-7-.9-32.29-8-.06L1.93,35.51,0,12.31Z"/><path d="M97.23,61.23l-27-.77,9.15-5V43.7a8.67,8.67,0,0,0-2.06-6.19,7.93,7.93,0,0,0-6.06-2.19,23.48,23.48,0,0,0-3.77.35A12.36,12.36,0,0,0,63.9,36.8c-.13,2.45-.24,4.89-.35,7.32s-.2,4.86-.29,7.31l8.18,4.9-27,1.1,10.38-5.74L53.14,8.38,37.28,4.19,65.52,0,64.16,30.94a16.78,16.78,0,0,1,3.29-.71A28.94,28.94,0,0,1,70.8,30h.26a36.45,36.45,0,0,1,6,.54,22.32,22.32,0,0,1,6,1.87,12.85,12.85,0,0,1,4.55,3.61,9.06,9.06,0,0,1,1.8,5.77,25,25,0,0,1-.22,3c-.15,1.2-.34,2.45-.55,3.74s-.45,2.52-.71,3.7l-.64,2.94Z"/><path d="M131.16,44.92c0,.31,0,.61,0,.91s0,.6,0,.9l-26.24.51a8.31,8.31,0,0,0,3.81,5.61,12.55,12.55,0,0,0,6.7,1.81A27.09,27.09,0,0,0,119,54.4a21.3,21.3,0,0,0,3.68-.84,17.68,17.68,0,0,0,3.41-1.51,14.16,14.16,0,0,0,2.9-2.23,12.32,12.32,0,0,1-2.38,4.77,14.62,14.62,0,0,1-4,3.42,18.69,18.69,0,0,1-5,2,21.61,21.61,0,0,1-5.32.67,18.66,18.66,0,0,1-6.86-1.28,17.92,17.92,0,0,1-5.67-3.55,16.63,16.63,0,0,1-5.26-12.31,15.66,15.66,0,0,1,1.62-7.15,17.51,17.51,0,0,1,4.25-5.51,18.74,18.74,0,0,1,6.12-3.52,22,22,0,0,1,7.29-1.22,16.79,16.79,0,0,1,7.18,1.48,16.29,16.29,0,0,1,5.45,4.06,18.3,18.3,0,0,1,3.45,6A21.83,21.83,0,0,1,131.16,44.92Zm-9.86-3.28a12.58,12.58,0,0,0-.71-3.35A9.4,9.4,0,0,0,119,35.45a8.07,8.07,0,0,0-2.48-2,8.2,8.2,0,0,0-6.74,0,7.15,7.15,0,0,0-2.38,1.9,10.26,10.26,0,0,0-1.58,2.77,19.3,19.3,0,0,0-.94,3.26Z"/><path d="M204.5,9l-1,22.94-7.73-16.82-18.11,1.48-.39,17.15,6-.32,7-13.35-.71,30.56-6.7-10.06-5.74-.39-.32,12.44,19.34-.13,6.38-18.82.19,24.17-51.3.39c2.57-1,5.13-2.09,7.66-3.19s5.1-2.09,7.67-3L165.57,18.3c-2.7-.81-5.37-1.67-8-2.57s-5.26-1.81-7.93-2.71l52.86-3.93Z"/><path d="M256.23,52.4l-28,.19L240.31,48V36.35a8.15,8.15,0,0,0-1.71-5.44,6.38,6.38,0,0,0-5.19-2,13.08,13.08,0,0,0-3.71.58,4.84,4.84,0,0,0-2.93,2.19l-1.42,12.5a17,17,0,0,0,2,1.29c.93.52,1.88,1,2.87,1.55s2.32,1.22,3.61,1.87L207.37,49l10.83-4.44L216.27,29,212,27.81c-1.64-.45-3.2-.91-4.71-1.38l-5.35-1.62,25.59-4.25-.32,3.93q2.25-.9,4.83-1.8a15.24,15.24,0,0,1,5-.9q5.86,0,9.09,3.15T249.33,34c0,1-.05,2.1-.16,3.32s-.25,2.46-.42,3.71-.35,2.48-.55,3.7-.37,2.36-.55,3.39Z"/><path d="M306,64.45l-22.3,3.1.32-5.61a27.05,27.05,0,0,1-3.81.64,38.23,38.23,0,0,1-3.86.2,34.44,34.44,0,0,1-7.64-.87,21.82,21.82,0,0,1-6.9-2.81,15.74,15.74,0,0,1-5-5,14,14,0,0,1-1.94-7.54,13.43,13.43,0,0,1,1.55-6.48,16,16,0,0,1,4.06-4.9A18.74,18.74,0,0,1,266.22,32a20,20,0,0,1,6.54-1.09,33,33,0,0,1,6.6.67,28.16,28.16,0,0,1,6.22,2l1.16-22.23L272.5,4.64l26.56,1.87-7,54.66ZM285.2,39.64a12.79,12.79,0,0,0-4.64-1.87,24.59,24.59,0,0,0-5-.58,11.73,11.73,0,0,0-4.29.77,9.65,9.65,0,0,0-3.35,2.19,10.24,10.24,0,0,0-2.16,3.39,11.71,11.71,0,0,0-.77,4.28,7.68,7.68,0,0,0,1.22,4.35,10.06,10.06,0,0,0,3.16,3,14.05,14.05,0,0,0,4.26,1.74,19,19,0,0,0,4.44.55,16.72,16.72,0,0,0,6.38-1.29Z"/><path d="M316.68,52.72a3.67,3.67,0,0,1-.55,2,4.9,4.9,0,0,1-1.38,1.45,5.58,5.58,0,0,1-1.94.84,9.37,9.37,0,0,1-2.12.26,9.69,9.69,0,0,1-2.23-.29,7.12,7.12,0,0,1-2.19-.94,5.76,5.76,0,0,1-1.64-1.54,3.66,3.66,0,0,1-.65-2.19,4.06,4.06,0,0,1,.65-2.32,5.16,5.16,0,0,1,1.64-1.58,7.8,7.8,0,0,1,2.22-.91,10.54,10.54,0,0,1,2.39-.29,5.84,5.84,0,0,1,2.16.42,6.4,6.4,0,0,1,1.87,1.13,5.41,5.41,0,0,1,1.29,1.74A5.14,5.14,0,0,1,316.68,52.72Zm6.83-50.79-7.86,42.86-7.67-.9,1.74-43Z"/></g></g></svg>