<svg xmlns="http://www.w3.org/2000/svg" xmlns:xlink="http://www.w3.org/1999/xlink" viewBox="0 0 257.95 229.58"><defs><style>.cls-1,.cls-12,.cls-13,.cls-14,.cls-2,.cls-3,.cls-4,.cls-5,.cls-6,.cls-7,.cls-8,.cls-9{stroke:#000;stroke-linecap:round;stroke-linejoin:round;}.cls-1,.cls-10,.cls-11,.cls-12,.cls-14,.cls-3,.cls-4,.cls-5,.cls-6,.cls-7,.cls-8,.cls-9{stroke-width:1.69px;}.cls-1{fill:url(#linear-gradient);}.cls-2,.cls-5{fill:gray;}.cls-2{stroke-width:0.66px;}.cls-3{fill:url(#linear-gradient-2);}.cls-4{fill:none;}.cls-6{fill:url(#linear-gradient-3);}.cls-7{fill:url(#radial-gradient);}.cls-8{fill:url(#linear-gradient-4);}.cls-9{fill:url(#linear-gradient-5);}.cls-10,.cls-11{stroke-miterlimit:10;}.cls-10{fill:url(#radial-gradient-2);stroke:url(#radial-gradient-3);}.cls-11{fill:url(#radial-gradient-4);stroke:url(#radial-gradient-5);}.cls-12{fill:url(#radial-gradient-6);}.cls-13{fill:#ffc9dd;stroke-width:1.07px;}.cls-14{fill:#998675;}.cls-15{fill:#42210b;}.cls-16{fill:#f2f2f2;}</style><linearGradient id="linear-gradient" x1="142.49" y1="-549.66" x2="247.82" y2="-654.99" gradientTransform="matrix(1, 0, 0, -1, 0, -536.32)" gradientUnits="userSpaceOnUse"><stop offset="0" stop-color="gray"/><stop offset="0.31" stop-color="#999"/><stop offset="1" stop-color="#ccc"/></linearGradient><linearGradient id="linear-gradient-2" x1="36.28" y1="-653.71" x2="18.93" y2="-681.84" gradientTransform="matrix(1, 0, 0, -1, 0, -536.32)" gradientUnits="userSpaceOnUse"><stop offset="0" stop-color="#4d4d4d"/><stop offset="0.57" stop-color="#989898"/><stop offset="1" stop-color="#ccc"/></linearGradient><linearGradient id="linear-gradient-3" x1="175.62" y1="-661.19" x2="205.62" y2="-687.19" xlink:href="#linear-gradient-2"/><radialGradient id="radial-gradient" cx="79.57" cy="-18.65" r="164.47" gradientUnits="userSpaceOnUse"><stop offset="0.16" stop-color="#ccc"/><stop offset="0.53" stop-color="#666"/></radialGradient><linearGradient id="linear-gradient-4" x1="79.89" y1="-675.18" x2="38.95" y2="-716.13" gradientTransform="matrix(0.99, 0.11, 0.11, -0.99, 74.59, -536.5)" xlink:href="#linear-gradient-2"/><linearGradient id="linear-gradient-5" x1="140.23" y1="-674.57" x2="182.9" y2="-723.91" xlink:href="#linear-gradient-2"/><radialGradient id="radial-gradient-2" cx="151.59" cy="-634.22" r="60.4" gradientTransform="matrix(1, 0, 0, -1, 0, -536.32)" gradientUnits="userSpaceOnUse"><stop offset="0" stop-color="#a8556c"/><stop offset="0.53" stop-color="#d895ab"/><stop offset="1" stop-color="#ffc9dd"/></radialGradient><radialGradient id="radial-gradient-3" cx="171.53" cy="-619.04" r="36.72" gradientTransform="matrix(1, 0, 0, -1, 0, -536.32)" gradientUnits="userSpaceOnUse"><stop offset="0" stop-color="#fff"/><stop offset="1"/></radialGradient><radialGradient id="radial-gradient-4" cx="54.92" cy="-632.89" r="59.08" gradientTransform="matrix(1, 0, 0, -1, 0, -536.32)" gradientUnits="userSpaceOnUse"><stop offset="0" stop-color="#a8556c"/><stop offset="1" stop-color="#ffc9dd"/></radialGradient><radialGradient id="radial-gradient-5" cx="36.16" cy="-619.04" r="36.73" xlink:href="#radial-gradient-3"/><radialGradient id="radial-gradient-6" cx="101.62" cy="106.39" r="58.77" gradientTransform="matrix(1, -0.07, 0.06, 0.84, -5.66, 23.36)" gradientUnits="userSpaceOnUse"><stop offset="0" stop-color="#ccc"/><stop offset="0.79" stop-color="gray"/></radialGradient></defs><title>mouse_1</title><g id="Layer_2" data-name="Layer 2"><g id="Layer_3" data-name="Layer 3"><g id="Layer_1-2" data-name="Layer 1-2"><path class="cls-1" d="M248.26,31.91a118.41,118.41,0,0,0-13.91-6.79,14,14,0,0,0-1.93-.49l-.42-.05h-.58l-1.14-.08c-1.52-.14-3-.14-4.53-.15A70.45,70.45,0,0,0,208,26.9c-5.87,1.5-12.2,2.07-18.46,3.41-1.56.36-3.15.62-4.75.9-.79.13-1.61.21-2.42.32l-1.21.15c-.44,0-.94.09-1.42.09a22.74,22.74,0,0,1-11.42-3.24,90.2,90.2,0,0,1-9.52-6.43,59.09,59.09,0,0,0-8.28-5.35A15.66,15.66,0,0,0,143,14.89a15.21,15.21,0,0,0-7.1,2.21,25.49,25.49,0,0,0-3.38,2.35,33,33,0,0,0-3.14,2.88,32.16,32.16,0,0,0-5,7.19c-2.94,5.49-5.12,12.42-8,19.42a79.22,79.22,0,0,1-11,19.73h0c-2.19,2.76-6,2.33-8.58-.94S94,59.57,96.14,56.81l.13-.16A64.77,64.77,0,0,0,106,40.45c2.8-6.2,5.37-13.21,9.11-20.08C120.8,9.92,128.62,4.42,130.2,3.59A29.73,29.73,0,0,1,140.92.89C148.8.08,159.56,10,162.5,12.24a86.74,86.74,0,0,0,8.28,6,15.39,15.39,0,0,0,7.53,2.54h.92l1.11-.1c.74-.07,1.47-.11,2.22-.2,1.47-.19,3-.37,4.44-.64,5.91-1,11.81-2.71,18-4a87,87,0,0,1,19.24-1.94,50.49,50.49,0,0,1,10.44,1.52c3.48,1.31,14.7,4.43,17.76,7.72A22.19,22.19,0,0,1,254.7,26a14.39,14.39,0,0,1,2,4.25,10.09,10.09,0,0,1,.08,5.37,8.46,8.46,0,0,1-1.92,3.51,14.5,14.5,0,0,1-4.59,3.2,39.91,39.91,0,0,1-4.54,1.78c-1.51.52-2.9,1-4.32,1.51s-2.81,1.09-4.17,1.72C234.5,48.61,222,67,217.53,71.91c1.84.6,6.36,2.17,9.7.15,1.36-.82,11.58-5.62,16.91-3.55,3.25,1.26,6.09,7.1,9.25,8.25a1.65,1.65,0,0,1,.93,1.68c-.07.7-.58,1.11-1.16.93-5.45-1.68-6.72-6.79-12.07-5.85-3,.52-9.47,3.31-12.21,4.48a15.37,15.37,0,0,1-9.53,1,18.92,18.92,0,0,1-5.24-1.9,7.31,7.31,0,0,1-3.52-9.1,8.49,8.49,0,0,1,1.25-2c4.63-6.16,10.33-10.91,14.46-17.76C233,35.63,242.9,34.53,244.3,34A39.26,39.26,0,0,0,248.26,31.91Z"/><path class="cls-2" d="M248.26,31.91c1.08-.95,4.25-2.07,3.43-4.47"/><path class="cls-2" d="M214.86,69.51c.49,1.07,1.76,2.43,2.67,2.4"/><path class="cls-3" d="M36.41,60.11C18,85.15,15.81,97,24.47,115.86c4.66,10.16,19.34,20,19.38,20.89-4.23.88-12.3,11.84-14.86,9.84-2.08-1.63-3.43-2.28-5-.73-3,2.85-6.72,4-4.9,7.81-1.12,1.07-1.94,7.37-.8,8.21.51.37,1.18-3.29,3.18-2.85s1.66-1.8,2.94-2.41c-1,2.83-2.28,9.61-1.46,10.09.37.23,1.34-3.77,2.62-2.7,1.46,1.21,2.55-2.89,3.48-2.55-.67,1.88-.51,8.37.15,8.54.29.07,1-1.39,1.34-3.77a4.55,4.55,0,0,1,3.56-4,11.42,11.42,0,0,0,6.45-6.2c.52-1.15,3.62-3.92,8.68-3.07,3,.51,1.64-5.7,2.73-10.82,1.25-5.84,6.34-13.82,14-16.47"/><path class="cls-4" d="M19.1,153.71c1.61-1.55,7.77-10,9.93-7.09s2.5,1.94,3.43,2.27"/><path class="cls-4" d="M35,150.83c-1.62,1.56-4.66-4.82-6.95-1.39a46.33,46.33,0,0,0-4.27,9.1"/><path class="cls-4" d="M37.46,152.78c-1.27.61-5.39.22-6,2.1s-2.25,4.94-2.34,6.6"/><path class="cls-5" d="M49.55,154.82c-1.77-1.35-3.27-1.22-5.68-.07"/><path class="cls-5" d="M58,137.06c0,4.13-5.53,13.22-6.19,22.25"/><path class="cls-6" d="M159.58,71.43c25.09,18.35,30.74,28.94,28.15,49.59-1.39,11.09-12.43,24.92-12.2,25.74,4.31-.44,15.28,7.6,17.11,4.92,1.5-2.17,2.59-3.21,4.61-2.21,3.69,1.83,7.6,1.77,7,6,1.39.69,4.06,6.45,3.22,7.59-.37.52-2.11-2.77-3.88-1.76s-2.14-1.22-3.53-1.41c1.81,2.39,5.06,8.48,4.42,9.18-.28.33-2.41-3.19-3.32-1.78-1,1.59-3.29-2-4.09-1.39,1.2,1.59,3,7.83,2.43,8.19-.26.16-1.41-1-2.41-3.19a4.53,4.53,0,0,0-4.61-2.79,11.44,11.44,0,0,1-8-4c-.84-.94-4.63-2.65-9.2-.32-2.75,1.4-3.26-4.94-5.85-9.5-3-5.19-10.21-11.27-18.27-11.51"/><path class="cls-4" d="M204.23,155.5c-2-1-10.42-7.18-11.61-3.78s-1.8,2.6-2.6,3.2"/><path class="cls-4" d="M188.23,157.52c2,1,3-6,6.19-3.41a46.43,46.43,0,0,1,6.83,7.39"/><path class="cls-4" d="M186.43,160.13c1.4.19,5.2-1.41,6.4.19s3.63,4,4.21,5.59"/><path class="cls-5" d="M170.11,148.55c1.3-1.83,2.76-2.15,5.4-1.78"/><path class="cls-7" d="M174,84.1c0,38.61-37.81,83.14-71.73,83C78.45,167,35.55,121.41,35.55,82.84S62,14.17,102.28,14.17,174,45.48,174,84.1Z"/><path class="cls-8" d="M38.92,118.57c-5.79,15.44-1.41,27.71,4.95,44.85a177.5,177.5,0,0,1,7.91,31.1c-4.16,1.18-11.44,12.68-14.13,10.87-2.19-1.48-3.58-2-5.08-.38-2.76,3.07-6.43,4.45-4.34,8.14-1,1.15-1.41,7.49-.21,8.25.54.33.94-3.37,3-3.07s1.53-1.91,2.75-2.61c-.79,2.93-1.58,9.74-.74,10.17.39.2,1.07-3.9,2.43-2.88,1.53,1.1,2.36-3.06,3.33-2.79-.53,1.95.05,8.38.76,8.51.29,0,.95-1.46,1.07-3.9a4.54,4.54,0,0,1,3.27-4.29,11.43,11.43,0,0,0,6-6.64c.44-1.19,3.34-4.17,8.48-3.67,3.06.29,1.21-5.8,2-11,.84-6,6.86-23.22,14.27-26.4"/><path class="cls-4" d="M28.29,213.17c1.49-1.67,7-10.5,9.4-7.78s2.63,1.76,3.58,2"/><path class="cls-4" d="M43.9,209.15c-1.48,1.66-5-4.48-7-.89a47,47,0,0,0-3.62,9.38"/><path class="cls-4" d="M46.57,210.94c-1.23.7-5.35.6-5.88,2.53s-1.89,5.08-1.86,6.75"/><path class="cls-5" d="M57.46,194.17c-1.87-1.23-3.35-1-5.67.35"/><path class="cls-5" d="M64.59,175.86C64.87,180,60,189.42,60,198.48"/><path class="cls-9" d="M133.92,177.57c7.45,3.09,13.22,11.43,14.12,17.33.8,5.18-1,11.3,2.1,11,5.11-.55,8,2.39,8.5,3.57A11.45,11.45,0,0,0,164.7,216a4.52,4.52,0,0,1,3.33,4.24c.16,2.39.83,3.89,1.11,3.84.67-.13,1.2-6.6.64-8.52,1-.28,1.83,3.87,3.34,2.75,1.34-1,2.08,3.05,2.47,2.85.83-.43,0-7.28-.89-10.16,1.25.68.84,2.88,2.81,2.57s2.47,3.38,3,3c1.19-.77.74-7.1-.31-8.24,2-3.72-1.64-5.06-4.44-8.08-1.53-1.64-2.92-1.06-5.09.44-2.66,1.84-10.08-9.57-14.25-10.69a176.71,176.71,0,0,1,7.5-31.17c6.14-17.22,13-26.92,7-42.29"/><path class="cls-4" d="M180.14,208.4c-1.52-1.64-7.17-10.41-9.5-7.66s-2.61,1.8-3.56,2.07"/><path class="cls-4" d="M164.48,204.61c1.5,1.64,4.92-4.55,7-1a47,47,0,0,1,3.74,9.33"/><path class="cls-4" d="M161.87,206.4c1.24.69,5.36.53,5.91,2.46s1.95,5.06,1.95,6.72"/><path class="cls-5" d="M150.72,189.78c1.86-1.25,3.34-1,5.67.25"/><path class="cls-5" d="M143.36,171.56c-.22,4.12,4.75,13.51,4.89,22.56"/><path class="cls-10" d="M140,96.88c11.13,3.72,20.05,12.63,23.75,22.28a43.07,43.07,0,0,0,43.07-43.07c0-23.79-24.44-33.27-38.11-28.69C145.84,55.1,128.17,70.15,140,96.88Z"/><path class="cls-11" d="M67.67,96.88c-11.12,3.72-20.05,12.63-23.76,22.28A43.06,43.06,0,0,1,.85,76.09h0C.85,52.3,25.29,42.82,39,47.4,61.87,55.1,79.56,70.15,67.67,96.88Z"/><path class="cls-5" d="M90.42,193.07c3.38,6.75,18.57,13.5,28.7,0"/><path class="cls-12" d="M166.37,130.94c-8.44,28.69-22.45,33.17-38.82,52.32-1.69,16.87-23.63,15.19-24.24,8.69-4.44,8.18-23,6.5-24.69-10.38-15.75-25.9-37.14-33.75-35.44-62.44,1.92-14.48,13.49-21.94,23.63-30.38,6.75-8.44,19.79-15.19,37.11-15.19,16.27,0,28.7,6.75,35.45,16.88C152.87,97.19,166.37,108.16,166.37,130.94Z"/><path class="cls-13" d="M114.89,179.39c0,5.92-7.5,11.78-10.7,11.78-2.14,0-10.71-5.86-10.71-11.78,0-3.21,4.8-5.35,10.71-5.35S114.89,176.18,114.89,179.39Z"/><path class="cls-4" d="M125.87,174.82a22,22,0,0,1,1.69,8.44"/><path class="cls-14" d="M90.42,149.5c-9.66,3-19.12,6.29-25.66,2.71s-8.14-15.14-4.55-21.68c7.53.28,11.86-1.49,18.41,2.1S87.92,141.45,90.42,149.5Z"/><ellipse class="cls-15" cx="71.55" cy="142.84" rx="10.78" ry="11.05"/><circle cx="70.55" cy="142.84" r="8"/><circle class="cls-16" cx="67.41" cy="139.01" r="1.85"/><circle class="cls-16" cx="99.41" cy="179.01" r="1.85"/><path class="cls-5" d="M120.67,93.81c3.38-35.44,27-36.69,40.25-43.24-23.28,16.68-21.69,24.68-20,44.93"/><path d="M53.3,122.5a9.64,9.64,0,0,0,2.46,3.84,6.69,6.69,0,0,0,3.88,1.53,28.47,28.47,0,0,0,4.52.1c1.54-.06,3.13-.17,4.71-.26h0a2.55,2.55,0,0,1,.3,5.1h0a2.43,2.43,0,0,1-.66,0c-1.57-.33-3.13-.65-4.73-1A31.41,31.41,0,0,1,59,130.32a11,11,0,0,1-2.34-1.25,7.08,7.08,0,0,1-1.84-1.9A10.33,10.33,0,0,1,53.3,122.5Z"/><path d="M44,128.9a20.87,20.87,0,0,0,3,2,11.8,11.8,0,0,0,3.22,1.1,11.48,11.48,0,0,0,3.31.15,15.57,15.57,0,0,0,3.3-.6,20.08,20.08,0,0,0,3.22-1.26,17.54,17.54,0,0,1,1.75-.67,12.14,12.14,0,0,1,1.92-.42,12.38,12.38,0,0,1,7.83,1.35.26.26,0,0,1,.09.35.23.23,0,0,1-.12.1A35.36,35.36,0,0,1,68,132.38l-3.24,1.19a22.68,22.68,0,0,1-3.38,1c-1.27.25-2.59.4-3.9.55a15.74,15.74,0,0,1-7.94-1,14.56,14.56,0,0,1-5.9-4.9.24.24,0,0,1,.06-.32.24.24,0,0,1,.26,0Z"/><path d="M60.21,130.27a47.54,47.54,0,0,1,4.91-1.58,26.63,26.63,0,0,1,5.16-.87,13.32,13.32,0,0,1,5.59.91,25.44,25.44,0,0,1,4.83,2.78,20.39,20.39,0,0,1,7,8.13,39.48,39.48,0,0,1,3,9.79l-.48.15a45.39,45.39,0,0,0-4.68-8.64,19.43,19.43,0,0,0-6.92-6,14.71,14.71,0,0,0-4.2-1.44c-1.4-.27-2.76-.44-4.26-.64-3-.4-6.63-.54-9.93-2.1Z"/><path class="cls-14" d="M118.27,147.82c9.67,3,19.13,6.28,25.68,2.7s8.13-15.14,4.53-21.68c-7.53.28-11.86-1.48-18.41,2.1S120.77,139.76,118.27,147.82Z"/><ellipse class="cls-15" cx="135.55" cy="140.84" rx="10.78" ry="11.05"/><circle cx="135.55" cy="140.84" r="8"/><circle class="cls-16" cx="131.88" cy="139.36" r="1.85"/><path d="M155.39,120.82a10.29,10.29,0,0,1-1.5,4.66,7.3,7.3,0,0,1-1.85,1.91,11.74,11.74,0,0,1-2.32,1.24,31.81,31.81,0,0,1-4.82,1.43c-1.59.37-3.16.68-4.73,1a2.55,2.55,0,0,1-1.09-5l.09,0a2.43,2.43,0,0,1,.66,0h0c1.59.1,3.17.2,4.72.26a31,31,0,0,0,4.52-.09A6.79,6.79,0,0,0,153,124.7,9.7,9.7,0,0,0,155.39,120.82Z"/><path d="M165.06,127.52a14.55,14.55,0,0,1-5.92,4.9,15.49,15.49,0,0,1-7.94,1c-1.31-.15-2.63-.3-3.89-.55a23.16,23.16,0,0,1-3.39-1l-3.22-1.18c-1.11-.42-2.29-.81-3.54-1.39a.24.24,0,0,1-.15-.3.25.25,0,0,1,.11-.12,12.3,12.3,0,0,1,7.83-1.34,12.65,12.65,0,0,1,1.92.42c.59.19,1.17.42,1.75.67a20.29,20.29,0,0,0,3.22,1.26,16,16,0,0,0,3.3.59,10.82,10.82,0,0,0,3.31-.15,12.13,12.13,0,0,0,3.25-1.11,22,22,0,0,0,3-2h0a.23.23,0,0,1,.31,0A.26.26,0,0,1,165.06,127.52Z"/><path d="M148.5,129.09c-3.3,1.56-7,1.7-9.94,2.11-1.5.2-2.85.37-4.25.63a14.71,14.71,0,0,0-4.2,1.44,19.61,19.61,0,0,0-6.92,6,46.86,46.86,0,0,0-4.68,8.64l-.48-.15a40.62,40.62,0,0,1,3-9.79,21.62,21.62,0,0,1,2.92-4.49,22.31,22.31,0,0,1,4-3.64,25.44,25.44,0,0,1,4.83-2.78,13.2,13.2,0,0,1,5.59-.9,25.54,25.54,0,0,1,5.15.86,43.92,43.92,0,0,1,4.91,1.59Z"/><path class="cls-5" d="M83.67,80.31C76.92,61.75,60.05,56.69,46.75,50.13,65.12,60.06,68.49,75.25,66.81,95.5"/><path class="cls-4" d="M78.53,182.31c.09-4.11,1.77-5.8,1.77-7.49"/></g></g></g></svg>