<svg xmlns="http://www.w3.org/2000/svg" viewBox="0 0 471.75 71.8"><title>Title</title><g id="Layer_2" data-name="Layer 2"><g id="Layer_3" data-name="Layer 3"><path d="M85.77,66.78,45.9,66l11.16-5.19L57,32.11l-15.37,31L24.85,33.94l1,28.28,20.42,6H.42l18.6-6L16.07,22.35,0,15.41l30.25.28L43.52,42.57,59.1,14.28l26.39,1L71.1,21l-2,39.87Z"/><path d="M127.11,47.45a13.47,13.47,0,0,1-2.42,8.17A18.48,18.48,0,0,1,118.51,61a29.9,29.9,0,0,1-8.17,3,40.36,40.36,0,0,1-8.42.94,35.92,35.92,0,0,1-8.18-1A26.77,26.77,0,0,1,86,60.92a18.08,18.08,0,0,1-5.83-5.44,13.88,13.88,0,0,1-2.28-8A14,14,0,0,1,80.3,39a17.7,17.7,0,0,1,6.21-5.33,27.92,27.92,0,0,1,8.28-2.74,52.48,52.48,0,0,1,8.74-.77,35.44,35.44,0,0,1,8,1,27.11,27.11,0,0,1,7.65,3.06,17.58,17.58,0,0,1,5.68,5.37A13.86,13.86,0,0,1,127.11,47.45Zm-11.58-.14a11.07,11.07,0,0,0-1-4.64A11.29,11.29,0,0,0,112,39a11.89,11.89,0,0,0-3.83-2.38,12.73,12.73,0,0,0-4.63-.84,17.93,17.93,0,0,0-5,.73,15.86,15.86,0,0,0-4.57,2.14,11.32,11.32,0,0,0-3.3,3.55,9.44,9.44,0,0,0-1.26,4.88,13.5,13.5,0,0,0,.88,5,10.8,10.8,0,0,0,2.53,3.86,11.19,11.19,0,0,0,3.89,2.49,13.5,13.5,0,0,0,5,.88,21.21,21.21,0,0,0,5.48-.67,12.13,12.13,0,0,0,4.42-2.14,10,10,0,0,0,3-3.75A12.94,12.94,0,0,0,115.53,47.31Z"/><path d="M179.15,68.22,159.92,71.8l.21-6.32a7.31,7.31,0,0,1-2,1.72,12.22,12.22,0,0,1-2.56,1.2,17,17,0,0,1-2.78.66,17.92,17.92,0,0,1-2.66.21q-8.78,0-12.64-4.21t-3.86-12.7c0-2.2,0-4.35.07-6.46s.1-4.23.14-6.38q-2.73-1.62-5.54-3.16c-1.87-1-3.72-2.09-5.55-3.16l22.75-.14q-.49,5.05-1.16,10.63a88.07,88.07,0,0,0-.67,10.56c0,3,.65,5.1,2,6.46s3.43,2,6.38,2a9,9,0,0,0,4.49-1.27,11.41,11.41,0,0,0,3.58-3l.92-18-12.57-6.11,24.15-.21-4.78,29.9Z"/><path d="M216,51.57a9.62,9.62,0,0,1-1.61,5.76,11.77,11.77,0,0,1-4.07,3.54,18.52,18.52,0,0,1-5.48,1.83,33.9,33.9,0,0,1-5.82.52A29,29,0,0,1,195.5,63a31.4,31.4,0,0,1-3.82-.74A35.28,35.28,0,0,1,188,61.05a15.29,15.29,0,0,1-3.19-1.69L179.12,66l2.17-21.48a23.58,23.58,0,0,0,3.05,4.91,22.5,22.5,0,0,0,4.25,4.08,21,21,0,0,0,5.12,2.77,16.18,16.18,0,0,0,5.69,1c.51,0,1.11,0,1.79-.11a7.67,7.67,0,0,0,2-.46,4.2,4.2,0,0,0,1.58-1,2.24,2.24,0,0,0,.64-1.68,2.86,2.86,0,0,0-1.27-2.21,12.66,12.66,0,0,0-2.95-1.76,32.77,32.77,0,0,0-3.36-1.26c-1.13-.35-2-.62-2.53-.81A46.05,46.05,0,0,1,190,46.13a28.29,28.29,0,0,1-5.26-3,16.1,16.1,0,0,1-4-4.07,9.35,9.35,0,0,1-1.61-5.44,9.75,9.75,0,0,1,1.43-5.26,13.32,13.32,0,0,1,3.69-3.9,17,17,0,0,1,5-2.38,19.34,19.34,0,0,1,5.44-.81,21.07,21.07,0,0,1,8,1.51,22.58,22.58,0,0,1,6.85,4.32l4.35-8.43L213,40.9a33.87,33.87,0,0,0-3.16-4.81,30.64,30.64,0,0,0-4.21-4.38,21.09,21.09,0,0,0-5-3.16,13.34,13.34,0,0,0-5.54-1.19,13.06,13.06,0,0,0-1.93.17,8.33,8.33,0,0,0-2,.6,4.59,4.59,0,0,0-1.61,1.16,2.64,2.64,0,0,0-.67,1.86,3.09,3.09,0,0,0,1,2.31,10.06,10.06,0,0,0,2.46,1.72,23,23,0,0,0,2.94,1.26c1,.36,1.84.63,2.5.81q2.52.84,5.68,2a37.22,37.22,0,0,1,6,2.73,17,17,0,0,1,4.73,4A8.61,8.61,0,0,1,216,51.57Z"/><path d="M259.44,51.66c0,.33,0,.65,0,1s0,.66,0,1l-28.56.56A9.05,9.05,0,0,0,235,60.29a13.74,13.74,0,0,0,7.3,2,30.47,30.47,0,0,0,4-.28,24.13,24.13,0,0,0,4-.92A18.8,18.8,0,0,0,254,59.41,15,15,0,0,0,257.13,57a13.63,13.63,0,0,1-2.6,5.2,16.39,16.39,0,0,1-4.32,3.72,20.38,20.38,0,0,1-5.4,2.21,23.56,23.56,0,0,1-5.79.73,20.08,20.08,0,0,1-7.48-1.4,19.42,19.42,0,0,1-6.17-3.86,18.12,18.12,0,0,1-5.72-13.41,17.18,17.18,0,0,1,1.75-7.79,19.31,19.31,0,0,1,4.63-6,20.56,20.56,0,0,1,6.67-3.82,23.71,23.71,0,0,1,7.93-1.34,18.34,18.34,0,0,1,7.83,1.62,17.6,17.6,0,0,1,5.93,4.42,19.77,19.77,0,0,1,3.76,6.49A23.76,23.76,0,0,1,259.44,51.66Zm-10.73-3.58a14,14,0,0,0-.78-3.65,10,10,0,0,0-1.75-3.09,8.68,8.68,0,0,0-2.7-2.14,8,8,0,0,0-3.69-.81,8.15,8.15,0,0,0-3.65.77,7.9,7.9,0,0,0-2.6,2.08,11,11,0,0,0-1.71,3,19.75,19.75,0,0,0-1,3.55Z"/><path d="M349.84,64.36h-39l13.76-5.54-.29-11.93-19.09,2-.21,16,16.29,5.55H279.44l7.3-2.88c2.48-1,4.92-1.87,7.3-2.67L292.92,26q-3.59-1.41-7.05-3.12t-7-3.34l39,.42-12.15,5.69-.35,15.58h18.74l-.56-20.92L309.2,14l39.31.42-12.28,5.68-1.06,38.75Z"/><path d="M394.73,66.22,375.49,69.8l.22-6.32a7.51,7.51,0,0,1-2,1.72,12.22,12.22,0,0,1-2.56,1.2,16.89,16.89,0,0,1-2.77.66,18.16,18.16,0,0,1-2.67.21q-8.78,0-12.64-4.21t-3.86-12.7c0-2.2,0-4.35.07-6.46s.1-4.23.15-6.38q-2.74-1.62-5.55-3.16c-1.87-1-3.72-2.09-5.54-3.16l22.74-.14q-.5,5.06-1.16,10.63a88.07,88.07,0,0,0-.67,10.56q0,4.43,2,6.46t6.38,2a9.05,9.05,0,0,0,4.5-1.27,11.52,11.52,0,0,0,3.58-3l.91-18-12.57-6.11,24.15-.21-4.77,29.9Z"/><path d="M443.85,59.8,413.39,60l13.13-5V42.32a8.92,8.92,0,0,0-1.86-5.93A7,7,0,0,0,419,34.18a14.33,14.33,0,0,0-4,.63,5.29,5.29,0,0,0-3.19,2.39l-1.55,13.62a18.09,18.09,0,0,0,2.21,1.4c1,.56,2.05,1.12,3.13,1.68s2.53,1.34,3.93,2l-28.85.14,11.79-4.84-2.1-16.92-4.7-1.3q-2.67-.74-5.13-1.51l-5.82-1.75,27.86-4.63-.35,4.28c1.64-.66,3.39-1.31,5.26-2a16.66,16.66,0,0,1,5.48-1q6.39,0,9.89,3.44t3.51,9.9c0,1.07-.06,2.28-.17,3.61s-.27,2.68-.46,4-.38,2.7-.59,4-.41,2.56-.6,3.69Z"/><path d="M471.75,19.09l-.63,6.6c-2.29-.19-4.56-.36-6.81-.53s-4.51-.36-6.81-.59q-.56,6.66-1.19,13.26T455.05,51.1a4.26,4.26,0,0,1-.07.7,3.33,3.33,0,0,0-.07.7,9.85,9.85,0,0,0,.21,2,5.66,5.66,0,0,0,.7,1.83,4.23,4.23,0,0,0,1.3,1.33,3.57,3.57,0,0,0,2,.53,7.62,7.62,0,0,0,4.07-1.09,10.25,10.25,0,0,0,2.95-2.77A14.9,14.9,0,0,0,468,50.57a18.64,18.64,0,0,0,.91-4.11,26,26,0,0,1,.85,6.53,15,15,0,0,1-1,5.58,12.56,12.56,0,0,1-2.73,4.28,12.13,12.13,0,0,1-4.22,2.78,14.46,14.46,0,0,1-5.4,1,12.94,12.94,0,0,1-5.4-1,10.46,10.46,0,0,1-3.83-2.92A12.28,12.28,0,0,1,445,58.26a19,19,0,0,1-.74-5.41V51.8a7.82,7.82,0,0,1,.07-1q.56-6.81,1.09-13.45t.94-13.44c-1.26-.09-2.51-.19-3.75-.31l-3.76-.39.28-5.54a15.23,15.23,0,0,0,3.09-.49A18.27,18.27,0,0,0,445.33,16a15.17,15.17,0,0,0,2.8-1.68,9.28,9.28,0,0,0,2.14-2.25,22.73,22.73,0,0,0,1.44-2.74,29,29,0,0,0,1.2-3.08c.35-1.08.64-2.14.87-3.2a23.23,23.23,0,0,0,.49-3L460,.14l-1.82,17.55Z"/></g></g></svg>