<?xml version="1.0" encoding="utf-8"?>
<!-- Generator: Adobe Illustrator 20.1.0, SVG Export Plug-In . SVG Version: 6.00 Build 0)  -->
<svg version="1.1" id="Layer_1" xmlns="http://www.w3.org/2000/svg" xmlns:xlink="http://www.w3.org/1999/xlink" x="0px" y="0px"
	 viewBox="0 0 128.1 197.8" style="enable-background:new 0 0 128.1 197.8;" xml:space="preserve">
<style type="text/css">
	.st0{fill:#E6DFD6;}
</style>
<title>large-trim</title>
<g id="Layer_2">
	<g id="Objects">
		<path class="st0" d="M127.9,156.9c-0.5-0.2-0.9-0.6-1.1-1.1c-0.4-1,0.1-1.4,1.1-1.8v-3.6c-2-0.6-3.6-2.9-3.7-5.1
			c-0.1-1.1,1-2.3,1.8-3.1c0.5-0.5,0.9-0.8,1.9-1V138c0-0.2-0.9-0.5-1.1-1c-0.4-1,0.1-1.4,1.1-1.8v-4.1c-2-1.6-3.8-4.4-4.9-7
			c-0.7-1.8,2.5-2.2,4.4-2.8l0,0c0.1,0,0.5,0,0.5,0V108c-2-1.5-3.3-4.2-2.8-6.8c0.5-1.6,1.2-3.2,2.1-4.6c0.2-0.1,0.6-0.3,0.6-0.4V84
			c0-0.2-0.6-0.5-0.9-0.7c-0.3-0.2-0.8-0.6-1.2-1c-1.1-2.5-1.6-5.1-0.5-7.6c0.8-0.7,1.6-1.3,2.6-2V58.8c0-0.2-0.6-0.4-1-0.6
			c-0.3-0.2-0.8-0.4-1.1-0.6l-0.4-0.3c-0.7-0.9-1.2-1.9-1.7-3c-0.3-1.5-0.1-3.2,0.6-4.6c1.4-1.2,2.6-2.7,3.6-4.3V32.7l-1.3-0.6
			c-0.7-0.8-1.6-1.5-2.5-2.1c-0.7-0.9-1.3-1.9-1.7-3c-0.8-2.3-0.1-5,0.8-7.3c0.9-1,1.7-2.1,2.4-3.2c0.6-0.4,1.3-0.8,2-1.1l0.2,0
			v-3.3l-0.1,0l-0.1-0.1c-0.1-0.1-0.1-0.2-0.2-0.3l-0.1-0.1c0-0.1-0.1-0.2-0.1-0.3l0,0c0.3-0.3,0,0,0.2-0.2l0.2-0.2h0.2V4.7
			c0,0-0.3-0.1-0.3-0.1c-0.2-0.2-0.1-0.5,0-0.8c0.1,0,0.3-0.1,0.3-0.1l0,0V0.3c-11-0.1-21.8-0.1-32.7-0.1c-6,0-12,0.2-17.9,0.3
			c-4.3,0-8.7-0.3-12.9,0c-4.3-0.3-8.7,0-12.9,0c-6,0-11.9-0.5-17.9-0.5C22.7,0,11.7-0.2,0.8-0.2H0v15.9c0-0.1,0.3-0.2,0.5-0.2
			c0.1,0,0.2-0.1,0.3-0.1c0.1,0,0.2,0,0.3,0.1c0.7,0.3,1.4,0.7,2,1.1c0.7,1.1,1.5,2.2,2.4,3.2c0.9,2.3,1.7,5.1,0.8,7.3
			c-0.4,1.1-1,2.1-1.7,3c-0.9,0.6-1.7,1.3-2.5,2.1l-1.3,0.6L0,32.4v14.2c0-0.4,0.6-0.9,0.8-1.3c1,1.7,2.2,3.2,3.7,4.5
			c0.7,1.4,0.9,3,0.5,4.6c-0.4,1.1-1,2.1-1.7,3.1l-0.4,0.3c-0.4,0.2-0.8,0.4-1.1,0.6s-0.7,0.4-1,0.6L0,58.5v14.8
			c0-0.2,0.6-0.4,0.8-0.6c0.9,0.7,1.8,1.3,2.7,2c1,2.5,0.5,5.1-0.6,7.6c-0.4,0.4-0.8,0.7-1.1,1s-0.6,0.6-1,0.8
			C0.5,83.8,0,83.6,0,83.3v3l0,0l0,0c0,0,0,0.2,0,0.3v0.1v10.2l0.1-0.3c0.2-0.2,0.5-0.3,0.7-0.5c0.2,0.1,0.5,0.3,0.7,0.5
			c0.9,1.4,1.6,3,2.1,4.6c0.5,2.6-0.5,5.4-2.8,6.9c-0.3-0.2-0.8-0.4-0.8-0.7v14l0.3-0.1l0,0c0.2,0,0.4,0,0.5,0c0.2,0,0.4,0,0.6,0
			l0,0c2,0.6,5.1,1,4.4,2.8c-1,2.6-2.5,5.5-4.9,7.1C0.5,131,0,130.7,0,130.5v5.1c0-0.2,0.5-0.3,0.8-0.4c0.8,0.3,1.6,0.8,1.2,1.8
			c-0.2,0.5-0.6,0.9-1.1,1.1c-0.3-0.1-0.8-0.3-0.8-0.6v4.1c0-0.1,0.5-0.2,0.8-0.3c0.8,0.2,1.4,0.5,2,1.1c0.7,0.7,1.8,1.9,1.7,3.1
			c0,2.2-1.5,4.6-3.7,5.1c-0.3-0.1-0.8-0.2-0.8-0.3v4.3c0-0.2,0.5-0.4,0.8-0.6l0,0c0.7,0.4,1.5,0.8,1.2,1.8
			c-0.2,0.5-0.6,0.9-1.2,1.1c-0.3-0.1-0.8-0.3-0.8-0.6v4c0,0.1,0.5,0.1,0.8,0.1c0.3,0,0.6-0.1,0.9-0.2c2-0.6,3.5-2.4,4.7-4.2
			c1.1-1.6,3-4.8,5.5-3.8c1.9,0.8,4,1.8,4.1,3.8c-0.7,0.9-1.1,2-1.9,3c-1.1,1.4-2,3.1-2.5,4.8c-0.5,2.4,0.3,4.9,2.1,6.6
			c5.6,4.5,11.1-0.7,16.7-2.4c0.1,0.1,0.2,0.2,0.3,0.2c0.9,0.4,6.4,1.9,7.1,3.6c-1.7,3.7-0.3,10.8,3.9,11.4c2.5,0.4,5.2-1.4,7.1-2.8
			c1.3-0.9,3.3-3.6,5-4.1c0.4,0.4,0.8,0.6,1.3,0.8c0.7,0.3,1.3,0.6,2,0.9l0.3,0.1c0.7,1.6,0.3,3.8,0.5,5.4c0.2,1.9,0.6,3.7,1.3,5.5
			c0.1,0.3,0.3,0.7,0.5,1.1c0.1,0.6,0.3,1.1,0.5,1.6c0.5,1.4,1.6,2.6,2.9,3.4c0.4,0.2,0.8,0.4,1.3,0.4c0.5,0,0.9-0.2,1.3-0.4
			c1.3-0.8,2.4-2,2.9-3.4c0.2-0.5,0.4-1.1,0.5-1.6c0.2-0.4,0.3-0.7,0.5-1.1c0.7-1.8,1.2-3.6,1.3-5.5c0.1-1.6-0.2-3.8,0.5-5.4
			l0.3-0.1c0.7-0.3,1.3-0.6,2-0.9c0.5-0.1,1-0.4,1.3-0.8c1.7,0.4,3.7,3.2,5,4.1c1.9,1.3,4.6,3.2,7.1,2.8c4.2-0.7,5.6-7.7,3.9-11.4
			c0.7-1.8,6.2-3.2,7.1-3.6c0.1-0.1,0.2-0.1,0.3-0.2c5.6,1.8,11,6.9,16.7,2.4c1.8-1.7,2.6-4.2,2.1-6.6c-0.5-1.8-1.4-3.4-2.5-4.8
			c-0.7-1.1-1.1-2.1-1.9-3c0.1-2,2.2-3,4.1-3.8c2.5-1,4.4,2.2,5.5,3.8c1.2,1.8,2.7,3.6,4.7,4.2c0.3,0.1,0.5,0.1,0.8,0.1L127.9,156.9
			z M0.8,69.5l-0.1-0.1L0.8,69l0.1,0.3L0.8,69.5z M122.8,102.6c0.5-0.2,1-0.4,1.3-0.8c0,0.7,0,1.3,0.1,2
			C123.8,103.4,123.3,103,122.8,102.6z M122.9,110L122.9,110L122.9,110L122.9,110z M120,106.1c0-0.4-0.7-0.9-0.8-1.5
			c0-0.3,0-0.5,0.1-0.7l0.3-0.2c0,0,0.1,0.1,0.1,0.1c0.9-0.1,1.7-0.3,2.5,0.4c0.6,0.4,0.8,1.2,0.6,1.9
			C122.2,107,121,106.7,120,106.1L120,106.1z M122.4,127.9l-0.1-0.1v-0.1l0,0C122.4,127.8,122.4,127.8,122.4,127.9z M116.2,115.5
			c-1.1,0.8-1.4-0.5-1.3-1.6l0.2-0.4c0.2-0.4,2-1.7,2-1.1v0.1c0,0.1,0.1,0.2,0.2,0.2C117.4,113.7,117,114.8,116.2,115.5z M116,119.3
			c-0.6,0.1-0.7-0.3-0.6-0.8c0.6-0.5,1.5-1,1.7-0.5C117.2,118.5,116.5,119.2,116,119.3z M110,116.6c0-0.3,0.2-0.5,0.2-0.8l0.4-0.2
			c0.5-0.2,1.2-0.2,1.7-0.1c0.9,0.3,1.4,1.1,1.3,2c-0.2,0.8-1,1.4-1.8,1.3C110.4,118.9,110,117.7,110,116.6L110,116.6z M110.3,119.4
			L110.3,119.4L110.3,119.4z M108.1,85.3c-2.2-1.2-2.6-2.8-2.1-5.1c0.5-2.3,1.6-4.7,2-7.1c0.1-0.4,0.3-0.8,0.4-1.3
			c1.1-1.5,2.6-2.8,4.6-1.8c0.3,0.2,0.6,0.4,0.9,0.6c0.5,0.6,0.9,1.2,1.3,1.8c0.4,0.6,0.8,1.1,1.3,1.6c0.2,0.7,0.4,1.4,0.6,2.1
			c0.1,4.2-1,9.5-6.3,8.9C110.2,84.8,108.7,85.6,108.1,85.3z M109.7,88.9L109.7,88.9L109.7,88.9z M109.5,138.2c0,0.1,0,0.1,0,0.2
			l0,0C109.5,138.4,109.5,138.3,109.5,138.2L109.5,138.2L109.5,138.2z M109,87.9c-1-0.5-1-1-1.5-1.5l-0.4-0.7l0.4,0.1l0,0h-0.1h0.3
			c0.4,0,0.7,0.4,1.1,0.3c0.2,0,0.5,0.1,0.7,0.1C109.2,86.7,109,87.3,109,87.9L109,87.9z M109,133.9L109,133.9L109,133.9L109,133.9z
			 M104.9,148.4C104.9,148.4,105,148.3,104.9,148.4l0.1-0.1c0.4,0,0.9,0.2,1.2,0.5c0.1,0.1,0.1,0.1,0.2,0.2c0,0,0,0.1,0,0.1l0,0
			c-0.1,0.1-0.2,0.1-0.3,0.2c-0.3,0.2-0.7,0.1-1-0.1c-0.1-0.1-0.2-0.3-0.3-0.4C104.8,148.7,104.9,148.5,104.9,148.4L104.9,148.4z
			 M104.7,144.9C104.7,144.9,104.7,144.9,104.7,144.9c-0.1-0.3,0-0.4,0-0.6c0.4,0.1,0.7,0.3,1,0.5l0,0h-0.1
			C105.3,145,105,145,104.7,144.9L104.7,144.9z M105.9,137.4c0-0.1-0.1-0.3-0.1-0.4l0.3-0.2l0.1-0.1l0,0l0,0c-0.1,0,0,0,0,0
			c0.1,0,0.2,0.1,0.3,0.2c0.2,0.2,0.4,0.4,0.5,0.7c0.1,0.1,0.1,0.2,0.2,0.4c0,0.1,0,0.1,0.1,0.2v0.1c0,0,0,0.1,0,0.1
			c0,0,0,0.1,0,0.1l0,0c-0.3,0.1-0.5,0.1-0.8-0.1C106.1,138.2,105.9,137.8,105.9,137.4L105.9,137.4z M106.9,135.9L106.9,135.9
			l0.1,0.1L106.9,135.9z M107.1,144.7C107.1,144.7,107.1,144.7,107.1,144.7c-0.1,0.2-0.1,0.2-0.1,0.3L107.1,144.7L107.1,144.7z
			 M107,150l0.1,0.1l0,0L107,150L107,150z M107.5,154.4c0.4,0.1,0.8,0.4,1,0.8c0,0.1,0,0.1,0,0.1c-0.3,0.2-0.6,0.2-0.9,0.1
			c-0.3-0.1-0.5-0.4-0.7-0.7C107.1,154.5,107.3,154.3,107.5,154.4L107.5,154.4z M106,134.4c-0.7,0.2-1.4,0.3-2.1,0.1
			c-0.4-0.1-0.9-0.5-0.9-0.9c0.1,0,0-0.1,0-0.2c0,0,0,0,0,0c1-0.4,0.4-0.8,0.7-1.2c0.3-0.6,0.8-1.1,1.3-1.6c0.3-0.4,0.8-0.7,1.3-0.8
			c0.6,0,0.9,1.3,1.1,1.7c0.4,0.6,1.2,1.2,0.5,1.9C107.3,133.9,106.7,134.2,106,134.4L106,134.4z M101.4,127
			c-0.9,0.3-1.3-0.7-1.5-1.6c0.1-0.4,0.1-0.9,0.2-1.3c0.5-0.5,1-1,1.4-1.4c0.3-0.1,0.7-0.1,1,0c1.2,0.3,1,1.8,0.6,2.6
			C102.8,126,102.2,126.6,101.4,127L101.4,127z M102.9,129.8L102.9,129.8z M97.9,124.1c-0.1,0-0.3,0.1-0.4,0.1
			c-0.7-0.1-1.4-0.1-2-0.3c-0.1-0.1-0.3-0.1-0.4-0.2c-0.2-0.3-0.3-0.6-0.4-1c0-0.3,0-0.5,0-0.8c0.1-0.3,0.2-0.5,0.4-0.7
			c0.7-0.7,1.8-1.1,2.8-0.8l0.6,0.3c0.2,0.1,0.4,0.3,0.4,0.5c0,0.6,0,1.2,0,1.8C99,123.4,98.4,123.8,97.9,124.1L97.9,124.1z
			 M99.1,126.2L99.1,126.2z M94.3,132.8c-0.1-1,0-2,0.3-2.8c0.5-0.9,1.4-1.7,2.5-1.9c0.4,0.6,0.6,1.3,0.6,2c0,0.6-0.1,1-0.4,1.5
			c-0.6,0.5-1.3,1.2-2.1,1.2h-0.2l-0.2,0.2C94.7,132.8,94.5,132.8,94.3,132.8L94.3,132.8z M94.6,136.2v0.1V136.2L94.6,136.2z
			 M89.4,130.8c-0.6,0-0.4-0.8-1.4-1.4v-1.3c0-0.2,0.3-0.3,0.4-0.5l0.5-0.6c0.5-0.6,1.1-1,1.8-1.3c0.9-0.3,1.6,0.5,1.8,1.3
			c0.2,0.8,0.1,1.6-0.3,2.3C91.7,130.4,90.7,131.8,89.4,130.8L89.4,130.8z M89.5,133.1c-0.5,0.5-0.5,1-1.5,1.6c0-0.7,0-1.5,0-2.2
			L89.5,133.1z M84.6,137.7c-0.7,0.2-1.6-0.7-1.6-1.2l0,0c0-0.8,0-1.5,0-2.3c1-0.6,0.8-1.1,1.2-1.6c0.4-0.4,1-1.1,1.7-0.8
			c0.7,0.3,0.6,1.5,0.6,2.1C86.5,135.2,86,137.3,84.6,137.7z M85.1,138.7l-0.3,0.4l-0.3-0.3C84.7,138.8,84.9,138.8,85.1,138.7z
			 M78,144.2c-1-0.3-0.8-0.7-1-1.1c0-0.7-0.2-1.4-0.2-2c0.6-1.1,1.5-1.9,2.6-2.5c0.8-0.5,1.1-0.2,1.3,0.7c0.2,0.9,0.4,1.8,0.3,2.7
			C80.8,143.1,79,145.4,78,144.2L78,144.2z M80.4,148.3L80.4,148.3L80.4,148.3z M78.4,147c-0.5,0.4-1,0.9-1.5,1.3
			c0.1-0.6,0.1-1.2,0.1-1.7C77.4,146.8,77.9,146.9,78.4,147L78.4,147z M77,139.1c0-1.1,0-2.2,0-3.2l2.2,1.2l0,0.1
			C78.3,137.7,77,138.3,77,139.1L77,139.1z M80.7,136.3L80.7,136.3l0.5-0.5v0.8L80.7,136.3z M81,132.8c0,1.4-1,2.5-2.5,2.1
			c-1.5-0.4-2-2.2-2-3.9c0.7-1.7,2.2-3.5,3.7-2.1C81.3,129.7,81,131.5,81,132.8L81,132.8z M77,114.7c0-0.5,0-1,0-1.5
			c0-0.1,0.1-0.2,0.1-0.3c0.2-0.5,0.2-1.1,0.7-1.5c1.3-1,2.1,1.3,2.1,2.1c0.1,0.8-0.1,3-1.3,3C78,116.6,77,115.6,77,114.7z
			 M78.2,118.8L78.2,118.8L78.2,118.8L78.2,118.8z M77.6,118.4c-0.2,0.2-0.4,0.3-0.6,0.5l-0.2,0.1c0-0.4,0-0.7,0-1.1L77.6,118.4z
			 M76.9,116.5L76.9,116.5L76.9,116.5L76.9,116.5z M76.9,109.3l0.8,0.5c-0.3,0.3-0.5,0.6-0.7,0.9C77,110.2,77,109.8,76.9,109.3
			L76.9,109.3z M79.4,109.6l1.6-1.4c0,0.7,0,1.4,0,2.1c-1-0.2-1-0.4-1.5-0.7L79.4,109.6z M80.6,111.6L80.6,111.6L80.6,111.6
			C80.6,111.5,80.6,111.5,80.6,111.6L80.6,111.6z M79.4,117.7c0.4-0.2,0.8-0.5,1-0.9l0.5-0.5c0,0.8,0.1,1.7,0.1,2.5l-1.8-1
			L79.4,117.7z M80.7,102.8c-0.4-0.2-0.9-0.5-1.3-0.7l-0.1-0.1c0.7-0.1,1.3-0.4,1.8-1v0.1C80.9,101.7,80.8,102.2,80.7,102.8
			L80.7,102.8z M79.3,103.5c1.7,1.3,0.7,3.7-0.7,4.7c-0.7,0.5-1.3,0.1-1.7-0.7c0-1.2-0.1-2.3-0.2-3.5c0.4-0.4,0.9-0.7,1.4-0.7
			c0.2,0,0.3-0.1,0.4-0.2C78.9,103.2,79.1,103.3,79.3,103.5L79.3,103.5z M76.9,120.3c0.2-0.2,0.3-0.3,0.5-0.4c1.1-0.4,2.3,0,3.1,0.8
			c1.1,1.2,0.4,3.3-0.8,4.1c-0.9,0.5-2,0.4-2.7-0.3l0,0c0-0.2-0.1-0.5-0.2-0.7C76.8,122.7,76.8,121.5,76.9,120.3z M79.4,126.1
			l-0.2,0.2l-0.2-0.1C79.1,126.2,79.2,126.2,79.4,126.1L79.4,126.1z M78.3,127.1L78.3,127.1c-0.5,0.3-1.3,0.7-1.3,1.2
			c0-0.7,0-1.5,0-2.2c0,0.4,0.9,0.8,1.5,1.1L78.3,127.1z M79.5,126.6l1.5-1.5c0,0.8,0,1.6,0,2.4L79.5,126.6z M80.9,95.6
			c-1.7-0.8-3.6-1.3-3.6-3.6c0-1.7-0.2-3.3-0.6-4.9c-0.5-1.7-4.7-4.6-5.3-6.8l0,0c0.7-2.3,2.6,0.2,3.6,0.8c1,0.6,2,0.2,3.1,0.8
			c2.2,1.1,4.8,2.4,5.8,4.8c0.5,1.4,0.7,2.8,0.8,4.3C84.8,92.5,84.8,97.4,80.9,95.6z M77.8,95.4h-0.1v0L77.8,95.4z M75.8,96.6
			c0,0.1-0.1,0.1-0.1,0.2C75.7,96.8,75.7,96.7,75.8,96.6L75.8,96.6z M69.3,158.7c-0.2,0.1-0.5,0-0.7-0.2c0-0.3,0.2-0.7,0.4-0.9
			c0.2-0.1,0.6-0.1,0.8,0.1C70.2,158,69.6,158.6,69.3,158.7L69.3,158.7z M69.8,160.9L69.8,160.9z M68.1,154.9c0-0.3,0.2-0.6,0.5-0.7
			c0.1,0,0.2,0,0.3,0c0.1,0,0.2,0,0.3,0c0.3,0.1,0.1,0.4,0.1,0.6c-0.1,0.2-0.3,0.3-0.6,0.3L68.1,154.9z M68.4,158.9L68.4,158.9
			L68.4,158.9L68.4,158.9L68.4,158.9z M68.2,158.6L68.2,158.6L68.2,158.6L68.2,158.6C68.2,158.5,68.1,158.5,68.2,158.6L68.2,158.6z
			 M65.9,153.5L65.9,153.5l-0.2-0.1V152c0.3,0.1,0.6,0.3,0.8,0.6v0.2c-0.1,0.2-0.2,0.4-0.3,0.6C66.1,153.3,65.9,153.4,65.9,153.5
			L65.9,153.5z M66.2,170.9c0.1,0.1,0.2,0.2,0.2,0.3c0,0.3-0.2,0.6-0.4,0.8c-0.1,0.1-0.1,0.1-0.2,0.1v-1.3
			C65.9,170.7,66,170.8,66.2,170.9L66.2,170.9z M67,177c0.3,0.2-0.1,0.7-0.3,0.8c-0.2,0.1-0.5,0-0.8-0.3C66.2,177,66.6,176.6,67,177
			L67,177z M65.7,147.5c-0.2-0.3,0-1.3,0-1.3c-0.1-1.8-1.1-3.8-0.4-5.4c0.1-0.3,0.6-0.4,1-0.4c1.7-0.1,2.3,1.8,2.3,3.1
			c0.2,1.4-0.3,2.8-1.4,3.7C66.7,147.6,66,147.9,65.7,147.5z M64.4,117.9c-0.1-0.8-0.1-1.6-0.2-2.3c0.1-0.1,0.1-0.2,0.2-0.4
			c0,0.1,0.1,0.2,0.2,0.4C64.5,116.3,64.5,117.1,64.4,117.9z M64.5,151.4l-0.1,0.1l-0.1-0.1c0-0.2,0-0.5,0-0.7l0.1,0l0.1,0
			L64.5,151.4z M63.1,147.5c-0.3,0.4-1,0.1-1.6-0.4c-1-0.9-1.5-2.3-1.4-3.7c0.1-1.3,0.7-3.3,2.3-3.1c0.4,0,0.9,0.1,1,0.4
			c0.7,1.7-0.3,3.6-0.4,5.4C63.1,146.2,63.3,147.2,63.1,147.5L63.1,147.5z M62.7,153.3c-0.2-0.2-0.3-0.3-0.3-0.6v-0.2
			c0.2-0.3,0.5-0.5,0.8-0.6v1.4l-0.2,0.1l0,0C63,153.4,62.8,153.3,62.7,153.3L62.7,153.3z M62.9,177.4c-0.2,0.2-0.6,0.4-0.8,0.3
			s-0.5-0.6-0.3-0.8C62.2,176.6,62.7,177,62.9,177.4z M60.4,155.1c-0.2,0-0.5-0.1-0.6-0.3c-0.1-0.2-0.2-0.5,0.1-0.6
			c0.1,0,0.2,0,0.3,0c0.1,0,0.2,0,0.3,0c0.3,0.1,0.5,0.4,0.5,0.7L60.4,155.1z M60.8,158.5L60.8,158.5L60.8,158.5
			C60.8,158.5,60.8,158.5,60.8,158.5L60.8,158.5z M60.6,158.8L60.6,158.8L60.6,158.8L60.6,158.8L60.6,158.8z M59.1,157.7
			c0.2-0.2,0.5-0.2,0.8-0.1c0.3,0.2,0.4,0.5,0.4,0.9c-0.2,0.2-0.5,0.2-0.7,0.2C59.3,158.6,58.7,158,59.1,157.7L59.1,157.7z
			 M59.1,160.9L59.1,160.9z M52.2,87c-0.5,1.6-0.7,3.3-0.6,4.9c0,2.3-1.9,2.8-3.6,3.6c-3.9,1.8-3.9-3.1-3.8-4.7
			c0-1.5,0.3-2.9,0.8-4.3c1-2.4,3.6-3.7,5.8-4.8c1.1-0.6,2-0.1,3.1-0.8s2.9-3.1,3.6-0.8l0,0C56.9,82.4,52.7,85.3,52.2,87z
			 M53.2,96.6c0,0.1,0,0.1,0,0.2C53.2,96.8,53.1,96.7,53.2,96.6L53.2,96.6z M51.1,95.3H51H51.1C51.1,95.3,51.2,95.3,51.1,95.3
			L51.1,95.3z M51.2,144.8c-1.6,1-3-1.3-3.1-2.7c-0.1-0.9-0.1-1.9,0.1-2.8c0.2-0.9,0.5-1.2,1.3-0.7c1.1,0.6,2,1.4,2.6,2.5
			c0,0.7-0.1,1.7-0.1,2.3C51.9,143.8,51.6,143.8,51.2,144.8L51.2,144.8z M51.9,148.3c-0.5-0.4-1-0.9-1.5-1.3
			c0.5-0.1,0.9-0.2,1.4-0.4C51.8,147.1,51.9,147.7,51.9,148.3L51.9,148.3z M48.4,148.3L48.4,148.3L48.4,148.3L48.4,148.3z
			 M47.6,136.5c0-0.3,0-0.5,0-0.8l0.5,0.5l0,0L47.6,136.5z M49.9,137.1l-0.2-0.1l2.3-1.2c0,1.1,0,2.2,0,3.2
			C52,138.3,50.7,137.6,49.9,137.1L49.9,137.1z M50.2,134.8c-1.5,0.4-2.3-0.8-2.6-2.1c-0.2-1.2-0.2-3,0.7-3.9
			c1.5-1.4,3.1,0.4,3.8,2.1C52.3,132.6,51.9,134.4,50.2,134.8L50.2,134.8z M51.8,113l0.2,0.3c0,0.5,0,1,0,1.5c0,0.9-1.1,1.9-1.8,1.8
			c-1.2,0-1.5-2.2-1.4-3c0.1-0.9,0.9-3.1,2.2-2.1C51.6,111.8,51.6,112.4,51.8,113z M51.1,109.9l0.8-0.5c0,0.5,0,0.9,0,1.4
			C51.6,110.4,51.4,110.1,51.1,109.9L51.1,109.9z M51.9,118c0,0.4,0,0.7,0,1.1l-0.1-0.2c-0.2-0.2-0.4-0.3-0.6-0.5L51.9,118z
			 M51.9,116.5L51.9,116.5L51.9,116.5L51.9,116.5z M50.8,118.8L50.8,118.8L50.8,118.8L50.8,118.8z M48,110.8c0-1,0-1.9,0-2.6
			l1.5,1.6C49,110.1,48.5,109.8,48,110.8L48,110.8z M48.3,111.5L48.3,111.5L48.3,111.5L48.3,111.5z M48.4,116.8
			c0.2,0.4,0.6,0.7,1,0.9l0.2,0.2l-1.8,1c0-0.8,0.1-1.7,0.1-2.5L48.4,116.8z M48,127.6c0-0.8,0-1.6,0-2.4l1.5,1.5L48,127.6z
			 M49.5,126.2L49.5,126.2c0.1,0,0.3,0,0.4,0l-0.2,0.1L49.5,126.2z M50.7,127.3l-0.2-0.1c0.5-0.3,1.5-0.7,1.5-1.1c0,0.8,0,1.5,0,2.2
			c0-0.5-0.9-0.9-1.5-1.1L50.7,127.3z M52,124.6c-1,0.7-1.9,0.8-2.8,0.3c-1.3-0.8-2-3-0.8-4.1c0.8-0.9,2-1.2,3.1-0.8
			c0.2,0.1,0.4,0.2,0.5,0.4c0,1.2,0.1,2.4,0.2,3.6C52.1,124.2,52,124.4,52,124.6C52,124.6,52,124.6,52,124.6z M51.9,107.5
			c-0.4,0.8-1,1.2-1.7,0.7c-1.4-1-2.4-3.4-0.7-4.7c0.2-0.2,0.5-0.3,0.7-0.4c0.1,0.1,0.3,0.2,0.4,0.2c0.5,0.1,1.1,0.3,1.4,0.7
			C51.9,105.1,51.9,106.3,51.9,107.5z M49.5,102.1c-0.5,0.2-0.9,0.4-1.4,0.7c0-0.6-0.1-1.1-0.3-1.7V101c0.4,0.6,1.1,0.9,1.8,1
			L49.5,102.1z M44.3,137.8c-1.4,0-1.9-2.5-1.9-3.8c0-0.6-0.1-1.8,0.6-2.1c0.7-0.3,1.4,0.3,1.8,0.7c0.4,0.5,1.3,1,1.3,1.6
			c0,0.8,0,1.5,0,2.3v0.2C46,137.2,45,137.8,44.3,137.8L44.3,137.8z M44.3,138.7L44,139l-0.3-0.4C44,138.7,44.1,138.7,44.3,138.7
			L44.3,138.7z M39.6,130.9c-1.2,0.6-2.4-0.5-2.9-1.5c-0.4-0.7-0.6-1.6-0.4-2.4c0.2-0.8,0.9-1.6,1.8-1.3c0.7,0.3,1.3,0.7,1.7,1.3
			l0.7,0.6c0.1,0.2,0.5,0.3,0.5,0.5c0,0.4,0,0.9,0,1.3C40,130,40.1,130.6,39.6,130.9z M41,132.4c0,0.7,0,1.5,0,2.2
			c-1-0.5-1-1-1.5-1.6L41,132.4z M33.9,132.7l-0.2,0.1h-0.2c-0.8,0-1.5-0.8-2.1-1.3c-0.2-0.5-0.4-1-0.4-1.6c-0.1-0.7,0.1-1.4,0.6-2
			c1.1,0.2,2,0.8,2.5,1.8c0.3,0.8,0.4,1.6,0.3,2.4C34.3,132.3,34.1,132.5,33.9,132.7z M34.2,136.3v-0.1l0,0V136.3z M30,122.8
			c0-0.6,0-1.2,0-1.8c0-0.2,0.1-0.4,0.3-0.5l0.6-0.3c1-0.2,2,0.1,2.8,0.8c0.2,0.2,0.3,0.5,0.4,0.7c0,0.3,0,0.5,0,0.8
			c-0.1,0.3-0.2,0.7-0.4,1c-0.1,0.1-0.3,0.2-0.4,0.2c-0.7,0.1-1.4,0.2-2,0.3c-0.1,0-0.3-0.1-0.4-0.1c-0.5-0.2-0.8-0.6-1-1.2
			L30,122.8z M29.7,126.1L29.7,126.1z M25.6,125.2c-0.4-0.9-0.6-2.3,0.6-2.6c0.3-0.1,0.7-0.1,1,0c0.5,0.5,0.9,1,1.4,1.4
			c0,0.4,0.1,0.9,0.2,1.3c-0.1,0.9-0.5,2-1.5,1.6C26.6,126.6,26,126,25.6,125.2L25.6,125.2z M25.9,129.7L25.9,129.7z M21.9,154.7
			c-0.1,0.3-0.3,0.6-0.7,0.7c-0.3,0.1-0.6,0-0.9-0.1c-0.1,0-0.1-0.1,0-0.1c0.2-0.4,0.6-0.7,1-0.8C21.6,154.4,21.8,154.5,21.9,154.7z
			 M21.7,144.6L21.7,144.6l0.1,0.3C21.8,144.9,21.8,144.8,21.7,144.6C21.7,144.7,21.7,144.7,21.7,144.6z M21.8,150.1L21.8,150.1
			l0.1-0.1l0.1,0.1L21.8,150.1z M21.5,138.5L21.5,138.5L21.5,138.5c0-0.1,0-0.2,0-0.2v-0.1c0-0.1,0-0.1,0.1-0.2
			c0.2-0.4,0.4-0.8,0.7-1.1c0.1-0.1,0.2-0.1,0.3-0.2c0,0,0.1,0,0,0l0,0l0,0l0.1,0.1L23,137c0,0.1,0,0.3-0.1,0.4
			c-0.1,0.4-0.4,0.8-0.7,1.1C22,138.5,21.8,138.6,21.5,138.5L21.5,138.5z M21.8,135.9v-0.1h0.1L21.8,135.9z M22.4,149
			c0-0.1,0.1-0.2,0.2-0.2c0.3-0.3,0.7-0.5,1.2-0.5h0.1c0,0,0,0,0,0.1c0,0.1,0.1,0.3,0.1,0.4c-0.1,0.2-0.1,0.3-0.3,0.4
			C23.3,149.5,22.8,149.5,22.4,149L22.4,149C22.4,149.1,22.4,149.1,22.4,149L22.4,149z M23.2,144.8L23.2,144.8L23.2,144.8
			c0.2-0.2,0.6-0.4,0.9-0.5c0,0.2,0,0.3,0.1,0.5c0,0-0.1,0.1-0.1,0.1C23.8,145,23.5,145,23.2,144.8L23.2,144.8z M22.8,134.3
			c-0.7-0.2-1.3-0.5-1.9-0.9c-0.8-0.7,0.1-1.3,0.5-1.9c0.2-0.4,0.5-1.7,1.1-1.7c0.5,0.1,1,0.3,1.3,0.8c0.5,0.5,0.9,1,1.2,1.6
			c0.3,0.4,0.4,0.9,0.5,1.3c0,0.1,0.1,0.3,0.2,0.3c0,0,0,0,0,0c0,0-0.3,0.7-0.8,0.8C24.2,134.7,23.5,134.6,22.8,134.3L22.8,134.3z
			 M19.4,86.5c0.2,0,0.3-0.3,0.5-0.3c0.4,0.1,0.8-0.4,1.1-0.4h0.3h-0.1l0,0l0.5,0l-0.3,0.6c-0.4,0.5-0.9,1.1-1.3,1.6
			C20,87.4,19.8,86.9,19.4,86.5z M19.9,133.9L19.9,133.9L19.9,133.9z M17.9,84.9c-5.3,0.7-6.4-4.6-6.3-8.9c0.3-0.7,0.5-1.4,0.6-2.1
			c0.5-0.5,0.9-1,1.3-1.5c0.4-0.6,0.9-1.2,1.3-1.8c0.3-0.2,0.6-0.4,0.9-0.6c2-1,3.5,0.3,4.6,1.8c0.1,0.4,0.2,0.9,0.4,1.3
			c0.4,2.5,1.5,4.7,2,7.1c0.5,2.4,0.1,4-2.1,5.1C20.1,85.6,18.7,84.8,17.9,84.9z M19.4,138.4L19.4,138.4c0-0.1,0-0.1,0-0.2v-0.1v0.1
			C19.4,138.3,19.4,138.4,19.4,138.4L19.4,138.4z M19.2,88.9L19.2,88.9L19.2,88.9z M17,118.8c-0.9,0-1.6-0.5-1.8-1.3
			c-0.1-0.9,0.5-1.7,1.3-2c0.6-0.1,1.2-0.1,1.7,0.1l0.3,0.2c0,0.3,0.1,0.5,0.2,0.8C18.7,117.7,18.4,118.8,17,118.8L17,118.8z
			 M18.6,119.3L18.6,119.3L18.6,119.3z M12.7,115.4c-0.8-0.7-1.2-1.8-0.9-2.8c0.1-0.1,0.2-0.1,0.2-0.2v-0.1c0-0.5,1.6,0.8,1.9,1.1
			l0.2,0.4C14.1,115,13.8,116.2,12.7,115.4L12.7,115.4z M12.9,119.3c-0.6-0.1-1.2-0.6-1.1-1.3s1.1,0,1.7,0.5
			C13.6,118.9,13.5,119.4,12.9,119.3L12.9,119.3z M6.1,106.1c-0.3-0.7,0-1.5,0.5-1.9c0.7-0.7,1.5-0.5,2.5-0.4c0,0,0.1,0,0.1-0.1
			l0.3,0.2c0.1,0.2,0.1,0.5,0.1,0.7c-0.1,0.6-0.3,1.1-0.8,1.5C8.3,106.7,6.6,107,6.1,106.1z M6.5,127.8l-0.1,0.1
			C6.4,127.9,6.4,127.8,6.5,127.8L6.5,127.8L6.5,127.8z M9.9,103.1L9.9,103.1c-0.5-0.3-1.1-0.5-1.6-0.7l0.7-0.5l0.8-0.7
			C9.6,101.8,9.6,102.5,9.9,103.1z M9.9,107.2c0,0.3,0.1,0.7,0.2,1c-0.2-0.1-0.4-0.2-0.7-0.3l-0.1-0.1L9.9,107.2z M8.7,100
			c-0.4,0.5-1.2,1.4-2,1.3c-0.5-0.1-1-0.4-1.3-0.9c0-0.6,0.4-1.2,1-1.4c0.2-0.1,0.3-0.2,0.5-0.2c0.7,0.1,1.4,0.3,2.1,0.7
			C8.9,99.7,8.8,99.8,8.7,100L8.7,100z M6.8,110.4c0.2-0.1,0.4-0.2,0.5-0.4c0.9-0.6,2-0.6,2.9,0c-0.1,1.1-0.9,2-2,2.3
			C7,112.4,6,111.3,6.8,110.4z M10.9,120.8c0.1,0.3,0.1,0.6,0,0.9c-0.4,0.8-1.8-0.3-2.1-0.7c-0.2-0.2-0.5-0.6-0.3-0.9
			c0.2-0.2,0.4-0.4,0.7-0.4C9.9,119.8,10.5,120.1,10.9,120.8L10.9,120.8z M10.9,118L10.9,118L10.9,118z M14,97.8c0,1,0,0.8,0,0.9
			l-0.3-0.1c-0.4-0.3-0.9-0.4-1.4-0.3l-0.5-0.1c0.8-0.4,1.5-1.4,1.9-2.2c-0.2,0.7-0.1,1.7,0.1,1.7H14z M11.9,99.8
			c0.1,0,0.2-0.3,0.4-0.4l1.1,0.2l0.3,0.2c0.1,0.3,0.2,0.6,0.1,0.9c-0.1,0.6-0.4,1.2-0.8,1.7c-0.5,0.5-1.9,0.9-1.9-0.2
			C11,101.3,11.2,99.8,11.9,99.8L11.9,99.8z M13.9,102.9c0,0.9,0,1.8,0.1,2.7l-1.6-1l1-1.1C13.6,103.3,13.8,103.1,13.9,102.9z
			 M11.8,105.2l-0.1,0L11.8,105.2L11.8,105.2z M10,114.8L10,114.8z M8.3,115c0.4-0.2,0.9-0.2,1.2,0c0.1,0.1,0.1,0.3,0.2,0.4
			c0.1,0.3,0.1,0.6,0.1,0.9c-0.1,0.7-0.7,0.5-1.2,0.2C8.2,116.1,7.5,115.4,8.3,115z M8.5,124.9c0.4-0.4,1.1-0.4,1.5-0.1
			c0.2,0.1,0.4,0.3,0.6,0.5c0.2,0.1,0.4,0.1,0.6,0.2l0,0l0,0c0.1,0.4,0,0.8-0.3,1.1c-0.6,0.6-1.6,1.1-2.3,0.4
			C8.3,126.4,7.9,125.4,8.5,124.9z M11.2,106.8c0.1,0,0.7-1.1,1.4-1.1l0,0l1.2,1c0,0.4-0.1,0.9-0.2,1.3c-0.1,0.4-0.4,0.7-0.8,0.9
			C11.9,109.1,11.2,107.8,11.2,106.8L11.2,106.8z M14.2,110.2c0,0.4,0.1,0.9,0.1,1.3c-0.3-0.3-0.6-0.7-1-1
			C13.6,110.4,13.9,110.3,14.2,110.2L14.2,110.2z M13.9,122.2c0.2,0,0.4,0.1,0.6,0.2c0.2,0.4,0.4,0.9,0.1,1c-0.3,0.1-0.7,0-0.9-0.2
			l-0.1-0.9C13.6,122.2,13.7,122.2,13.9,122.2L13.9,122.2z M16,91.8c0,0.7-1.1,1.4-1.8,2.2c0-0.1,0.1-0.2,0-0.3
			c0.2-0.8,0.2-1.7,0.3-2.5C15.1,91.3,16,91.5,16,91.8L16,91.8z M14.9,90.3L14.9,90.3z M15.4,105.4c-0.5-1.1-0.3-3.5,0.7-4.3
			c0.2-0.2,0.5-0.3,0.8-0.3h0.2c0.7,0,1.8,0.2,1.8,0.7c0,0.4,0,0.8,0,1.3v0.1c0,0.4-0.3,0.7-0.5,1.1c-0.2,0.3-0.5,0.6-0.8,0.9
			c-0.2,0.3-0.4,0.4-0.5,0.6C16.6,106,15.8,106.3,15.4,105.4z M18.2,109.2c0.2,0.2,0.4,0.5,0.5,0.8c0,0.2-0.1,0.3-0.2,0.5
			c-0.7,0.7-1.4,1.4-2,2c-0.2,0.1-0.5,0.1-0.7,0c-0.1-0.1-0.1-0.1-0.2-0.2c0-0.5-0.1-1-0.1-1.5c0.1-0.6,0.4-1.1,0.8-1.7
			c0.2-0.2,0.5-0.3,0.8-0.3h0.1C17.5,108.8,17.9,109,18.2,109.2z M15,100.2c0-0.1,0-0.2,0-0.4h0.3L15,100.2z M19,99.5
			c0-0.1-0.7-0.3-0.9-0.5c-0.1-0.1-0.2-0.2-0.3-0.3c0.3-0.3,0.6-0.6,0.9-1l0.3-0.2C18.9,98.3,19,98.9,19,99.5L19,99.5z M18,96.4
			c0,0.1,0,0.3-0.1,0.4c-0.5,0.5-0.9,1.1-1.4,1.7c-0.5,0.2-1.2,0.3-1.5-0.2c0-0.1-0.1-0.2-0.1-0.2c0-0.5-0.1-1-0.1-1.6
			c0.1-0.6,0.3-1.2,0.7-1.7c0.6-1,1.9-1.4,3-1c0,0.1-0.1,0.1-0.1,0.2C18.5,94.7,19,95.6,18,96.4L18,96.4z M15,121.9L15,121.9
			L15,121.9L15,121.9L15,121.9z M17,90.3C17,90.3,17.1,90.3,17,90.3c-0.2,0-0.4,0.1-0.6,0.1c-0.5,0-0.8-0.4-1-0.8c0,0,0-0.1,0-0.1
			c0-1.6,1-2.2,2.2-3.1c0.4,0,0.7,0.1,1,0.3c0.3,0.6,0.5,1.2,0.6,1.8c-0.1,0.2-0.3,0.5-0.4,0.8L17.9,90C17.7,90.2,18,90.3,17,90.3
			L17,90.3z M15.5,90.5L15.5,90.5z M15.9,125.8c0.5,0.5,1,1.1,1.4,1.7c0,0.2-0.2,0.4-0.4,0.4c-0.4,0.1-0.8,0-1.2-0.1
			c-0.5-0.1-1.8-0.5-1.8-1.2c0.2-0.7,0.9-1.1,1.6-1C15.7,125.7,15.8,125.8,15.9,125.8z M16.8,121.8c-0.2-0.4-0.1-0.8,0.2-1.1
			c0.1,0,0.2,0,0.3,0.1l0.1,0.1l0,0c0.3,0.1,1,1,0.6,1.3C17.6,122.5,16.9,122.2,16.8,121.8L16.8,121.8z M17.5,120L17.5,120z
			 M18.5,114.9c-0.5-0.3-1-0.6-1.4-0.9c0.6-0.4,1.1-0.8,1.6-1.4l0,0C18.6,113.4,18.6,114.1,18.5,114.9L18.5,114.9z M17.4,107.6
			c0.5-0.6,1.6-1.2,1.6-1.8c0,0.9,0,1.8,0,2.7C19,108.2,18,107.9,17.4,107.6L17.4,107.6z M19,92l-0.7-0.3l0.8-0.8
			C19.1,91.3,19.1,91.6,19,92L19,92z M20.3,43.8c0.7,0,1.4,0.3,2,0.8c1.1,2.4,2.7,4.5,4.8,6.2c0.7,1.7,1,3.7,0.1,5.1
			c-0.4,0.6-0.7,1.2-1.2,1.8c-1.2,0.8-2.3,1.8-3.3,3c-1.8,1-3.8,1.5-5.7,0.3c-0.8-0.6-1.6-1.2-2.3-1.9c-0.7-0.8-1.3-1.6-1.8-2.6
			c-1.3-2.6-0.1-4.5,0.6-6.9c2-1.3,3.5-3,4.4-5.2C18.5,43.7,19.4,43.8,20.3,43.8L20.3,43.8z M19.9,38c0.6-0.1,1.1,0.4,1.6,0.8
			c-0.1,0.3-0.2,0.5-0.3,0.7c-0.4,0.5-1.1,0.8-1.6,0.2C19,39.2,19.2,38.1,19.9,38z M34.6,18.7c-0.9,0.9-2.3,1.2-3.5,0.7
			C30.1,19,29.5,18,29.5,17c0.1-0.8,0.7-1.2,0.9-2.2H34c1.1,1,1.4,2.5,0.7,3.6C34.7,18.4,34.6,18.7,34.6,18.7z M35,13.9L35,13.9z
			 M35,15.2L35,15.2l0.2,0.2l0,0L35,15.2z M34.6,26.2C34.5,26.2,34.5,26.2,34.6,26.2c0,0,0-0.1,0-0.1C34.6,26.1,34.6,26.2,34.6,26.2
			C34.6,26.2,34.6,26.2,34.6,26.2z M32.3,23.3c0.5,0.3,0.9,0.8,1,1.4c0.1,0.6-0.1,1.3-0.5,1.7c-0.9,0.7-2.2-0.2-2.3-1.1
			C30.3,24.4,31.1,22.8,32.3,23.3z M30.4,23C30.4,22.9,30.4,22.9,30.4,23l0.2-0.1L30.4,23z M32,29.1c1-0.2,2.8,0.7,4,2.1
			c-0.1,0-0.2,0.1-0.2,0.1c0,0,0,0,0,0c0.7,1.3,1.5,2.4,2.6,3.5c1,2.3,2,4.8,1.3,7.2c-0.9,2.5-2.2,4.7-4,6.7
			c-2.2,1.8-4.7,2.7-7.3,0.9c-1.7-1.3-3.1-2.8-4.2-4.6C23.4,43.4,23,41.7,23,40c0.3-1.4,0.9-2.8,1.5-4.1C26.7,33.8,29,29.5,32,29.1
			L32,29.1z M43.1,44.8c0.6,0.6,1.1,1.3,1.6,1.9c2.3,3.8,6.2,7.5,4.7,12c-1.5,4.2-4.9,4.9-8.9,4.4c-1-0.1-2-0.5-2.8-1.1
			c-0.7-1.5-1.8-2.8-3-3.8c-0.6-1.1-0.7-2.5-0.4-3.7c0.4-1.6,1.4-3.1,1.9-4.7c1.6-1.4,2.9-3.1,3.8-5.1c0.7-0.9,1.9-1,2.8-0.3
			C42.9,44.6,43,44.7,43.1,44.8z M41.6,37.7L41.6,37.7L41.6,37.7z M41.7,40.2c0.1-0.7,0.4-1.3,1-1.6c0.5-0.3,0.7-0.1,1.1,0.1
			c0,0.2,0,0.3,0,0.5c-0.1,0.5-0.2,0.9-0.6,1.2C42.7,40.9,41.7,40.8,41.7,40.2L41.7,40.2z M42.9,43.2L42.9,43.2z M44.3,37.9
			L44.3,37.9L44.3,37.9z M44.6,45.1L44.6,45.1L44.6,45.1L44.6,45.1z M44.9,36.2L44.9,36.2L44.9,36.2z M53,20.8
			c-1.3-0.7-1.8-2.2-1.3-3.5c0.6-1.4,2.3-1.8,3.8-1.6c1.4,0.7,2,2.4,1.3,3.9c0,0,0,0.1-0.1,0.1C56,21.1,54.4,21.5,53,20.8L53,20.8z
			 M53.9,25.9c-0.1,0.4-0.5,0.8-0.9,1c-0.4,0.1-0.8,0-1.1-0.2c-0.1-0.1-0.2-0.2-0.1-0.4c0.1-0.9,1.4-2.4,2.2-1.4
			C54,25.3,54,25.6,53.9,25.9z M51.6,29.3L51.6,29.3z M54.7,31.7c1.9,2.1,2.8,4.9,5,6.7c1.3,2.2,2.3,4.8,0.7,7.1
			c-0.9,1-1.8,2-2.8,2.9c-1.7-0.1-3.5-1.8-5.4-1.3c-0.8,0.3-1.6,0.7-2.3,1.2l-0.4,0.3c-0.3,0-0.7,0-1,0c-1.4-1.5-2.8-3-3.2-5.1
			c-0.4-2.8,0.7-5.3,1.2-7.9C48.7,32.7,51.5,28.3,54.7,31.7z M58.5,35.6L58.5,35.6z M65,42.2c0,0.1-0.2,0.2-0.4,0.2
			c-0.2,0-0.3,0-0.5,0c-0.2,0-0.3-0.1-0.5-0.2c-0.4-0.4-0.6-0.9-0.6-1.5C63,39.8,63,38.8,64,38.5c0.1,0,0.3-0.1,0.4-0.1
			c0.1,0,0.3,0.1,0.4,0.1c1,0.3,0.9,1.3,0.8,2.2C65.7,41.3,66,41.8,65,42.2L65,42.2z M65.7,48.4c0,0.5-0.1,1-0.3,1.5
			c0,0.5-0.4,1-1,1c-0.6,0-1-0.4-1-1c-0.1-0.5-0.2-1-0.3-1.5c0-0.9,0.4-1.7,0.9-2.5c0.1-0.1,0.2-0.1,0.4-0.1c0.1,0,0.2,0.1,0.4,0.1
			C65.3,46.7,65.6,47.6,65.7,48.4z M63.5,56.3c0.2-0.4,0.5-0.6,0.9-0.7c0.4,0.1,0.7,0.4,0.9,0.7c0.4,0.8,0.7,1.7,0.6,2.6
			c0,0.8-0.1,1.6-0.4,2.4c-0.1,0.2-0.2,0.4-0.3,0.6l0,0c-0.3,0.1-0.6,0.2-0.9,0.4c-0.3-0.1-0.6-0.3-0.9-0.4l0,0
			c-0.1-0.2-0.2-0.4-0.3-0.6c-0.3-0.8-0.4-1.6-0.4-2.4C62.9,58,63.1,57.1,63.5,56.3L63.5,56.3z M74.2,31.7c3.2-3.5,6,1,8.2,3.8
			c0.5,2.6,1.6,5.1,1.2,7.9c-0.3,2.1-1.7,3.6-3.2,5.1c-0.3,0-0.7,0-1,0L79,48.3c-0.7-0.5-1.5-0.9-2.3-1.2c-1.9-0.5-3.7,1.1-5.4,1.3
			c-1-0.9-1.9-1.9-2.8-2.9c-1.6-2.2-0.6-4.9,0.7-7.1C71.4,36.6,72.3,33.8,74.2,31.7z M70.3,35.6L70.3,35.6z M75.8,20.8
			c-1.3,0.7-3,0.3-3.8-1.1c-0.8-1.4-0.2-3.1,1.2-3.9c0,0,0.1,0,0.1-0.1c1.5-0.3,3.2,0.2,3.8,1.6C77.7,18.7,77.1,20.2,75.8,20.8
			L75.8,20.8z M77.3,29.3L77.3,29.3z M77,26.7c-0.3,0.2-0.7,0.3-1.1,0.2c-0.4-0.2-0.8-0.5-0.9-1c-0.1-0.3-0.1-0.7,0-1
			c0.8-1,2.1,0.5,2.2,1.4C77.2,26.6,77.1,26.6,77,26.7L77,26.7z M84.1,46.7c0.5-0.6,1-1.3,1.6-1.9c0.7-0.9,1.9-1,2.8-0.3
			c0.1,0.1,0.2,0.2,0.3,0.3c0.9,1.9,2.2,3.6,3.8,5.1c0.5,1.6,1.5,3,1.9,4.7c0.3,1.3,0.1,2.6-0.4,3.7c-1.2,1.1-2.3,2.4-3,3.8
			c-0.8,0.6-1.7,1-2.7,1.1c-4,0.5-7.4-0.2-8.9-4.4C77.9,54.2,81.8,50.6,84.1,46.7z M83.9,36.1L83.9,36.1L83.9,36.1z M84.1,45.1
			L84.1,45.1L84.1,45.1L84.1,45.1z M84.5,37.9L84.5,37.9L84.5,37.9z M85.6,40.8c-0.3,0-0.5-0.9-0.6-1.4c0-0.2,0-0.4,0-0.6
			c0.4-0.2,0.6-0.4,1.1-0.1c0.6,0.4,0.9,1.1,1,1.7C87.2,41,86.1,40.8,85.6,40.8L85.6,40.8z M85.9,43.1L85.9,43.1L85.9,43.1z
			 M87.2,37.7L87.2,37.7L87.2,37.7z M93,31.8c1.2-2,2.6-2.6,4.2-2.4c2.8,0.4,5.1,4.5,7.3,6.6c0.7,1.3,1.1,2.6,1.4,4
			c0,1.7-0.4,3.4-1.2,4.9c-1.1,1.8-2.5,3.3-4.2,4.6c-2.6,1.8-5.1,0.9-7.3-0.9c-1.8-1.9-3.1-4.2-4-6.7c-0.7-2.4,0.3-4.9,1.3-7.2
			c1-1,1.9-1.9,2.6-3.2C93.1,31.6,93.1,31.8,93,31.8L93,31.8z M94.8,14.8h3.5c0.2,1,0.9,1.4,0.9,2.2c0,1-0.6,2-1.5,2.4
			c-1.2,0.5-2.6,0.3-3.5-0.6c-0.9-1.1-0.7-2.8,0.3-3.6C94.7,15,94.7,14.8,94.8,14.8z M93.6,15.4L93.6,15.4l0.2-0.2l0,0L93.6,15.4z
			 M93.9,13.9L93.9,13.9z M98.3,22.9h0.2c0,0,0,0.1,0,0.1L98.3,22.9z M98.4,25.3c-0.1,1-1.5,1.8-2.3,1.1c-0.4-0.5-0.6-1.1-0.5-1.7
			c0.1-0.6,0.5-1.1,1-1.4C97.8,22.8,98.6,24.3,98.4,25.3z M94.3,26c0,0,0,0.1,0.1,0.1c0,0-0.1,0-0.1,0l0,0
			C94.3,26.1,94.3,26.1,94.3,26L94.3,26z M108.5,43.8c0.9,0,1.7-0.1,2.3,0.5c0.9,2.2,2.4,4,4.4,5.3c0.7,2.4,1.8,4.2,0.6,6.9
			c-0.5,0.9-1.1,1.8-1.8,2.5c-0.7,0.7-1.5,1.3-2.3,1.8c-1.9,1.2-3.9,0.7-5.7-0.3c-0.9-1.1-2.1-2.1-3.3-3c-0.4-0.6-0.8-1.2-1.2-1.8
			c-0.9-1.5-0.5-3.5,0.1-5.2c2.1-1.7,3.8-3.6,4.8-6.1C107.2,44.2,107.8,43.8,108.5,43.8L108.5,43.8z M107.3,38.8
			c0.4-0.4,1-0.9,1.6-0.8c0.7,0.1,0.8,1.3,0.4,1.8c-0.4,0.5-1.2,0.3-1.6-0.2C107.5,39.4,107.4,39.1,107.3,38.8L107.3,38.8z
			 M109.5,64.8c0.1,0,0.2,0,0.3-0.2c0-0.1,0.2,0,0.2-0.1v0c0,0,0-0.3,0-0.3c0.1,0.1,0.1-0.4-0.1-0.4h-0.1l0,0c0,0,0,0,0.1,0
			c-0.1,0,0.1,0,0.2,0c-0.1,0,0.1,0,0.2,0c0.7,0,1.2,1.1,1.5,1.8c0,0.2,0,0.5-0.2,0.6c-0.4,0.3-1,0.2-1.5,0
			C109.8,65.9,109.5,65.8,109.5,64.8L109.5,64.8z M110.1,68.9L110,69L110.1,68.9L110.1,68.9z M111.9,67.8L111.9,67.8L111.9,67.8z
			 M109.1,67L109.1,67v-0.1V67z M108.9,69.8L108.9,69.8L108.9,69.8z M108.6,64.5c0,0,0,0.1,0,0.1V64.5L108.6,64.5z M107.4,62.2
			L107.4,62.2l-0.2-0.1l0,0l-0.1-0.1L107.4,62.2z M99,52.8c0,0-0.1,0.6-0.1,0.7c-0.1,0.1-0.3,0.5-0.5,0.6c-0.4,0.1-0.8,0.4-1.1,0.1
			c-0.2-0.3-0.3-0.6-0.3-0.9c0-0.1,0-0.2,0-0.3c0.1-0.1,0.2-0.2,0.3-0.3c0.2-0.1,0.4-0.1,0.7,0c0.3,0.1,0.6,0.3,0.8,0.6
			c0.2,0.2,0.3-0.1,0.3,0.1C99,53.3,99,53.8,99,52.8L99,52.8z M96.1,56.9L96,57v-0.1L96.1,56.9z M94.5,51.1L94.5,51.1L94.3,51
			L94.5,51.1z M91.1,67.2L91.1,67.2L91.1,67.2z M90.6,66.4c0,0.1,0,0.2-0.1,0.2c-0.2,0.1-0.5,0-0.6,0c-0.3-0.1-0.8-0.2-0.6-0.6
			c0.1-0.1,0.1-0.2,0.2-0.2c0.2-0.1,0.3-0.1,0.4-0.2c0.1,0,0.2,0,0.3,0.1C90.4,65.8,90.6,66.1,90.6,66.4L90.6,66.4z M85.6,66.5
			c-0.1,0.1-0.3,0.2-0.4,0.3c-0.4,0.2-0.8,0.3-1.2,0.3c-0.2,0-0.5-0.2-0.5-0.4c0,0,0-0.1,0-0.1c0.2-0.1,0.4-0.2,0.6-0.3
			c0.2-0.1,0.5-0.2,0.8-0.2c0.2,0,0.4,0.1,0.6,0.2C85.5,66.4,85.5,66.5,85.6,66.5L85.6,66.5z M81.5,65.6c-0.3-0.3-0.4-0.7-0.4-1.1
			h0.1c0.5,0.1,0.9,0.3,1.2,0.7c0.1,0.1,0.1,0.1,0.1,0.2c0,0,0,0.1,0.1,0.1c0,0,0,0.1,0,0.1l0,0c0,0-0.1,0.1,0,0.1l-0.2,0.1
			C82.1,65.9,81.8,66,81.5,65.6L81.5,65.6z M82.1,67.3C82.1,67.3,82.1,67.3,82.1,67.3L82.1,67.3L82.1,67.3
			C82,67.3,82,67.3,82.1,67.3L82.1,67.3z M81.9,66.7c0,0-0.1,0.1-0.1,0.1C81.8,66.8,81.8,66.8,81.9,66.7L81.9,66.7z M81,64.5
			L81,64.5z M77.1,77.8c-1.3-0.2-1.2-2.3-0.6-3.5c0.4-0.4,1-0.6,1.6-0.5c0.7,0.1,0.9,1,0.9,1.6C79.1,76.6,78.5,78.1,77.1,77.8z
			 M77.6,80.2L77.6,80.2z M74,64.4c0-0.3-0.3-0.5-0.5-0.9c-0.4-1.4-1-3-0.4-4.3c0.3-0.8,1.2-1.3,2-1.1c0.9,0.3,1.7,1,2.1,1.9
			c0.1,0.8,0.2,1.6,0.1,2.3c-0.1,0.7-0.3,1.5-0.7,2.1c-0.7,0.6-1.8,0.6-2.5,0C74.1,64.5,74,64.4,74,64.4L74,64.4z M75.5,67.5
			l-0.1-0.3h0.1C75.5,67.3,75.5,67.5,75.5,67.5z M74.8,78.8l-0.1-0.1l-0.1-0.1h0.1C74.7,78.7,74.8,78.8,74.8,78.8L74.8,78.8z
			 M74,89.4c0.1,1.7,0,3.4-0.4,5c-0.2,1.4-0.1,2.8,0.1,4.2c0.1,0.8,1.4,7.2-0.8,5.5c-0.8-0.5-1.7-0.8-2.7-0.9
			c-2.2-0.5-3.3-3.4-4.1-5.3C66,97.7,66,97.5,66,97.2v-1.8c0-0.1,0-0.1,0-0.2V92c1-2.1,2.1-4,4.1-5.1C72,86.4,73.7,86.9,74,89.4
			L74,89.4z M71.9,85c0,0,0-0.1,0-0.1V85L71.9,85z M72.2,114.3l0.5,0.5l-0.1,0.1c-0.2,0-0.3,0.1-0.5,0.2
			C72.1,114.8,72.1,114.5,72.2,114.3L72.2,114.3z M72.9,124.6c2.1,0.3,2.3,3.5,1.6,4.9c-0.3,0.7-0.9,1.2-1.5,1.6
			c-0.4,0.3-0.8,0.3-1.2,0c-0.1-0.2-0.3-0.4-0.4-0.6s0-0.2,0-0.2c0.1-1.4,0.2-2.8,0.2-4.3C71.9,125.2,72.2,124.5,72.9,124.6z
			 M72.6,123.4l0.1-0.1l0.2,0.1C72.8,123.4,72.7,123.4,72.6,123.4L72.6,123.4z M72,132.9l-0.5,0.4c-0.1,0.1-0.2,0.2-0.3,0.2
			c0-0.4,0-0.8,0.1-1.2h0.1L72,132.9z M71.8,123.4c0-0.3,0-0.5,0-0.8l0.5,0.3L71.8,123.4z M70.4,108.7c-0.7,0.4-1.6,0.2-2-0.4
			c-0.3-0.6-0.5-1.4-0.3-2.1c0.1-0.1,0.3-0.1,0.4-0.1c0.9,0,1.7,0.3,2.3,0.9C71.6,107.8,71.1,108.3,70.4,108.7z M66.2,124.8
			c-0.5,0-0.2-1.2-0.2-2.1v-0.2c0-1.4,1.1-3.1,2.6-1.9c1.1,0.9,1.5,2.1,1.3,3.4C69.6,125.5,67.2,126.8,66.2,124.8L66.2,124.8z
			 M67.3,127.1l-0.1,0.1l-0.1-0.1L67.3,127.1z M64.4,110c-2.2-0.7-1.1-4.2-0.9-6c0.1-1,0.1-3.5,0.9-4.7c0.8,1.2,0.8,3.7,0.9,4.7
			C65.5,105.8,66.6,109.3,64.4,110z M64.7,113.3l-0.3,0.5l-0.3-0.5c0.1,0,0.2-0.1,0.3-0.1l0,0C64.5,113.2,64.6,113.2,64.7,113.3
			L64.7,113.3z M59,124.1c0-1.4,0.7-2.7,1.8-3.6c1.5-1.2,2.2,0.5,3.2,1.9v0.2c0,0.9-0.6,1.7-1.1,2.4C61.9,126.5,59,125.7,59,124.1
			L59,124.1z M61.9,127l-0.1,0.1l-0.1-0.1L61.9,127z M58.7,102.8c-0.9,1-1.9,0.7-2.7,1.2c-2.2,1.7-0.9-4.6-0.8-5.4
			c0.2-1.4,0.3-2.8,0.1-4.2c-0.3-1.6-0.5-3.3-0.4-5c0.3-2.6,2.1-3.1,3.9-2.6c2,1.2,3.2,3,4.2,5.2v3.3c0,0,0,0.1,0,0.2v1.8
			c0,0.2-0.1,0.2-0.2,0.5C62,99.7,60.8,102.8,58.7,102.8L58.7,102.8z M60.5,107.8c-0.4,1-1.3,1.1-2,0.7c-0.8-0.4-1.2-0.9-0.5-1.5
			c0.6-0.6,1.5-0.8,2.4-0.9c0.2,0,0.3-0.2,0.4-0.1C61,106.7,60.9,107.8,60.5,107.8L60.5,107.8z M57,131.1c-0.4,0.3-0.8,0.3-1.2,0
			c-0.7-0.4-1.2-0.9-1.5-1.6c-0.7-1.4-0.4-4.6,1.6-4.9c0.7-0.1,1.3,0.6,1.5,1.4c0,1.4-0.5,2.8,0.5,4.3c0,0.1,0,0.1,0,0.2
			s-0.6,0.4-0.7,0.7L57,131.1z M57.5,132.4L57.5,132.4c0.1,0.4,0.1,0.8,0.2,1.2c-0.1-0.1-0.2-0.2-0.3-0.2l-0.5-0.4L57.5,132.4z
			 M55.9,123.4l0.2-0.1l0.1,0.1C56.1,123.4,56,123.4,55.9,123.4z M56.5,122.9l0.5-0.3c0,0.3,0,0.5,0,0.8L56.5,122.9z M56.7,115.1
			c-0.1-0.1-0.3-0.2-0.5-0.2l-0.1-0.1l0.5-0.5C56.7,114.5,56.7,114.8,56.7,115.1L56.7,115.1z M56.9,85l0-0.2
			C56.9,84.9,56.9,84.9,56.9,85L56.9,85z M52.2,64.5c-0.4-0.6-0.6-1.3-0.7-2.1c-0.1-0.8,0-1.6,0.1-2.3c0.4-0.9,1.2-1.6,2.1-1.9
			c0.8-0.2,1.7,0.2,2,1.1c0.6,1.4,0,3-0.4,4.3c-0.2,0.3-0.4,0.6-0.6,0.9c-0.6,0.7-1.7,0.8-2.4,0.1C52.3,64.6,52.2,64.5,52.2,64.5z
			 M54.2,78.7l-0.1,0.1L54,78.9C54.1,78.8,54.1,78.7,54.2,78.7L54.2,78.7z M53.4,67.3l-0.1,0.3c0-0.1,0-0.2,0-0.2L53.4,67.3z
			 M49.8,75.5c0-0.6,0.2-1.5,0.9-1.6c0.6-0.1,1.2,0.1,1.6,0.5c0.5,1.1,0.7,3.2-0.6,3.5S49.7,76.6,49.8,75.5z M51.2,80.2L51.2,80.2z
			 M48.2,65.8c0.3-1,1-0.8,1.6-0.5c0.4,0.2,0.8,0.7,0.9,1.1c0.3,1.2,0.2,2.6-0.4,3.8c-0.9,1.5-2.2-1.6-2.3-2.4
			C47.9,67.2,47.9,65.8,48.2,65.8L48.2,65.8z M47.9,63.6L47.9,63.6l0.1,0L47.9,63.6z M50.1,61.5v-0.1C50.1,61.5,50.1,61.5,50.1,61.5
			L50.1,61.5z M52.5,55.2c-1.3-0.8-2.4-2.7-1.5-4.2c0.3-0.5,0.8-1,1.4-1.2c1.1,0.2,2.2,0.7,3,1.5l0.1,0.6
			C55.5,53.6,54.4,56.5,52.5,55.2L52.5,55.2z M54.9,55.6l-0.1,0.2c0,0,0-0.1,0-0.1L54.9,55.6z M54.5,68.9c0.2-0.6,0.7-1.3,1.2-0.5
			c0.6,1.1,1,2.3,1.2,3.5c0,0.1,0.1,0.1,0.1,0.1c0,0.5-0.2,0.9-0.4,1.3c-1.1,2.1-2.2-1.2-2.3-2.1C54.3,70.4,54.3,69.6,54.5,68.9
			L54.5,68.9z M56.8,59.3L56.8,59.3L56.8,59.3z M57.6,51.8c0.4-1,1.4-0.8,2.2-0.4c0.1,0.1,0.2,0.3,0.3,0.4c0.4,1.2,0.4,2.5,0,3.7
			c-0.2,0.8-1.9,4.1-3,2C56.4,55.7,56.6,53.8,57.6,51.8L57.6,51.8z M59.2,81L59.2,81c0.1,0,0.1,0,0.2,0h0h0.1l0,0l0,0
			c0,0.2,0.1,0.4,0.1,0.6c0,0.1-0.1,0.3-0.2,0.4c-0.2,0.2-0.6,0.2-0.8,0c-0.3-0.2-0.2-0.4,0-0.6C58.7,81.1,58.9,81,59.2,81L59.2,81z
			 M58.9,70.6L58.9,70.6z M59,82.7L59,82.7z M58.5,80.4c0,0,0-0.1,0-0.1v-0.1V80.4L58.5,80.4z M57.9,79.4L57.9,79.4c0,0,0,0.1,0,0.1
			V79.4z M60.3,84.1L60.3,84.1c0,0.1,0,0,0-0.1c0-0.1,0.1-0.1,0.1-0.2c0.2-0.3,0.5-0.6,0.9-0.7c0,0,0.1,0,0.1,0l0.2,0.3
			c0,0.2,0,0.4-0.2,0.6c-0.3,0.3-0.6,0.4-1,0.3h-0.2L60.3,84.1z M60.3,84.1L60.3,84.1z M61.9,87.7L61.9,87.7L61.9,87.7L61.9,87.7z
			 M61.6,111.9c0.4,0.2,0.8,0.4,1.1,0.8c0,0,0.1,0,0.1,0.1c0.3,1,0,2.2-0.7,3c-1,1-2.9,1.5-3.3-0.4c-0.3-1.2,0.1-2.4,1.1-3.1
			C60.4,112,61,111.8,61.6,111.9z M63,117.4c0,0.5,0,1,0.1,1.5c0,0.1,0,0.1,0,0.2l-1.1-0.7C62.4,118.1,62.7,117.8,63,117.4L63,117.4
			z M61.2,117.5l-0.3,0.3l-0.2-0.1C60.9,117.6,61,117.6,61.2,117.5L61.2,117.5z M64,126.5c0,0.7-0.1,1.4-0.1,2.2
			c-0.4-0.3-0.7-0.5-1-0.8C63.3,127.5,64,127,64,126.5L64,126.5z M64.4,69.8c-0.1-0.4-0.2-0.9-0.3-1.4c-0.2-0.9-0.1-1.8,0.2-2.6
			l0.1-0.1l0.1,0.1c0.3,0.8,0.4,1.7,0.2,2.6C64.7,68.9,64.6,69.3,64.4,69.8L64.4,69.8z M64.7,85.9c0,0.5-0.1,0.9-0.3,1.3
			c-0.2-0.4-0.3-0.9-0.3-1.4c0-0.5,0.1-1,0.3-1.5C64.6,84.9,64.7,85.4,64.7,85.9L64.7,85.9z M65.8,117.4c0.3,0.4,0.6,0.7,1,1.1
			l-1.1,0.7c0-0.1,0-0.1,0-0.2C65.8,118.4,65.8,117.9,65.8,117.4L65.8,117.4z M65,126.5c1,0.5,0.7,0.9,1.1,1.4
			c-0.4,0.3-0.8,0.5-1.1,0.8C65,128,65,127.3,65,126.5L65,126.5z M67.6,117.5c0.2,0.1,0.3,0.1,0.5,0.1l-0.2,0.1L67.6,117.5z
			 M67,115.7c-1-0.8-1.1-1.9-0.8-3c0,0,0,0,0.1-0.1c0.3-0.3,0.6-0.6,1-0.8c0.6-0.1,1.2,0,1.7,0.3c1,0.7,1.6,1.9,1.3,3.1
			C69.8,117.2,68,116.7,67,115.7L67,115.7z M66.9,87.8L66.9,87.8L66.9,87.8L66.9,87.8z M68.5,84.1h-0.2c-0.4,0.1-0.7,0-1-0.3
			c-0.1-0.2-0.2-0.4-0.2-0.6l0.2-0.3c0,0,0.1,0,0.1,0c0.4,0.1,0.7,0.4,0.9,0.7c0,0.1,0.1,0.1,0.1,0.2c0,0.1,0,0.2,0,0.1l0,0
			L68.5,84.1z M68.6,84.1L68.6,84.1z M69.5,81L69.5,81L69.5,81L69.5,81c0.1,0,0.1,0,0.2,0l0,0c0.3,0.1,0.5,0.2,0.7,0.4
			c0.2,0.2,0.3,0.4,0,0.6c-0.2,0.2-0.6,0.2-0.8,0c-0.1-0.1-0.2-0.2-0.2-0.4C69.3,81.4,69.4,81.2,69.5,81L69.5,81L69.5,81z M70,70.6
			L70,70.6z M70.2,80.3v-0.1V80.3C70.2,80.3,70.2,80.4,70.2,80.3L70.2,80.3z M69.9,82.7L69.9,82.7z M71,79.5c0,0,0-0.1,0-0.1l0,0
			V79.5z M68.6,55.5c-0.4-1.2-0.4-2.5,0-3.7c0.7-0.6,1.7-0.5,2.3,0.1c0.1,0.1,0.2,0.2,0.2,0.3c1,1.6,1.2,3.7,0.4,5.4
			C70.6,59.9,68.9,56.4,68.6,55.5z M72.1,59.3L72.1,59.3L72.1,59.3z M72,71.8c0.1-2,0.5-2.4,1.2-3.5c0.5-0.8,1-0.1,1.2,0.5
			c0.2,0.8,0.2,1.6,0.1,2.3c-0.1,0.9-1.2,4.2-2.3,2.1c-0.2-0.4-0.3-0.9-0.4-1.3C71.9,72,72,71.8,72,71.8L72,71.8z M73.4,50.8
			l0.1-0.1c0.8-0.8,1.9-1,3-1.2c0.6,0.3,1.1,0.8,1.4,1.4c0.9,1.5-0.3,2.9-1.5,3.7C74.4,55.9,73.4,52.8,73.4,50.8L73.4,50.8z
			 M74.1,55.7C74.1,55.8,74.1,55.8,74.1,55.7L74,55.6L74.1,55.7z M78.5,70.2c-0.6-1.2-0.7-2.5-0.4-3.8c0.2-0.4,0.5-0.8,0.9-1
			c0.6-0.2,1.3,0.3,1.6,0.7c0.3,0.6,0.4,1.2,0.2,1.8C80.7,68.9,79.5,71.7,78.5,70.2z M78.7,61.5v0.1l0,0
			C78.7,61.6,78.7,61.5,78.7,61.5z M80.8,63.6L80.8,63.6l0.1,0L80.8,63.6z M68.2,59.3l-0.1,0.1C68.2,59.4,68.2,59.3,68.2,59.3
			L68.2,59.3z M67.7,64.4c0.1-0.6,0.4-1.9,1.2-1.7c1.6,0.4,1.3,3.2,1,4.2c-0.1,0.5-0.6,1.3-1.2,1.4c-0.6,0-0.9-0.9-1-1.2
			c-0.2-0.5-0.3-0.9-0.3-1.4C67.5,65.3,67.7,64.8,67.7,64.4z M69.1,71.4L69.1,71.4z M68,73.5c1,1.5,1.1,3.2,0.7,4.8
			c-0.5,1.9-2.1,1.5-2.7-0.1c-0.1-0.2,0-0.4,0-0.8V73c0-0.1-0.2-0.2-0.2-0.3C66.5,71.4,68,72.8,68,73.5L68,73.5z M63,72.7
			c0,0.1,0,0.2,0,0.3v4.3c0,0.3-0.1,0.6-0.2,0.8c-0.6,1.6-2.4,2-2.9,0.1c-0.4-1.6-0.2-3.3,0.6-4.8C60.9,72.8,62,71.4,63,72.7
			L63,72.7z M59.8,71.4L59.8,71.4L59.8,71.4z M61,67.1c0,0.4-0.5,1.2-1,1.2c-0.5,0-1-0.9-1.1-1.4c-0.3-1.1-0.6-3.9,1-4.2
			c0.8-0.2,1.1,1.1,1.2,1.7c0.1,0.4,0.2,0.8,0.3,1.3C61.3,66.2,61,66.7,61,67.1L61,67.1z M60.6,59.3L60.6,59.3
			c0.1,0.1,0.1,0.1,0.1,0.2L60.6,59.3z M47.8,64.5L47.8,64.5z M46.4,65.7l-0.2-0.1c0,0,0,0,0-0.1l0,0c0,0,0-0.1,0-0.1
			c0,0,0.1-0.1,0.1-0.1c0-0.1,0.1-0.1,0.1-0.2c0.3-0.3,0.7-0.5,1.2-0.7h0.1c0,0.4-0.1,0.8-0.4,1.1C47.1,66,46.8,65.9,46.4,65.7
			L46.4,65.7z M47.1,66.7c0,0,0,0.1,0,0.2C47.1,66.8,47.1,66.8,47.1,66.7L47.1,66.7z M46.9,67.3l-0.1,0.1l0,0
			C46.8,67.4,46.8,67.4,46.9,67.3C46.8,67.3,46.9,67.3,46.9,67.3z M45.5,66.6C45.5,66.7,45.5,66.7,45.5,66.6
			c-0.1,0.3-0.3,0.5-0.5,0.5c-0.4,0-0.8-0.1-1.2-0.3c-0.1-0.1-0.3-0.2-0.4-0.3c0,0,0-0.1,0.2-0.2c0.2-0.1,0.4-0.2,0.6-0.2
			c0.3,0,0.6,0,0.8,0.2C45.1,66.4,45.3,66.5,45.5,66.6L45.5,66.6z M39,66.6c-0.2,0-0.5,0.1-0.6,0c-0.1,0-0.1-0.1-0.1-0.2
			c0-0.3,0.1-0.6,0.4-0.9c0.1-0.1,0.2-0.1,0.3-0.1c0.2,0.1,0.3,0.1,0.5,0.2c0.1,0.1,0.1,0.2,0.2,0.2C39.8,66.4,39.4,66.5,39,66.6
			L39,66.6z M37.8,67.2L37.8,67.2L37.8,67.2z M34.4,51.1l0.2-0.1L34.4,51.1L34.4,51.1z M32.8,57l-0.1-0.1L32.8,57L32.8,57z
			 M29.8,53.8c0-0.2,0.1-0.5,0.3-0.6c0.2-0.3,0.5-0.5,0.8-0.6c0.3-0.1,0.5-0.1,0.7,0c0.1,0.1,0.2,0.2,0.3,0.3c0,0.1,0,0.2,0,0.3
			c0,0.4-0.1,0.7-0.3,1c-0.3,0.3-0.7,0.2-1.1,0c-0.2-0.1-0.4-0.2-0.5-0.3C29.9,53.9,29.9,53.9,29.8,53.8
			C29.9,53.9,29.8,53.8,29.8,53.8L29.8,53.8z M21.7,62.1l-0.1,0.1l0,0l-0.2,0.1l0,0L21.7,62.1z M20.4,64.5l-0.1,0.2
			C20.3,64.6,20.3,64.6,20.4,64.5L20.4,64.5z M20,69.9L20,69.9z M19.8,66.9V67l0,0V66.9z M18.6,66.5c-0.5,0.2-1,0.1-1.5-0.2
			c-0.1-0.1-0.2-0.2-0.2-0.4c0.2-0.7,0.8-1.6,1.5-1.8c0,0,0.3-0.3,0.2-0.3c0,0,0.3,0,0.2,0c0.1,0,0.1,0,0.1,0l0,0H19
			c0,0,0,0.8,0,0.7c0,0,0-0.1,0-0.1v0c0,0.1,0.1,0.3,0.1,0.5c0.1,0.2,0.1,0.3,0.2,0.5C19.2,65.8,19,66.2,18.6,66.5z M18.9,68.9
			l-0.1-0.1l0.1-0.1C18.8,68.8,18.8,68.9,18.9,68.9L18.9,68.9z M17,68.5L17,68.5L17,68.5L17,68.5z M24,127.4c-1-0.3-2.1-1.4-1.7-2.3
			c0-0.2,0.1-0.9,0.4-0.6c0.1,0.1,0.2,0.2,0.3,0.3c0.2,0.2,0.4,0.3,0.5,0.5c0.1,0.2,0.4,0.5,0.5,0.7C24.2,126.4,25,127.8,24,127.4
			L24,127.4z M24,129.7L24,129.7z M23,110.8L23,110.8c0-0.4-1-0.7-1.6-1.1c0.5-0.5,1-0.9,1.6-1.3C23,109.2,23,110,23,110.8L23,110.8
			z M22,107c0,0.3-0.5,0.4-1,0.5c-0.5,0.2-0.6-0.7-0.7-1.1c-0.2-1,0.1-2.1,0.6-3c0.4-0.5,1.1-0.7,1.7-0.4c0.4,0.3,0.8,0.7,0.9,1.2
			c-0.1,0.5-0.3,1-0.4,1.5C22.9,106.3,23,106.7,22,107L22,107z M24,97.7c0,0.8-0.6,1.4-1.2,1.9c-1.1,0.7-2,0.5-2.3-0.8
			c-0.2-1,0-2.1,0.6-3c0.4-0.6,1.1-0.8,1.8-0.5l0.9,0.5C23.9,96.4,24,97.1,24,97.7L24,97.7z M24,100.6c-0.1,0.6-0.1,1.2-0.2,1.8
			c-0.2-0.1-0.5-0.3-0.7-0.4l-0.5-0.2C23,101.4,23.5,101,24,100.6L24,100.6z M23.7,116.1c0.1,0.7,0.2,1.3,0.2,1.9
			c-0.5-0.4-1.1-0.8-1.7-1.1C22.7,116.7,23.2,116.4,23.7,116.1L23.7,116.1z M23.7,118.8L23.7,118.8c1.4,2.3-2.2,4.4-2.8,1.6
			c-0.3-1,0.2-2.1,1.1-2.6C22.6,118.1,23.1,118.5,23.7,118.8L23.7,118.8z M24.1,124.9L24.1,124.9v0.2C24.2,125,24.1,125,24.1,124.9
			L24.1,124.9z M22.7,93.9c0.4-0.4,0.8-0.8,1.2-1.3c0.1,0.8,0.2,1.5,0.3,2.2C23.6,94.5,23.2,94.2,22.7,93.9z M23,91.6
			c0,0.6-1.1,1.3-1.8,1c-0.7-0.4-1-1.2-0.7-2c0.3-1.1,1.3-3.3,2.6-2.2C23.5,89.4,24,90.6,23,91.6L23,91.6z M23.3,87.1L22.9,87h-0.1
			c0.2-0.1,0.3-0.4,0.1-0.5h-0.1l0.5-0.6C23.3,86.3,23.3,86.7,23.3,87.1z M20,93.6L20,93.6l0.9,0.5l-0.7,0.6L20,95
			C20,94.5,20,94.1,20,93.6z M20.7,101.6l-0.5,0.5c0-0.3,0-0.5,0-0.8L20.7,101.6z M21,111.3c0.7-0.1,1.6,0.9,2.3,1.6
			c0,0.2,0,0.5,0.1,0.7c-0.3,0.7-0.8,1.2-1.4,1.7c-1,0.6-1.6,0.3-1.7-0.9C20.3,113.8,20.3,111.5,21,111.3L21,111.3z M25.9,82.1
			c-0.4,0.2-0.7,0.4-1,0.6c0-0.3,0-0.6,0.1-0.9c0.1,0,0.3-0.1,0.4-0.2L25.9,82.1z M26.5,77.8h0.2l0,0h0.2c0.4,0,0.8,0.2,1.2,0.4
			c0.1,0,0.1,0.1,0.2,0.2c0.4,1-0.5,2.4-1.9,1.6C25.6,79.4,25.4,77.8,26.5,77.8L26.5,77.8z M25.5,83.8c0.6-1,1.3-0.5,1.9-0.4
			c0.6,0.4,1.2,0.9,1.7,1.4c0.4,1,0.2,2-0.5,2.9c-0.1,0.1-0.2,0.1-0.2,0.2L28,88c-0.9,0.4-2,0.1-2.6-0.7c-0.2-0.3-0.5-0.6-0.5-1
			c0-0.6,0-1.2,0-1.8C25,84.1,25.3,83.8,25.5,83.8L25.5,83.8z M26.4,115.8c0.1,0,0.3,0,0.4,0l1.1,0.9l-0.1,0l0.2,0.5
			c0,0.5,0,1.1,0,1.6l0.1,0.1l-1.1,0.7c-0.9,0.1-1.4-0.7-1.6-1.5c0-0.6,0-1,0-1.6C25.5,116,25.8,115.8,26.4,115.8L26.4,115.8z
			 M26.1,113.2c0.2,0,0.4,0,0.5,0l-0.3,0.2L26.1,113.2z M27.2,114.1l1.3-0.6c0,0.6,0,1.1,0,1.7L27.2,114.1z M28.4,121.2
			c0,0.3,0,0.6,0.1,0.9l-0.7-0.7L28.4,121.2z M27.9,111.2c-0.5,0.7-1.4,0.9-2.1,0.4c-0.4-0.2-0.6-0.6-0.6-1c-0.2-1.1,0-2.3,0.7-3.2
			c1-1.3,2.2,0,2.7,1.1c0,0.3,0,0.5,0,0.8C28.5,109.9,28.3,110.6,27.9,111.2L27.9,111.2z M28.8,94.3c-0.3,0.8-0.8,1.6-1.7,1.6
			c-1.8,0-2.1-2.9-1.4-4.1c0.2-0.4,0.6-0.8,1-1c0.2,0,0.6,0,0.8,0.1c0.6,0.3,1.5,0.8,1.5,1.4c0,0.3,0,0.5,0,0.8s0,0.7,0,1.1
			L28.8,94.3z M28.9,97.1c0,0.5,0,1.1,0.1,1.7l-1.2-1C28.2,97.6,28.5,97.3,28.9,97.1z M26,97.5l-0.4,0.3c0-0.2,0-0.4,0-0.6L26,97.5z
			 M25.1,90.2c0-0.5-0.1-1-0.1-1.4l0.9,0.7C25.6,89.8,25.3,90,25.1,90.2z M24.9,87.7C24.9,87.7,24.9,87.7,24.9,87.7
			c0-0.1,0.1,0,0.2,0.1L24.9,87.7z M25,104.6l0.7,0.6c-0.3,0.1-0.5,0.2-0.8,0.4C24.9,105.2,25,104.9,25,104.6L25,104.6z M28.1,105.8
			l0.9-0.4c0,0.4,0,0.8-0.1,1.2L28.1,105.8z M28,103.6c-1,0.8-2.3-0.2-2.3-1.5c0-0.9,0-2.3,0.8-3c0.8-0.6,1.5,0.1,2.5,0.9
			c0,0.7,0,1.4,0,2C29,102.7,29,103.3,28,103.6L28,103.6z M29,90.6c-0.3-0.3-0.6-0.5-1-0.7l-0.4-0.4c0.6-0.3,1.1-0.6,1.7-0.9
			C29.2,89.4,29.1,90.1,29,90.6L29,90.6z M27,129.4c0-0.2,0.4-0.3,0.6-0.3c0.4,0.1,0.8,0.4,1.1,0.7c0.2,0.3,0.3,0.7,0.5,1
			c0.2,0.3,0.3,0.7,0.4,1.1c0,0.5-0.2,0.5-0.7,0.4c-0.9-0.3-1.6-0.9-1.9-1.8C26.8,130.3,27,129.7,27,129.4L27,129.4z M29.4,84.9
			l0.1,0.1c0,0.1,0,0.2,0,0.2C29.5,85.1,29.5,85,29.4,84.9L29.4,84.9z M26,76.4c-3.1-0.6-4.3-4.9-5.2-8.2c0-0.9,0.1-1.7,0.3-2.6
			c0.2-0.9,0.6-1.7,0.9-2.5c2-2,4.3-4.9,7-5.5c1.1-0.3,2.3-0.1,3.3,0.5c0.7,1.1,1.2,2.3,1.8,3.4c1.4,3,0.7,4.8-1,7.2
			C31.4,71.1,29.6,76.3,26,76.4z M35.8,119c0.1-0.9,0.5-2.5,1.7-2.5c0.7,0.1,1.4,0.6,1.8,1.2c0.7,0.8,1.1,1.9,1,3l-0.1,0.1
			c-0.7,1.1-2.2,1.5-3.3,0.9C36,121.1,35.6,120.1,35.8,119L35.8,119z M36.5,123.3l-0.6,0.1c0-0.3,0-0.5,0-0.8L36.5,123.3z
			 M35.8,115.2c0-0.1,0-0.3,0-0.4l0.3,0.3L35.8,115.2z M35.6,96c-0.7-0.4-1.3-0.8-2-1.2c0.7-0.3,1.5-0.7,2.2-1
			C35.8,94.5,35.7,95.2,35.6,96z M33.1,111.3l0.9-0.4l0.5-0.2c0,0.3-0.1,0.6-0.1,1s-0.1,0.5-0.1,0.8
			C33.8,112.1,33.4,111.7,33.1,111.3z M34,119.6c-0.3-0.2-0.6-0.4-0.9-0.6l0.9-0.5C33.9,118.9,33.9,119.2,34,119.6z M33.9,114.1
			c0,0.8-0.3,1.6-0.8,2.2c-0.2,0.2-0.3,0.3-0.5,0.5L32,117c-0.6,0.2-1.3-0.1-1.5-0.7c-0.6-1-0.8-2.8,0.3-3.6
			C32,111.7,33.2,112.8,33.9,114.1z M30,111.5c0.1-0.7,0.1-1.3,0.2-2c0.4,0.4,0.8,0.9,1.2,1.3L30,111.5z M31,101.1l0.2,0.4
			c0.4,0.5,0.7,0.8,1.2,1.1l-1.6,0.7C30.9,102.6,31,101.9,31,101.1L31,101.1z M30.5,94.8c0-0.5,0-0.9,0.1-1.4l1,0.8L30.5,94.8z
			 M32.1,100.8c-0.8-1-1.4-2.8-0.8-4c0.2-0.6,0.9-0.8,1.4-0.7c1,0.3,1.8,1,2.2,1.9c0.1,0.5,0.2,0.9,0.3,1.2c0.1,0.3,0,0.9,0,1.3
			c-0.3,0.9-1.3,1.4-2.2,1.1C32.7,101.4,32.4,100.8,32.1,100.8L32.1,100.8z M31.6,92.5c-0.8-1.2-0.9-2.7-0.2-4
			c0.4-0.6,1.2-0.8,1.8-0.5c0.8,0.6,1.5,1.2,2.3,1.8C36.6,91.9,33.2,94.4,31.6,92.5L31.6,92.5z M30.9,86.8c0,0,0-0.1,0-0.1
			s0-0.4,0-0.5l0.6,0.5L30.9,86.8z M29.9,118.1l-0.2,0.1v-0.3L29.9,118.1z M31.7,126.8L31.7,126.8L31.7,126.8L31.7,126.8z
			 M30.3,136.7c1-1.3,2.5-0.9,2.8,0.7c0.1,1.2,0.2,2.4,0.2,3.6c-0.1,0.3-0.4,0.6-0.8,0.5c-0.7-0.2-1.3-0.6-1.6-1.2
			C30.2,139.3,29.5,137.9,30.3,136.7z M32.1,126l-0.4-0.4c0.9,0.1,1.8,0.1,2.7,0c0.1,1,0.1,2,0.2,3C33.7,127.7,32.9,126.9,32.1,126z
			 M34.3,108.6c-0.5,0.8-1.5,1-2.3,0.6c-0.3-0.2-0.6-0.5-0.7-0.8c-0.4-1.1-0.3-2.3,0.2-3.4c0.4-0.7,1.3-1,2-0.6c0,0,0.1,0,0.1,0.1
			C34.5,105.7,35.3,107.2,34.3,108.6L34.3,108.6z M34.5,103.4l0.7-0.2c0,0.3,0,0.5,0,0.8L34.5,103.4z M35,142.6
			c0.3-0.1,0.7,0,0.9,0.2c0.1,0.1,0.1,0.1,0.1,0.2l-0.1,0.3l-0.7,0.2l0,0C34.8,143.3,34.7,142.7,35,142.6z M35.5,132L35.5,132
			L35.5,132c0-0.3,0-0.7,0-1c0-0.2,0.1-0.3,0.1-0.5l0.3,0.2c0.3,0.5,0.7,0.9,1.2,1.2l0.1,0.1c0,0.1-0.1,0.1-0.1,0.2
			c-0.4,0.1-0.8,0.1-1.2,0C35.7,132.1,35.6,132,35.5,132L35.5,132z M39.1,124.6L39.1,124.6l0-0.2c0.6-0.2,1-0.5,2-0.8
			c0,0.8,0,1.6,0,2.4C40,125.5,39.8,125,39.1,124.6z M40.4,116.8c-0.5,0-1-0.9-1.6-1.3c0.5-0.2,1-0.4,1.5-0.6l0.7-0.2
			c0,0.2,0,0.4,0,0.7c0,0.7,0,1.4,0,2.1C41,117.4,40.5,117.8,40.4,116.8L40.4,116.8z M39.3,113c-0.9,0.6-2.2,1.1-2.6-0.2
			c-0.3-1.1-0.1-2.3,0.7-3.1c0.5-0.6,1.3-0.8,2-0.7c0.1,0,0.3,0.1,0.4,0.2c0.3,0.4,0.6,0.8,0.8,1.2C41.2,111.5,40.3,112.4,39.3,113z
			 M36.3,108.4l0.1-0.7c0.1-0.6,0.1-1.2,0.1-1.8c0.7,0.5,1.3,1,2,1.5L36.3,108.4z M40.3,108l-0.2-0.2l1.5-0.7
			c-0.1,0.6-0.1,1.2-0.2,1.8C41.1,108.6,40.7,108.3,40.3,108L40.3,108z M40.6,105.9c-1.6,0.7-4.3-1.2-3-2.9c0.8-1,2.1-1.5,3.3-1.2
			c0.3,0.4,0.5,0.9,0.5,1.5C41.4,103.9,41.4,105.6,40.6,105.9L40.6,105.9z M37,100.7c0,0,0-0.1,0-0.1c0-0.5,0-0.9,0-1.4
			c0-0.5,0-1,0-1.4l0.8,0.6c0.3,0.2,0.5,0.5,0.9,0.6l0.3,0.2c0.1,0.1,0.4,0.2,0.5,0.3L37,100.7z M36.8,90.9c0.4,0.3,0.8,0.5,1.1,0.8
			L37,92C36.9,91.7,36.9,91.3,36.8,90.9L36.8,90.9z M37.9,88.9c-0.1-0.1-0.3-0.3-0.3-0.5c0.1-0.6,0.4-1.1,0.9-1.4
			c0.4-0.2,0.8-0.2,1.3-0.3c0.7-0.1,1.4,0.4,1.6,1.1c0,0.2-0.1,0.4-0.1,0.6c-0.2,0.6-0.6,1-1.2,1.3C39.3,89.9,38.4,89.6,37.9,88.9
			L37.9,88.9z M38.8,83.6c-1.2,0.3-2.3,0.8-3.3,1.4L35.3,85c-0.3,0.1-0.6,0.2-0.9,0.3l0,0c-4,1-2.9-5.6-2.5-7c0.5-2,1.5-3.8,2.8-5.4
			c1.5-1.5,3.5-3.7,5.8-4.1c2-0.1,3.9,0.6,5.3,1.9c1.5,3.4,0.7,8.8-2.1,11.4C42,83.9,41,83.2,38.8,83.6L38.8,83.6z M43.3,111.7
			l0.3,0.4l-1.3,0.5c0-0.6,0.1-1.2,0.1-1.7C42.7,111.2,43,111.5,43.3,111.7L43.3,111.7z M42.5,109.8
			C42.5,109.8,42.5,109.8,42.5,109.8L42.5,109.8L42.5,109.8z M42.7,106.8v-0.2l0.1-0.1C42.8,106.7,42.7,106.8,42.7,106.8L42.7,106.8
			z M42.8,105.4c0-0.7,0.1-1.4,0.1-2.1c0.3,0.4,0.6,0.8,1,1.1l0.3,0.3L42.8,105.4z M43.3,98.1c0-0.7,0-1.3,0-2l1.4,1.5L43.3,98.1z
			 M43.8,86L43.8,86z M42,120l1.1,1l-1.1,0.5C42,121,42,120.5,42,120L42,120z M42.3,124.6c0.2-0.7,0.4-1.7,1.3-1.8
			c0.8-0.1,1.6,0.7,1.9,1.4c0.6,1.4,0.5,3-0.1,4.3c-0.7,0.3-1.5,0.3-2.1-0.1C42.1,127.7,42,125.9,42.3,124.6L42.3,124.6z
			 M44.9,121.8l1.3-0.6c0,0.5,0,1-0.1,1.5l0,0C45.8,122.3,45.4,122,44.9,121.8z M45.9,129.8c0,0.9-0.1,1.9-0.1,2.8
			c-0.3-0.5-0.8-0.9-1.2-1.3l-0.5-0.6C44.7,130.5,45.3,130.2,45.9,129.8z M43.3,129.8L43.3,129.8l-0.2-0.1L43.3,129.8L43.3,129.8z
			 M42.5,130.2l-0.2,0.1c0-0.1,0-0.2,0-0.4L42.5,130.2z M46,139.4c0.1,0.9,0.2,1.9,0.3,2.8c-0.5-0.7-1.1-1.5-1.6-2.2
			C45.1,139.8,45.6,139.6,46,139.4L46,139.4z M44.6,119.5c-1.2-0.2-2.1-1.3-1.9-2.5c0-0.1,0.1-0.3,0.1-0.4c0.2-0.9,0.9-2.4,2.1-2.5
			s1.5,0.9,1.7,1.9c-0.1,0.8-0.1,1.7-0.2,2.5C45.9,119.1,45.3,119.4,44.6,119.5L44.6,119.5z M45.8,113.2l-0.3-0.4l1.4-0.6
			c0,0.6,0,1.1-0.1,1.7C46.5,113.6,46.2,113.3,45.8,113.2L45.8,113.2z M46.7,109.2c-0.2,0.6-0.5,1-1,1.4c-1.2,0.8-2.1-0.6-2.1-1.7
			s0.5-2.9,2.1-2.4c0.6,0.3,1.3,0.8,1.3,1.4c0,0.2,0,0.4,0,0.5C47,108.7,46.8,109,46.7,109.2L46.7,109.2z M45.8,105.1l1.1-0.6
			c0,0.5,0,1,0,1.4c-0.2-0.2-0.5-0.3-0.7-0.5L45.8,105.1z M45.9,103.3c-0.9,0.8-2.1-0.9-2.1-1.8c0.1-1,0.7-1.8,1.6-2.1
			c0.6-0.1,1.2,0.2,1.5,0.7C47,101.3,46.6,102.4,45.9,103.3L45.9,103.3z M55.1,108.3c0.2,0.2,0.3,0.4,0.5,0.6s0.3,0.6,0.5,0.9l0,0
			c0,0.2-0.1,0.5-0.1,0.6c0,0.5-0.1,0.9-0.2,1.4c-0.2,0.8-0.5,1.6-1.4,0.9c-1-0.9-1.3-2.2-1-3.4C53.6,108.7,54.3,107.9,55.1,108.3
			L55.1,108.3z M56.9,117.2c0,0.8,0.1,1.6,0.1,2.3c0,0.3-0.1,0.6-0.1,0.9c-0.2,0.3-0.4,0.6-0.7,0.7c-0.8,0.4-1.5-0.3-1.9-1
			c-0.6-1.2-0.4-2.6,0.4-3.6C55.5,115.4,56.5,116.1,56.9,117.2z M54.7,122.8c0.1,0,0.2-0.2,0.4-0.1l0.3,0.1
			c-0.6,0.4-1.1,0.8-1.7,1.2c0-0.8,0-1.5-0.1-2.3C53.8,122,54.2,121.8,54.7,122.8L54.7,122.8z M53.7,130.8l0.2,0.2l0.6,0.6l0.1,0.1
			l0.9,0.8c-0.6,0.4-1.2,0.7-1.8,1.1C53.6,132.6,53.6,131.8,53.7,130.8L53.7,130.8z M54.8,134.8c1.2-1.1,2.1,0.1,2.9,1.3
			c0,1.4,0.1,2.8,0.2,4.2c-0.2,0.4-0.5,0.6-0.9,0.8c-1.6,0.7-2.8-1-3-2.4C53.8,137.5,53.8,135.7,54.8,134.8L54.8,134.8z M58.1,142.6
			c0.1,0.5,0.2,1.2,0.3,2c-0.4-0.4-0.9-0.7-1.5-0.9l-0.2-0.2C57.1,143.2,57.5,142.9,58.1,142.6L58.1,142.6z M57.8,111.9
			c-0.1-0.5-0.3-1.1-0.5-1.6c0.2,0.1,0.4,0.2,0.6,0.3c1,0.4,2,0,3,0.2l0.1,0.1c-0.5,0-1.1,0.1-1.5,0.3
			C59,111.3,58.4,111.5,57.8,111.9L57.8,111.9z M60.4,118.4c-0.6,0.6-1.2,1.1-1.8,1.6c0-0.9,0-1.9-0.1-2.8
			C59.1,117.6,59.7,117.9,60.4,118.4L60.4,118.4z M60.2,126.8c0.4,0.3,0.6,0.6,1,0.9c-0.7,0.6-1.3,1.3-2,1.9
			c-0.1-0.7-0.2-1.4-0.2-2.2c0-0.1,0-0.2,0-0.3c0-0.5,0-1,0-1.4C59,126.2,59.7,126.6,60.2,126.8z M61,138.2l0.3,0.1l-1.9,1.4
			c0-1-0.1-2-0.2-3C59.6,137.4,61,137.9,61,138.2L61,138.2z M60,149.8h0.3c0.1,1,0.2,0.7,0.2,1.1c0,0.4,0,0.2-0.2,0.5
			c0,0.1-0.1,0.1-0.2,0.2l0,0c0-0.7-0.2-1.4-0.2-2.1V149.8z M63.3,139l0.2-0.2c0,0.1,0,0.2,0,0.3S63.4,139,63.3,139L63.3,139z
			 M63,136.5c0,0.6-1.1,0.5-1.6,0.1c-0.8-0.5-1.3-1.3-1.5-2.2c-0.4-1-0.3-2.1,0.1-3.1c0.3-0.6,0.8-1.1,1.4-1.6
			c0.8-0.2,1.4-0.2,2.2,0.1C65,131,63,136.3,63,136.5L63,136.5z M65,130c1-0.3,1.6-0.4,2.4-0.2c0.6,0.4,1.1,0.9,1.4,1.5
			c0.5,1,0.5,2.1,0.1,3.1c-0.3,0.9-0.8,1.7-1.6,2.2c-0.5,0.3-1.6,0.5-1.8-0.1C65.4,136.3,64,131,65,130L65,130z M70,136.7
			c0,1-0.3,2-0.3,3l-2.1-1.4l0.3-0.1C68.7,137.9,69,137.4,70,136.7L70,136.7z M65.5,139c-0.1,0-0.2,0.1-0.2,0.1s0-0.2,0-0.3
			L65.5,139z M68.7,149.6c0,0.7-0.1,1.3-0.1,2l0,0c0-0.1-0.1-0.2-0.1-0.2c-0.2-0.3-0.2-0.2-0.2-0.6c0-0.4,0.1-0.8,0.2-1.2
			L68.7,149.6z M69.8,129.6c-0.7-0.6-1.4-1.3-2.1-1.9c0.4-0.3,0.6-0.6,1-0.9c0.6-0.2,1.4-0.6,1.4-1.1c0,0.5,0,1,0,1.4
			c0,0.1,0,0.2,0,0.3C70,128.2,69.8,128.9,69.8,129.6z M70.2,119.8c-0.6,0-1.2-1-1.8-1.5c0.6-0.4,1.2-0.8,1.8-1.2
			C70.3,118,70.2,118.8,70.2,119.8L70.2,119.8z M69.3,111.1c-0.5-0.2-1-0.3-1.5-0.3l0.1-0.1c1-0.2,2,0.2,3-0.2
			c0.2-0.1,0.4-0.2,0.6-0.3c-0.2,0.5-0.3,1.1-0.5,1.6C70.5,111.5,69.9,111.3,69.3,111.1L69.3,111.1z M70.8,142.5
			c0.5,0.3,1,0.6,1.3,0.9l-0.2,0.2c-0.5,0.2-1,0.5-1.4,0.9C70.6,143.7,70.8,143,70.8,142.5L70.8,142.5z M71.9,141.1
			c-0.4-0.2-0.7-0.5-0.9-0.8c0.1-1.4,0.1-2.8,0.2-4.2c0.7-1.1,1.6-2.4,2.9-1.3c1,0.9,1,2.7,0.8,3.9C74.7,140,73.5,141.8,71.9,141.1z
			 M73.5,132.8l0.9-1l0.1-0.2l0.6-0.6l0.2-0.2c0,0.9,0,2,0,2.8C74.6,133.4,74,132.8,73.5,132.8L73.5,132.8z M73.6,122.8l0.3-0.3
			c0.1,0,0.2-0.1,0.4-0.2c0.5-0.2,0.9-0.6,1.2-1c0,0.8,0,1.8-0.1,2.6C74.7,123.5,74.1,122.8,73.6,122.8L73.6,122.8z M74.7,120.8
			c-0.4,0-1.1,1.1-1.9,0.7c-0.3-0.2-0.6-0.6-0.7-0.9c0-0.3-0.1-0.7-0.1-1c0-0.8,0-1.6,0.1-2.4c0.4-1.1,1.4-1.5,2.3-0.3
			C75.1,118,75.3,118.8,74.7,120.8L74.7,120.8z M73,111.9c-0.1-0.4-0.2-0.9-0.2-1.4c0-0.2-0.1-0.4-0.1-0.6l0,0
			c0.2-0.3,0.3-0.6,0.5-0.9c0.2-0.3,0.3-0.4,0.5-0.6c0.8-0.5,1.4,0.4,1.6,1c0.3,1.2,0,2.6-1,3.4C73.5,113.5,73.2,112.7,73,111.9
			L73,111.9z M85.5,96.2c0,0.7,0,1.3,0,2l-1.4-0.5L85.5,96.2z M85,86L85,86z M86.4,110.9c0,0.6,0.1,1.2,0.1,1.7l-1.3-0.5l0.3-0.4
			C85.9,111.5,86.1,111.2,86.4,110.9L86.4,110.9z M86.3,109.9v-0.1C86.3,109.8,86.3,109.8,86.3,109.9L86.3,109.9z M86,106.6l0.1,0.1
			v0.2C86.1,106.8,86.1,106.7,86,106.6L86,106.6z M84.6,104.7l0.3-0.3c0.4-0.3,0.7-0.7,1-1.1c0,0.7,0.1,1.4,0.1,2.1L84.6,104.7z
			 M83.4,99.4c0.9,0.3,1.6,1.2,1.6,2.1c0,0.9-1.1,2.5-2.1,1.8c-0.8-0.9-1.2-2-1.1-3.2C82.2,99.6,82.8,99.3,83.4,99.4L83.4,99.4z
			 M83.1,105.1l-0.4,0.4c-0.3,0.1-0.5,0.3-0.7,0.5c0-0.5,0-1,0-1.4L83.1,105.1z M82,107.9c0-0.7,0.6-1.2,1.2-1.5
			c1.5-0.5,2,1.2,2,2.4c-0.1,1.1-1,2.5-2.1,1.7c-0.5-0.4-0.8-0.8-1-1.4c-0.1-0.2-0.1-0.4-0.2-0.7C81.8,108.2,82,108.1,82,107.9
			L82,107.9z M83.4,112.7l-0.3,0.4c-0.4,0.2-0.7,0.4-0.9,0.7c0-0.6-0.1-1.1-0.1-1.7L83.4,112.7z M84,114.1c1,0,1.8,1.5,2.1,2.5
			c0.4,1.2-0.2,2.4-1.4,2.8c-0.1,0-0.3,0.1-0.4,0.1c-0.7-0.1-1.4-0.4-1.8-1c-0.1-0.8-0.1-1.7-0.2-2.5C82.5,115,83,114.1,84,114.1
			L84,114.1z M84,121.7c-0.4,0.2-0.8,0.5-1.1,0.9l0,0c0-0.5,0-1-0.1-1.5L84,121.7z M82.9,139.4c0.4,0.2,0.8,0.4,1.3,0.6
			c-0.5,0.7-1.1,1.5-1.6,2.2C82.7,141.2,82.8,140.3,82.9,139.4z M83,129.8c0.6,0.3,1.2,0.6,1.8,1l-0.5,0.6c-0.5,0.4-0.9,0.8-1.2,1.3
			C83,131.7,83,130.8,83,129.8L83,129.8z M85.5,129.8L85.5,129.8h0.1H85.5L85.5,129.8z M86.4,130.2l0.2-0.3c0,0.1,0,0.2,0,0.4
			L86.4,130.2z M85.5,128.5c-0.7,0.4-1.5,0.4-2.1,0.1c-0.7-1.3-0.7-2.9-0.1-4.3c0.3-0.8,1-1.6,1.9-1.4s1.1,1.1,1.3,1.8
			C86.8,125.9,86.8,127.7,85.5,128.5L85.5,128.5z M85.7,121.1l1.1-1c0,0.5,0,1,0,1.5L85.7,121.1z M84.9,82.2c-2.8-2.6-3.6-8-2-11.4
			c1.5-1.3,3.4-2,5.4-1.8c2.2,0.3,4.3,2.5,5.8,4.1c1.3,1.5,2.3,3.3,2.8,5.3c0.4,1.4,1.6,8-2.5,7l0,0c-0.3-0.1-0.6-0.2-0.9-0.3
			L93.4,85c-1-0.6-2.1-1.1-3.3-1.4C87.9,83.2,86.9,83.9,84.9,82.2L84.9,82.2z M94.9,118.5l0.9,0.5c-0.3,0.2-0.6,0.4-0.9,0.6
			C94.9,119.2,94.9,118.9,94.9,118.5L94.9,118.5z M94.7,112.5c0-0.3-0.1-0.5-0.1-0.8c0-0.3-0.1-0.6-0.1-1l0.5,0.2l0.9,0.4
			C95.4,111.7,95,112.1,94.7,112.5L94.7,112.5z M95.8,116.3c-0.5-0.6-0.8-1.4-0.8-2.2c0.7-1.2,1.9-2.3,3.2-1.3
			c1.1,0.8,0.8,2.6,0.3,3.6c-0.2,0.6-0.9,0.9-1.5,0.7l-0.6-0.3C96.1,116.6,95.9,116.4,95.8,116.3L95.8,116.3z M97.5,110.9
			c0.4-0.4,0.8-0.9,1.2-1.3l0.2,2L97.5,110.9z M98.3,103.3l-1.8-0.7c0.5-0.3,1-0.7,1.3-1.1l0.4-0.4
			C98.3,101.9,98.3,102.6,98.3,103.3L98.3,103.3z M91.4,109.7c0.8,0.8,1,2,0.7,3.1c-0.4,1.3-1.7,0.8-2.6,0.2
			c-0.9-0.6-1.8-1.5-1.3-2.7c0.2-0.4,0.5-0.8,0.8-1.2c0.1-0.1,0.3-0.1,0.4-0.2C90.2,108.9,90.9,109.2,91.4,109.7L91.4,109.7z
			 M90.3,107.4c0.7-0.5,1.3-1,2-1.5c0,0.6,0.1,1.2,0.1,1.8l0.1,0.7L90.3,107.4z M91,116.6c2,0,1.8,1.6,1.8,2.5
			c0.3,1.3-0.4,2.6-1.7,2.9c-1,0.2-2.1-0.2-2.6-1.1l0-0.1c-0.1-1.1,0.2-2.1,0.9-3C89.8,117.1,91,116.7,91,116.6L91,116.6z M93,122.7
			c0,0.3,0,0.5,0,0.8l-0.6-0.1L93,122.7z M92.7,115.1l0.3-0.3c0,0.1,0,0.3,0,0.4L92.7,115.1z M93,93.8c1,0.4,1.5,0.7,2.2,1
			c-0.6,0.4-1.3,0.8-2,1.2C93.2,95.2,93,94.5,93,93.8L93,93.8z M93,90c1-0.6,1.7-1.2,2.5-1.8c0.6-0.3,1.5-0.1,1.9,0.5
			c0.7,1.3,0.5,2.8-0.4,4C95.5,94.4,92,91.9,93,90L93,90z M94,97.9c0-0.9,1.1-1.5,2.1-1.8c0.6-0.1,1.2,0.2,1.4,0.7
			c0.6,1.2,0,3.1-0.8,4.1c-0.5,0.8-1.4,1.1-2.2,0.6c-0.4-0.2-0.5-0.6-0.5-0.9c0-0.4,0-0.9,0-1.3S94,98.4,94,97.9L94,97.9z
			 M97.2,94.2l1-0.8c0,0.5,0,0.9,0.1,1.4L97.2,94.2z M98,86.6c0,0,0,0.1,0,0.1l-0.6-0.1l0.6-0.5C98,86.3,98,86.5,98,86.6L98,86.6z
			 M89,86.8c1,0,0.9,0.1,1.3,0.3c0.5,0.3,0.9,0.8,0.9,1.4c-0.1,0.2-0.2,0.3-0.3,0.5c-0.5,0.6-1.3,0.9-2.2,0.8
			c-0.6-0.2-1-0.7-1.2-1.3c-0.1-0.2-0.1-0.4-0.2-0.6C87.6,87.2,88,86.8,89,86.8L89,86.8z M92.1,90.9c-0.1,0.4-0.2,0.8-0.2,1.2
			l-1-0.3C91.3,91.5,91.6,91.2,92.1,90.9L92.1,90.9z M92,97.8c0,0.5,0,1,0,1.4c0,0.5,0,0.9,0,1.4c0,0,0,0.1,0,0.1l-2.6-1.1
			c0.1-0.1,0.3-0.2,0.4-0.3l0.3-0.2c0.3-0.2,0.6-0.4,0.9-0.6L92,97.8z M91.3,103c1.3,1.8-1.4,3.6-3,2.9c-0.8-0.3-0.8-2-0.8-2.7
			c0-0.5,0.2-1,0.5-1.5C89.2,101.5,90.5,102,91.3,103L91.3,103z M88.7,107.8l-0.2,0.2c-0.4,0.3-0.7,0.6-1.1,0.9
			c-0.1-0.6-0.1-1.2-0.2-1.8L88.7,107.8z M88.7,115c0.4,0.2,1,0.4,1.4,0.7c-0.6,0.4-1.2,0.9-1.7,1.5c-0.1,0.1-0.4,0.3-0.4,0.4
			c0-0.7,0-1.4,0-2.1c0-0.2,0-0.5,0-0.7L88.7,115z M90.2,124.4l-0.3,0.2l0,0c-0.7,0.3-0.9,0.8-1.9,1.4c0-0.8,0-1.6,0-2.4
			c1,0.3,1.3,0.6,2,0.8L90.2,124.4z M91.9,131.9c0.5-0.3,0.9-0.8,1.2-1.2l0.3-0.2c0,0.2,0.1,0.3,0.1,0.5c0,0.3,0,0.7,0,1l0,0l0,0
			c-0.1,0.1-0.2,0.2-0.2,0.3c-0.4,0.1-0.8,0.1-1.2,0c0-0.1,0-0.1-0.1-0.2V131.9z M93.9,142.6c0.3,0.1,0.1,0.7-0.1,0.8l0,0l-0.7-0.2
			l-0.1-0.3c0-0.1,0-0.1,0.1-0.2C93.2,142.6,93.6,142.5,93.9,142.6z M93.7,103.9c0-0.3,0-0.5,0-0.8l0.7,0.2L93.7,103.9z M95.2,104.8
			c0.7-1,1.6-0.4,2.1,0.2c0,0,0.1,0,0.1,0c0.5,1,0.6,2.2,0.2,3.3c-0.3,0.9-1.3,1.3-2.2,0.9c-0.4-0.1-0.7-0.2-0.8-0.5
			C93.5,107.4,94.4,105.8,95.2,104.8L95.2,104.8z M94.5,125.8c0.9,0,1.8,0,2.7-0.1l-0.4,0.4c-0.8,0.9-1.6,1.8-2.5,2.6
			C94.3,127.7,94.4,126.8,94.5,125.8L94.5,125.8z M97.2,126.8l0.1-0.1L97.2,126.8L97.2,126.8z M96,137.4c0-1.6,1.7-2,2.6-0.7
			c0.8,1.1,0.1,2.6-0.6,3.6c-0.4,0.6-1,1-1.7,1.2c-0.4,0-0.6-0.2-0.7-0.5C95.7,139.8,96,138.6,96,137.4L96,137.4z M98.9,118.1
			l0.2-0.1v0.3L98.9,118.1z M95.8,68.7c-1.7-2.5-2.4-4.2-1-7.2c0.5-1.2,1.1-2.3,1.8-3.4c1-0.6,2.2-0.7,3.3-0.5
			c2.7,0.7,4.9,3.5,7,5.5c0.3,0.8,0.6,1.7,0.9,2.5c0.2,0.8,0.3,1.7,0.3,2.6c-1,3.3-2.1,7.6-5.2,8.2C99.2,76.3,97.6,71.2,95.8,68.7z
			 M105.7,108.4c0.6,0.4,1.1,0.9,1.6,1.3c-0.6,0.3-1.1,0.7-1.6,1.1l0,0C105.7,110,105.7,109.2,105.7,108.4L105.7,108.4z M106.4,107
			c-0.4-0.3-0.7-0.7-0.9-1.1c-0.1-0.5-0.1-1-0.2-1.5c0.1-0.5,0.5-0.9,0.9-1.2c0.6-0.3,1.3-0.2,1.6,0.4c0.5,0.9,0.7,1.9,0.5,3
			c0,0.4-0.2,1.3-0.8,1.1C107.2,107.5,106.8,107.3,106.4,107L106.4,107z M105,126c0.1-0.2,0.2-0.5,0.3-0.7c0.2-0.2,0.4-0.3,0.6-0.5
			c0.1-0.1,0.2-0.2,0.4-0.3c0.3-0.2,0.5,0.5,0.5,0.6c0.3,0.9-0.7,2-1.5,2.3C104.3,127.8,104.9,126.4,105,126L105,126z M104.9,129.7
			L104.9,129.7z M104.7,124.9c0,0.1-0.1,0.1-0.1,0.2L104.7,124.9L104.7,124.9z M104.7,94.8c0.1-1,0.2-1.4,0.3-2.2
			c0.4,0.4,0.8,0.8,1.2,1.2C105.7,94.1,105.2,94.8,104.7,94.8L104.7,94.8z M105.1,118.8L105.1,118.8c0.6,0,1.1-0.7,1.7-1
			c1,0.5,1.4,1.5,1.1,2.6C107.3,123.2,103.7,120.8,105.1,118.8L105.1,118.8z M104.9,118c0.1-0.7,0.1-1.3,0.2-1.9
			c0.5,0.3,1,0.6,1.5,0.8C106,117.2,105.5,117.6,104.9,118L104.9,118z M104.8,100.6c0.5,0.4,1,0.8,1.4,1.2l-0.5,0.2
			c-0.2,0.1-0.5,0.2-0.7,0.4C105,101.8,104.9,101.2,104.8,100.6L104.8,100.6z M106.1,99.6c-0.6-0.5-1-1.1-1.1-1.9
			c-0.1-0.7,0-1.4,0.2-2l0.8-0.5c0.6-0.3,1.4-0.1,1.8,0.5c0.5,0.9,0.7,1.9,0.6,3C108.1,100.1,107.2,100.4,106.1,99.6L106.1,99.6z
			 M107.6,92.6c-0.7,0.3-1.5-0.4-1.8-1c-0.4-1-0.5-2.2-0.2-3.2c1.3-1.1,2.3,1.1,2.6,2.2C108.6,91.3,108.3,92.2,107.6,92.6
			L107.6,92.6z M105.9,87L105.9,87l-0.4,0.1c0-0.4,0-0.8,0-1.2l0.5,0.6h-0.1C105.7,86.6,105.8,86.9,105.9,87L105.9,87z M100.9,121.4
			l-0.7,0.7c0-0.3,0-0.6,0.1-0.9L100.9,121.4z M100.3,113.4l1.3,0.6l-1.2,1.1C100.4,114.5,100.4,114,100.3,113.4L100.3,113.4z
			 M100.8,119l0.2-0.1c0-0.5,0-1.1,0-1.6l0-0.5l-0.1-0.1l1-1c0.1-0.1,0.2-0.1,0.4-0.2c0.7-0.2,1,0.3,1.1,1c0,0.6-0.1,1.1-0.1,1.7
			c-0.2,0.8-0.6,1.5-1.5,1.5L100.8,119z M102.1,113.2c0.2,0,0.4,0,0.5,0l-0.2,0.2L102.1,113.2z M100.8,111.2c-0.4-0.6-0.6-1.3-0.6-2
			c0-0.3,0-0.5,0-0.8c0.5-1.1,1.7-2.4,2.7-1.1c0.6,0.9,0.9,2.1,0.7,3.2c-0.1,0.8-0.9,1.4-1.7,1.2
			C101.4,111.7,101.1,111.5,100.8,111.2L100.8,111.2z M103.8,88.8c0,0.5-0.1,1-0.1,1.4c-0.3-0.2-0.5-0.5-0.8-0.7L103.8,88.8z
			 M103.7,87.8c0.1-0.1,0.1-0.1,0.2-0.2c0.1-0.1,0,0.1,0,0.1L103.7,87.8z M103.1,91.8c0.7,1.2,0.4,4.1-1.4,4.1
			c-0.8,0-1.7-0.8-1.7-1.6c0-0.4,0-0.8,0-1.2c0-0.4,0-0.5,0-0.8c0-0.6,0.7-1.1,1.3-1.4c0.2-0.1,0.5-0.1,0.7-0.1
			C102.5,91,102.9,91.4,103.1,91.8L103.1,91.8z M103.3,97.1c0,0.2,0,0.4,0,0.6l-0.4-0.3L103.3,97.1z M101,97.7l-1.2,1
			c0-0.5,0-1.1,0.1-1.7L101,97.7z M100.9,90c-0.4,0.2-0.7,0.4-1,0.7c-0.1-0.6-0.2-1.2-0.3-1.9c0.6,0.3,1.1,0.6,1.7,0.9L100.9,90z
			 M99.9,100.1c0.6-0.8,1.6-1.6,2.4-0.9c0.9,0.7,0.9,2,0.8,3c-0.1,1.3-1.2,2.2-2.4,1.5c-0.5-0.3-0.8-0.9-0.9-1.5
			C99.8,101.5,99.8,100.8,99.9,100.1z M100.8,105.8l-0.8,0.8c0-0.4,0-0.8-0.1-1.2L100.8,105.8z M103.2,105.1l0.7-0.6
			c0,0.3,0.1,0.6,0.1,0.9C103.7,105.4,103.4,105.3,103.2,105.1L103.2,105.1z M103.5,87.3c-0.6,0.8-1.7,1.1-2.6,0.7l-0.4-0.3
			c-0.1-0.1-0.2-0.1-0.2-0.2c-0.6-0.8-0.8-1.9-0.5-2.9c0.6-0.5,1.1-0.9,1.7-1.4c0.6-0.1,1.3,0,1.9,0.4c0.3,0.2,0.7,0.5,0.7,0.8
			c0,0.6,0,1.2,0,1.8C104,86.7,103.7,87,103.5,87.3L103.5,87.3z M102.5,80.1c-1.4,0.8-2.3-0.6-1.9-1.6c0.1-0.1,0.1,0,0.2-0.1
			c0.4-0.2,0.8-0.2,1.2-0.2h0.2l0,0h0.2C103.4,78.2,103.3,79.6,102.5,80.1L102.5,80.1z M103.5,81.7c0.1,0.1,0.2,0.2,0.4,0.2
			c0,0.3,0,0.6,0.1,0.9c-0.3-0.2-0.6-0.4-1-0.6L103.5,81.7z M99.3,85l0.1-0.1c0,0.1-0.1,0.2-0.1,0.4C99.3,85.2,99.3,85.1,99.3,85z
			 M99.7,130.9c0.2-0.3,0.3-0.7,0.5-1c0.3-0.3,0.7-0.6,1.1-0.7c0.3,0,0.5,0.1,0.7,0.3c0.3,0.3,0.1,0.8,0,1.1c-0.3,0.9-1.1,1.6-2,1.8
			c-0.4,0.1-0.7,0-0.7-0.4C99.4,131.6,99.5,131.2,99.7,130.9z M106.9,115.2c-0.6-0.5-1.1-1-1.4-1.7c0-0.2,0-0.5,0.1-0.7
			c0.7-0.7,1.5-1.7,2.3-1.6c0.7,0.1,0.7,2.5,0.7,3.1C108.5,115.6,107.9,115.9,106.9,115.2z M108.2,101.6l0.5-0.3c0,0.3,0,0.5,0,0.8
			L108.2,101.6z M108.6,94.7l-0.7-0.6l0.9-0.5l0,0c0,0.4,0,0.9,0,1.3L108.6,94.7z M115.2,96.4c0.4,0.8,1.1,1.5,1.9,1.9l-0.5,0.1
			c-0.5-0.1-1,0-1.4,0.3l-0.3,0.1c0-0.1,0-0.2,0-0.3C115,97.8,115.3,97.1,115.2,96.4L115.2,96.4z M118,120.7L118,120.7
			c0.4-0.6,1.1-1,1.8-1c0.3,0,0.5,0.1,0.7,0.4c0.2,0.3-0.1,0.7-0.3,0.9c-0.4,0.4-1.7,1.5-2.1,0.7C117.9,121.3,117.8,121,118,120.7
			L118,120.7z M118,118L118,118L118,118z M118.8,114.8L118.8,114.8z M116.1,102.8c-0.4-1-0.7-1.3-0.8-1.9c0-0.3,0-0.7,0.1-1l0.3-0.2
			l1.1-0.3c0.1,0.1,0.3,0.2,0.4,0.3c0.6,0.7,0.9,1.8,0.8,2.7C117.8,103.5,116.6,102.8,116.1,102.8L116.1,102.8z M117.2,105.3l-0.1,0
			L117.2,105.3L117.2,105.3z M115.5,103.8l1,0.9l-1.6,0.9c0-0.9,0.1-1.6,0.1-2.5C115.1,103.3,115.3,102.8,115.5,103.8L115.5,103.8z
			 M115.6,110.6c-0.3,0.3-0.7,0.6-1,1c0-0.4,0.1-0.9,0.1-1.3C114.9,110.3,115.2,110.5,115.6,110.6L115.6,110.6z M113.8,98.3
			c-0.3,0.5-1,0.4-1.5,0.2c-0.5-0.6-1-1.1-1.5-1.7c-0.1-0.1-0.1-0.3-0.2-0.4c-0.3-0.8-0.4-1.7-0.3-2.5c0-0.1,0-0.1,0-0.2
			c1.1-0.4,2.4,0,3,1c0.3,0.5,0.6,1.1,0.7,1.7c-0.1,0.5-0.1,1-0.1,1.6C113.9,98.1,113.9,98.2,113.8,98.3z M113.9,121.9L113.9,121.9
			L113.9,121.9L113.9,121.9z M111.6,105.8c-0.2-1-0.3-0.6-0.5-0.8c-0.2-0.2-0.5-0.7-0.7-1c-0.2-0.4-0.4-0.8-0.4-1.2v-0.1
			c0-0.4,0-0.8,0-1.3c1-0.5,1-0.7,1.7-0.7h0.2c0.3,0,0.6,0.1,0.8,0.3c1,0.8,1.2,3.4,0.7,4.5C113,106.5,112.2,105.8,111.6,105.8
			L111.6,105.8z M113.4,110.8c0,0-0.1,0.9-0.1,1.5c0,0.1-0.1,0.1-0.2,0.2c-0.2,0.1-0.5,0.1-0.7,0c-0.7-0.7-1.3-1.4-2-2
			c-0.1-0.2-0.1-0.3-0.2-0.5c0.1-0.3,0.2-0.5,0.5-0.7c0.3-0.2,0.7-0.4,1-0.4h0.1c0.3,0,0.6,0.1,0.8,0.3
			C113,109.6,113.2,109.8,113.4,110.8L113.4,110.8z M110,97.6l0.2,0.2c0.3,0.4,0.5,0.7,0.9,1c-0.1,0.1-0.2,0.2-0.2,0.3
			c-0.2,0.2-0.5,0.4-0.8,0.5C110,98.9,110,98.3,110,97.6L110,97.6z M113.6,99.9h0.3v0.4L113.6,99.9z M112.4,90.5
			c-0.3,0-0.5-0.1-0.8-0.1c-0.1,0-0.1,0-0.2,0c-0.2-0.1-0.5-0.2-0.7-0.4l-0.6-0.7c-0.1-0.3-0.2-0.5-0.4-0.8c0.1-0.6,0.3-1.2,0.5-1.8
			c0.3-0.2,0.6-0.4,1-0.3c1.1,0.9,2.1,1.5,2.1,3.1c0,0,0,0.1,0,0.1C113.3,90.1,112.9,90.5,112.4,90.5L112.4,90.5z M113.4,90.6
			L113.4,90.6L113.4,90.6z M112.5,91.8c0.5,0,1-0.4,1.6-0.7c0.1,0.8,0.3,1.7,0.5,2.5c0,0.1,0,0.2-0.1,0.3
			C113.8,93.2,113.1,91.8,112.5,91.8L112.5,91.8z M114,90.3L114,90.3z M110.6,91.7l-0.7,0.3c0-0.3-0.1-0.7-0.1-1L110.6,91.7z
			 M109.9,105.8c0.5,0.6,1,1.2,1.6,1.8c-0.5,0.3-1.1,0.6-1.6,0.9C109.7,107.6,109.8,106.7,109.9,105.8L109.9,105.8z M111.8,114
			c-0.5,0.3-0.9,0.6-1.4,0.9c0-0.7-0.1-1.5-0.2-2.2l0,0C110.6,113.2,111.1,113.6,111.8,114L111.8,114z M111.4,119.9L111.4,119.9z
			 M111.5,120.9L111.5,120.9L111.5,120.9c0.2-0.2,0.3-0.2,0.4-0.2c0.3,0.3,0.3,0.7,0.2,1.1c-0.1,0.4-0.8,0.7-1.2,0.4
			C110.6,121.9,111.2,121,111.5,120.9L111.5,120.9z M113,125.8c0.6-0.4,1.5-0.2,1.8,0.4c0.1,0.1,0.1,0.2,0.2,0.4
			c0,0.7-1.3,1-1.8,1.2c-0.4,0.1-0.8,0.2-1.2,0.1c-0.2,0-0.4-0.2-0.4-0.4C112,126.9,112.4,126.4,113,125.8L113,125.8z M114.4,123.3
			c-0.3-0.2-0.1-0.7,0.1-1c0.2-0.1,0.4-0.2,0.6-0.2c0.1,0,0.2,0,0.3,0.1l-0.1,0.9C115.1,123.4,114.7,123.5,114.4,123.3L114.4,123.3z
			 M116.1,108.9c-0.4-0.1-0.7-0.6-0.8-1c-0.2-0.4-0.2-0.8-0.2-1.2l1.2-0.9l0,0c0.7,0,1.3,0.5,1.4,1.2
			C117.7,107.8,116.9,109.2,116.1,108.9L116.1,108.9z M117.5,125.4L117.5,125.4L117.5,125.4c0.2,0,0.4-0.1,0.6-0.2
			c0.2-0.1,0.4-0.3,0.6-0.5c0.5-0.3,1.1-0.3,1.5,0.1c0.6,0.6,0.3,1.6-0.2,2.1c-0.7,0.7-1.7,0.2-2.3-0.4
			C117.5,126.3,117.4,125.8,117.5,125.4L117.5,125.4z M120.3,116.4c-0.4,0.3-1.1,0.5-1.2-0.2c0-0.3,0-0.6,0.1-0.9
			c0-0.1,0.1-0.3,0.2-0.4c0.4-0.2,0.9-0.2,1.2,0C121.3,115.4,120.8,116.1,120.3,116.4L120.3,116.4z M120.7,112.2
			c-1.1-0.3-1.9-1.2-2-2.3c0.9-0.6,2-0.6,2.9,0c0.1,0.2,0.3,0.4,0.5,0.4C122.8,111.3,121.8,112.4,120.7,112.2L120.7,112.2z
			 M119.2,101.1l0.8,0.7l0.7,0.5c-0.5,0.2-1.1,0.4-1.6,0.7l0,0C119.3,102.5,119.3,101.8,119.2,101.1L119.2,101.1z M119.9,99.4
			c0.6-0.3,1.3-0.5,2-0.6c0.2,0,0.4,0.1,0.5,0.2c0.6,0.2,1,0.8,1,1.4c-0.3,0.4-0.8,0.7-1.3,0.9c-0.8,0.1-1.6-0.8-2-1.3
			C120,99.8,119.9,99.7,119.9,99.4L119.9,99.4z M119.6,107.7l-0.1,0.1c-0.2,0.1-0.5,0.2-0.7,0.3c0.1-0.3,0.2-0.7,0.2-1L119.6,107.7z
			 M124.4,105.5l-0.3,0.2c0-0.2,0-0.3,0-0.5L124.4,105.5z M125.1,118.5c-0.3,0.3-0.7,0.5-1.2,0.6c-1,0.2-0.6-0.7-0.3-1.3
			c0.2-0.1,0.4-0.2,0.6-0.2c0.3,0,0.9,0.2,1,0.4C125.3,118.3,125.1,118.4,125.1,118.5L125.1,118.5z M125.5,117.1L125.5,117.1
			L125.5,117.1C125.5,117.1,125.4,117.1,125.5,117.1L125.5,117.1z M126.2,115c-0.6,0.5-1.6,0.4-2.1-0.2c0-0.1-0.1-0.1-0.1-0.2
			c-0.1-0.3-0.2-0.6-0.1-0.9c0.5-0.4,1.2-0.5,1.8-0.2C126.1,113.9,126.8,114.6,126.2,115L126.2,115z M125.7,107.8
			c0.3,0.1,0.4,0.2,0.7,0.4c0.3,0.2,0.6,0.5,0.6,0.7c0,0.1,0,0.2,0,0.3v2.1c-1,1-3.2-1.6-3.2-3.1c0.1-0.3,0.4-0.5,0.5-0.7
			C124.8,107.6,125.2,107.7,125.7,107.8L125.7,107.8z M127,85.6v0.4l0,0l0,0c0,0,0,0.4,0,0.5v0.1v7.4l0,0.3
			c-0.9,0.9-1.6,1.9-1.9,3.1c-1.1-0.2-2.1-0.9-3.1-0.8c-2.8,0.3-5.4,1.6-6.2-2.6c-0.2-1.1-0.7-2.1-0.7-3.2c0-0.1,0-0.2,0-0.3
			c0-0.2,0.1-0.4,0-0.5c0.3-3,2.3-5.5,4.3-7.8C121.8,79.5,124.7,83,127,85.6L127,85.6z M122.2,78c0,0.1,0,0.2-0.1,0.3
			c-0.1,0.2-0.3,0.3-0.4,0.4c-0.4,0.3-0.8,0.3-1.2,0c-0.3-0.3-0.5-0.7-0.5-1.1c0,0,0-0.1,0-0.1c0-0.2,0-0.3,0.1-0.4
			c0.2-0.2,0.4-0.3,0.7-0.2c0.3,0.1,0.6,0.2,0.9,0.5C122,77.5,122.1,77.8,122.2,78L122.2,78z M121.9,76.2L121.9,76.2
			c0.1,0,0.2,0,0.2,0c0,0,0,0.1,0.1,0.1L121.9,76.2z M122.2,76.4C122.3,76.4,122.3,76.4,122.2,76.4L122.2,76.4L122.2,76.4z
			 M123.5,80.3L123.5,80.3L123.5,80.3z M124.8,58.4c1.3,2.7,2,5.6,1.9,8.6c-0.1,3.1-1.9,5.1-3.6,7.3c-1.4,0.6-3.1,0.6-4.4-0.2
			c-0.7-0.3-1.3-0.7-1.8-1.2c-0.7-1.2-1.5-2.4-2.4-3.4c-1.1-2.8-1.1-6-0.1-8.8c2.1-2.1,4.2-4.8,6.9-4.4
			C122.6,56.6,123.9,57.4,124.8,58.4z M118.8,53.1c0-0.1,0-0.3,0-0.4c0.1,0,0.2-0.1,0.3-0.2l0.1-0.1c0,0,0.1,0,0.1,0l0,0
			c0-0.1,0.1-0.1,0.2-0.1c0.3-0.1,0.6-0.1,0.8,0.1c0.3,0.1,0.6,0.3,0.8,0.6c0.2,0.2,0.3,0.5,0.3,0.7c0,0.1,0,0.1-0.1,0.2
			c-0.1,0.1-0.3,0.2-0.5,0.3c-0.4,0.3-1,0.3-1.4,0C119.1,53.9,118.9,53.5,118.8,53.1z M121.7,51.8c0,0,0-0.1,0-0.1h0.1v0.2
			L121.7,51.8z M127,39.8c0,0,0-0.6,0-0.6c0,0.1,0,0.3,0,0.4c0,1.1-0.1,2.2-0.5,3.3c-0.1,0.2-0.2,0.5-0.3,0.7
			c-1,1.9-2.1,3.7-3.3,5.4c-0.6,0.4-1.2,0.7-1.8,1c-3.1,1.2-5.6-1.5-7.7-4.2c-1.3-3.5-1.4-7.4-0.3-11l0.6-0.7
			c0.7-0.6,1.3-1.2,1.9-1.9c1.7-1.6,3.5-2.7,5.5-2.3l0.3,0.4C124.6,31.5,126.7,36.8,127,39.8L127,39.8z M117.8,23.8
			c0.4,0,0.9-0.6,1.5-0.2c0.5,0.4,0.9,1.2,0.9,1.9c0,0.2-0.1,0.4-0.2,0.5c-0.4,0.2-0.9,0.1-1.4-0.1C118,25.5,117.7,24.8,117.8,23.8
			L117.8,23.8z M121,21.6l0.1,0v0.1L121,21.6L121,21.6z M122.5,18.9c-0.3,0.3-0.5,0.5-0.8,0.8c-1.5,0.9-3.3,0.8-4.7-0.2
			c-1.2-1-0.9-2.9,0-4.1c1.3-0.5,2.7-0.6,4.1-0.3c1.4,0.4,2.2,1.8,1.8,3.1C122.7,18.5,122.6,18.7,122.5,18.9L122.5,18.9z
			 M127.5,11.1L127.5,11.1L127.5,11.1L127.5,11.1z M126.6,14.4c-0.1,0.1-0.3,0.2-0.4,0.3c-0.1-0.1-0.3-0.2-0.4-0.4h-0.1L126.6,14.4z
			 M125.1,3.1c0.2,0,0.3,0,0.2,0.2c-0.1,0.2-0.2,0.2-0.4,0.2c-0.1,0-0.2-0.1-0.3-0.2C124.8,3.2,124.9,3.1,125.1,3.1z M124.3,12.9
			L124.3,12.9L124.3,12.9L124.3,12.9z M112.9,5c2.4-2,8.3-0.9,10.5,0.4c1.7,1,0.5,3-0.4,4c-0.9,1-2.7,1.1-4,0.9
			c-1.1-0.2-2.2-0.6-3.1-1.1C114.7,8.7,112,6.7,112.9,5z M115.5,12.1L115.5,12.1z M112.6,12.1c0.2-0.2,0.2-0.4,0.4-0.3
			c0.3,0,0.4,0.3,0.4,0.5c0,0,0,0.1,0,0.1c-0.1,0.3-0.2,0.3-0.6,0.2C112.7,12.4,112.6,12.3,112.6,12.1L112.6,12.1z M111.9,14.7
			c-0.2,0.2-0.3,0.4-0.4,0.7c-0.3-0.2-0.5-0.4-0.8-0.6L111.9,14.7z M109.3,2.2L109.3,2.2L109.3,2.2c0.1,0,0.2,0,0.3,0.1
			c0.2,0.1,0.3,0.2,0.4,0.3c0,0,0.1,0.2,0.1,0.1l0.1,0.1c-0.4,0.2-1,0.2-1.1-0.2C109.1,2.4,109.2,2.3,109.3,2.2z M107.9,5L107.9,5
			L107.9,5L107.9,5z M106.5,3.7c0.3,0.1,0.2,0.3,0.1,0.5c-0.4,0.5-0.9,0.1-1-0.3C105.8,3.6,106.2,3.6,106.5,3.7L106.5,3.7z M105,8.1
			l0.2-0.3c0,0.1,0.1,0.2,0.3,0.1c1.3-1,3.2-0.7,4.2,0.6c0,0,0.1,0.1,0.1,0.1c0.9,1.3-0.6,2.7-1.8,2.8c-1.1-0.1-2.1-0.6-2.8-1.4
			c-0.6-0.4-0.7-1.2-0.2-1.8C104.9,8.2,105,8.2,105,8.1z M105.3,13.6h-0.1v-0.1L105.3,13.6z M103.9,5.2L103.9,5.2z M102.9,2.3
			c0.4,0,0.5,0.4,0.3,0.7c-0.2,0.3-0.5,0.3-0.8,0.2c0,0,0,0,0,0c-0.1-0.1-0.2-0.3-0.2-0.4C102.4,2.5,102.6,2.3,102.9,2.3L102.9,2.3z
			 M103.6,15.1c-0.2,0.2-0.4,0.3-0.5,0.5c-0.2-0.2-0.5-0.4-0.8-0.5l0,0L103.6,15.1z M101.4,12.5c0.2-0.2,0.5-0.3,0.8-0.3
			c0.3,0,0.6,0.3,0.5,0.6c0,0.1,0,0.2-0.1,0.2c-0.3,0.3-0.8,0.3-1.1,0c0,0-0.1-0.1-0.1-0.1C101.4,12.7,101.3,12.6,101.4,12.5
			L101.4,12.5z M101.7,17.2l-0.1,0.2c0,0,0-0.1,0-0.1L101.7,17.2z M101.1,15L101.1,15z M105,15c2,0,2.9-0.2,4.4-0.2h0.9
			c1.1,1,2.2,2.5,3.5,3.6l-0.1-0.1c0,0-0.1,0,0,0.1c0.2,0.1,0.4,0.3,0.6,0.5l0.1,0.1l0.4,0.4c1.2,1.7,1.1,4.4,1.1,6.3
			c-0.1,2.2-0.8,4.3-2,6.1c-0.5,0.5-0.9,1.1-1.3,1.6c-1,0.6-2.2,1.1-3.4,1.2c-1.6,0.2-4.1-0.9-5.7-2.2c-0.6-0.8-1.3-1.6-2-2.3
			c-0.9-1.3-1.4-2.9-1.5-4.5c0-1.8,0.3-3.6,0.9-5.3C102.4,18.8,104,17,105,15L105,15z M100.7,13.6L100.7,13.6L100.7,13.6
			C100.7,13.7,100.7,13.6,100.7,13.6L100.7,13.6z M99.4,4.5c2.8,1.7-0.3,5.1-2.4,5.8C94.7,11,89.2,8.6,89.2,6
			C90.2,2.7,97.2,3.2,99.4,4.5z M90.2,12.8c0.2,0,0,0,0.2,0.1c0.2,0.1,0,0,0.1,0.1c0.1,0.1,0.2,0.2,0.2,0.2c0,0,0.1,0.1,0.1,0.2
			c0,0,0.2,0.3,0.1,0.2c0,0,0,0.1,0,0.1h-0.1c-0.3,0-0.7-0.1-0.9-0.3c-0.1-0.1-0.1-0.3-0.1-0.5c0,0,0-0.1,0.1-0.1h0.1
			C90.2,12.8,90.4,12.8,90.2,12.8z M90.1,12.8L90.1,12.8z M88.7,15.3l-0.1,0.1c-0.1,0.1-0.1,0.3-0.1,0.4L88,15.4L88.7,15.3z
			 M86.9,2.3c0.3,0.1,0.4,0.2,0.3,0.5c-0.1,0.2-0.3,0.3-0.5,0.3c-0.2,0-0.4-0.2-0.4-0.4C86.3,2.4,86.6,2.3,86.9,2.3z M86,3.7L86,3.7
			L86,3.7L86,3.7z M83.4,3.7L83.4,3.7L83.4,3.7L83.4,3.7L83.4,3.7l0.2,0.1l0.1,0.1l0,0l0,0.1c0.1,0.1,0.1,0.2,0.2,0.4
			c0.1,0.1,0.1,0.2,0.1,0.3v0.2v0.1l0,0c0,0,0,0.1,0,0.1H84c-0.3,0-0.6-0.2-0.8-0.5C83.2,4.2,83.3,3.9,83.4,3.7L83.4,3.7z M83.3,3.7
			L83.3,3.7z M83.6,8c0.9-0.2,1.9-0.2,2.7,0.2c1,0.4,1.6,1.5,1.2,2.5c-0.2,0.4-0.5,0.8-0.9,1c-1.2,0.7-2.9-0.2-3.6-1.2
			C82.1,9.5,82.9,8.8,83.6,8z M83.6,14.5L83.6,14.5L83.6,14.5z M87.3,15.8c1.5,2,3.3,3.8,5.4,5.3c0.7,1.7,1,3.4,1,5.2
			c0,0.8-0.1,1.6-0.5,2.4c-1.1,1.3-2.1,2.7-3.1,4c-0.7,0.9-1.6,1.7-2.5,2.3c-1.5,0.9-3.2,0-4.6-0.7c-0.4-0.6-0.8-1.2-1.3-1.8
			c-0.6-1.3-1.4-2.6-1.9-4c-1.1-2.6-1.3-5.6-0.6-8.3c1.1-1.4,2.1-2.8,2.8-4.4C83.7,15.7,85.5,15.8,87.3,15.8L87.3,15.8z M79,15.6
			h1.3c-0.2,0.2-0.4,0.4-0.5,0.6C79.6,16,79.3,15.8,79,15.6L79,15.6z M80.9,12.7C80.9,12.8,80.9,12.8,80.9,12.7L80.9,12.7l-0.2-0.1
			L80.9,12.7z M80.1,2.6C80.2,2.6,80.2,2.5,80.1,2.6L80.1,2.6L80.1,2.6l0.2,0c0.1,0.1,0.2,0.3,0.3,0.5c0.1,0.1,0.1,0.2,0.1,0.4l0,0
			c-0.3,0-0.6-0.1-0.8-0.3c0-0.1-0.1-0.2-0.1-0.3C79.9,2.8,80.1,2.6,80.1,2.6z M80.7,13.6c0.4,0.4-0.3,0.8-0.7,0.8
			c-0.4,0-0.8-0.2-1.2-0.5c-0.2-0.2-0.3-0.3-0.3-0.5c0.1-0.2,0.4-0.3,0.6-0.3C79.7,13,80.3,13.3,80.7,13.6z M76.8,4.5
			c2.8,0.6,2.1,4,0.9,5.5c-1,1.2-2.4,2-4,2.1c-1.9,0.2-3.4-1.4-4.4-2.8c-0.9-1.2-0.9-2.5-1.1-4c0,0,0-0.1,0-0.1
			C69.3,4.4,76,4.4,76.8,4.5z M66.8,6.7C66.8,6.7,66.8,6.8,66.8,6.7L66.8,6.7l-0.2-0.1L66.8,6.7L66.8,6.7z M65.9,2.4L65.9,2.4
			c0.1,0,0.2,0,0.3,0c0.2,0.1,0.3,0.1,0.4,0.3l0,0l0,0c-0.2,0.2-0.6,0.2-0.8,0V2.5C65.8,2.5,65.9,2.4,65.9,2.4z M62.2,2.6
			c0.1-0.1,0.3-0.2,0.4-0.3c0.1,0,0.2,0,0.3,0l0,0C63,2.4,63,2.5,63,2.6v0.1C62.8,2.8,62.4,2.8,62.2,2.6L62.2,2.6L62.2,2.6z
			 M62.1,6.7V6.6h0.1L62.1,6.7L62.1,6.7C62,6.8,62,6.7,62.1,6.7L62.1,6.7z M63.5,7.5c0.3-0.1,0.6-0.2,0.9-0.4
			c0.3,0.1,0.6,0.2,0.9,0.4c0.8,0.3,1.4,1,1.6,1.8c0,0.8-0.4,1.6-1,2c-0.2,0.2-0.5,0.5-0.7,0.5h-0.1c-0.2,0-0.3,0-0.5,0h-0.3
			c-0.2,0-0.3,0-0.5,0h-0.1c-0.3,0-0.5-0.3-0.7-0.5c-0.6-0.4-1-1.2-1-1.9C62.1,8.5,62.7,7.8,63.5,7.5L63.5,7.5z M67.5,15.8
			c-0.1,0.2-0.2,0.5-0.2,0.7L67,16.2c0-0.2-0.1-0.3-0.2-0.5L67.5,15.8z M62,15.8c-0.1,0.1-0.2,0.3-0.2,0.5l-0.3,0.3
			c0-0.2-0.1-0.5-0.2-0.7L62,15.8z M62.8,16.2c0.5-0.2,1.1-0.4,1.6-0.5c0.5,0.1,1.1,0.3,1.6,0.5c1.1,1.3,2.4,2.5,3.4,3.6
			c0.6,0.7,1.3,1.4,1.9,2c1.1,1.7,1.7,3.7,1.9,5.7c-0.1,1.8-0.6,3.4-1.6,4.9c-0.6,0.7-1.2,1.3-2,1.8c-1.7,1.1-3.4,1.1-5.3,1.1
			c-1.8,0-3.5,0-5.3-1.1c-0.8-0.5-1.4-1.1-2-1.8c-0.9-1.5-1.5-3.2-1.6-4.9c0.2-2,0.8-4,1.9-5.7c0.7-0.6,1.3-1.3,1.9-2
			C60.4,18.6,61.7,17.4,62.8,16.2L62.8,16.2z M52,4.5c0.9-0.2,7.5-0.1,8.7,0.8c0,0,0,0.1,0,0.1c-0.2,1.4-0.2,2.7-1.1,4
			c-1,1.4-2.5,3-4.4,2.8c-1.6-0.1-3-0.9-4-2.1C49.9,8.4,49.2,5.1,52,4.5z M50.4,13.4c-0.1,0.2-0.2,0.4-0.3,0.5
			c-0.3,0.3-0.7,0.4-1.2,0.5c-0.4,0-1.2-0.4-0.7-0.8c0.4-0.4,1-0.6,1.6-0.6C50,13.1,50.2,13.2,50.4,13.4z M49.8,15.6
			c-0.3,0.2-0.6,0.4-0.8,0.6c-0.2-0.2-0.3-0.4-0.5-0.6L49.8,15.6z M48.2,3.1c0.1-0.2,0.1-0.3,0.3-0.5l0.1-0.1l0,0l0,0
			c0,0,0,0.1,0.1,0.1c0,0,0.2,0.2,0.3,0.3c0,0.1,0,0.2,0,0.3c-0.2,0.2-0.5,0.3-0.8,0.3l0,0C48.2,3.3,48.2,3.2,48.2,3.1z M47.9,12.8
			C47.9,12.8,47.9,12.8,47.9,12.8l0.2-0.1L47.9,12.8L47.9,12.8z M49.8,19.8c0.7,3,0.4,5.9-0.6,8.5c-0.5,1.3-1.3,2.7-1.9,4.1
			c-0.5,0.6-0.9,1.2-1.3,1.8c-1.4,0.7-3.1,1.6-4.6,0.7c-1-0.6-1.9-1.4-2.5-2.3c-1.1-1.3-2-2.7-3.1-4c-0.3-0.8-0.5-1.6-0.5-2.4
			c0-1.8,0.3-3.6,1-5.3c2.1-1.5,3.9-3.3,5.4-5.5c1.8,0.1,3.6-0.1,5.4,0C47.7,17,48.7,18.8,49.8,19.8L49.8,19.8z M37.9,13.3
			c0-0.1,0.1-0.1,0.1-0.2c0.1-0.1,0.2-0.2,0.2-0.2c0.1-0.1,0,0,0.1-0.1c0.1-0.1,0,0,0.2-0.1c-0.2,0,0,0,0.1,0h0.1c0,0,0.1,0,0.1,0.1
			c0,0.2-0.1,0.3-0.1,0.5c-0.2,0.2-0.6,0.3-0.9,0.3h-0.1c0,0,0-0.1,0-0.1S37.9,13.4,37.9,13.3z M38.7,12.8L38.7,12.8z M45.2,14.5
			L45.2,14.5L45.2,14.5z M45.5,3.7L45.5,3.7z M44.5,5L44.5,5L44.5,5V4.8c0-0.1,0.1-0.2,0.1-0.3c0.1-0.1,0.1-0.2,0.2-0.4l0-0.1l0,0
			L45,3.9l0.1-0.1l0,0l0,0h0.1l0,0c0.1,0.3,0.1,0.6,0,0.9c-0.1,0.3-0.4,0.5-0.8,0.5h0.1C44.6,5.2,44.6,5,44.5,5L44.5,5z M42.9,3.6
			L42.9,3.6L42.9,3.6L42.9,3.6z M41.9,2.3c0.3-0.1,0.5,0.1,0.6,0.4c-0.1,0.2-0.3,0.4-0.4,0.4c-0.2,0-0.4-0.1-0.5-0.3
			C41.6,2.6,41.7,2.4,41.9,2.3z M42.5,7.8c0.9,0,1.8-0.2,2.7,0c0.7,0.8,1.5,1.6,0.6,2.7c-0.7,1-2.4,2-3.6,1.2
			c-1-0.5-1.3-1.9-0.8-2.9C41.7,8.5,42,8.8,42.5,7.8L42.5,7.8z M40.9,15.4l-0.5,0.5c0-0.1,0-0.3-0.1-0.4l-0.1-0.1L40.9,15.4z
			 M29.5,4.5c2.1-1.4,9.1-1.8,10.1,1.5c0.1,2.6-5.4,4.9-7.7,4.3C29.8,9.6,26.6,6.3,29.5,4.5z M28.1,13.6c0,0,0,0.1,0,0.1H28
			L28.1,13.6z M27.7,15L27.7,15z M27.5,12.4c0,0.1,0,0.3-0.1,0.4c-0.2,0.4-0.7,0.5-1.1,0.2c0,0-0.1-0.1-0.1-0.1
			c-0.2-0.3-0.1-0.6,0.2-0.8c0.1,0,0.2-0.1,0.2-0.1C26.9,12.1,27.2,12.2,27.5,12.4L27.5,12.4z M27.3,17.3l-0.1-0.2h0.1
			C27.3,17.2,27.3,17.3,27.3,17.3L27.3,17.3z M25.9,2.3c0.3,0,0.5,0.2,0.6,0.4c0,0.2-0.1,0.3-0.2,0.4c-0.2,0.2-0.6,0.1-0.8-0.1
			c0,0,0,0,0-0.1C25.5,2.7,25.6,2.2,25.9,2.3z M26.6,15L26.6,15c-0.3,0.1-0.6,0.3-0.8,0.5c-0.2-0.2-0.3-0.4-0.5-0.5L26.6,15z
			 M24.9,5.2L24.9,5.2z M22.3,3.7c0.3-0.1,0.7-0.1,1,0.2c-0.1,0.4-0.6,0.8-1,0.3C22.1,4,22,3.8,22.3,3.7z M23,7.9
			c1,0.1,0.4,0,0.4-0.1l0.3,0.3c0.5,0.5,0.5,1.3,0,1.8c0,0,0,0.1-0.1,0.1c-0.7,0.8-1.7,1.3-2.8,1.4c-1.3-0.1-2.8-1.6-1.8-2.8
			C20,7.3,21.7,6.9,23,7.9C23.1,7.9,23,7.9,23,7.9L23,7.9z M23.7,13.6h-0.1H23.7L23.7,13.6z M21,5L21,5L21,5L21,5z M18.7,2.6
			C18.7,2.6,18.8,2.5,18.7,2.6c0.2-0.2,0.4-0.3,0.5-0.4c0.1,0,0.2-0.1,0.3-0.1c0,0,0.1,0,0,0c-0.1,0,0,0,0,0
			c0.1,0.1,0.1,0.2,0.2,0.3c-0.1,0.4-0.7,0.5-1.1,0.2L18.7,2.6z M18.2,14.8c-0.3,0.2-0.5,0.4-0.8,0.6c0-0.3-0.2-0.5-0.4-0.7
			L18.2,14.8z M19,14.8h0.4c1.5,0,3,0.1,4.5,0.1c1.2,2,2.6,3.8,4.2,5.4c0.6,1.7,0.9,3.6,0.9,5.4c-0.1,1.6-0.6,3.2-1.5,4.6
			c-0.7,0.7-1.4,1.5-2,2.3c-1.7,1.3-4.1,2.4-5.7,2.2c-1.2-0.2-2.4-0.6-3.4-1.2c-0.4-0.5-0.8-1.1-1.3-1.6c-1.2-1.8-1.9-4-1.9-6.2
			c0-2-0.1-4.6,1.1-6.3l0.4-0.4l0-0.1c0.2-0.2,0.5-0.4,0.5-0.5c0,0,0-0.1,0-0.1l0.2,0.1C16.4,17.3,18,16.1,19,14.8L19,14.8z
			 M13.4,12.1L13.4,12.1z M16.3,12.1L16.3,12.1c0,0.2-0.1,0.3-0.3,0.4c-0.3,0.2-0.5,0.1-0.6-0.2c-0.1-0.2,0.1-0.5,0.3-0.6
			c0,0,0.1,0,0.1,0C16.1,11.7,16.1,11.9,16.3,12.1z M0.4,3.8c0.1,0,0.2-0.1,0.2-0.1c0.1,0,0.1,0,0.2,0c0,0,0.1,0,0.1,0
			c0.1,0,0.2,0.1,0.2,0.1c0.1,0.3,0.2,0.6,0,0.8C1.1,4.7,0.9,4.7,0.8,4.7c-0.1,0-0.3-0.1-0.4-0.1C0.1,4.4,0.2,4.1,0.4,3.8z M0.8,5.7
			L0.8,5.7L0.8,5.7L0.8,5.7z M0.2,11.1L0.2,11.1L0.2,11.1L0.2,11.1z M1.4,11.3c0,0,0,0.1,0,0.1l-0.1,0.1c-0.1,0.1-0.1,0.2-0.2,0.3
			L1,12.1l-0.2,0.1h0h0l-0.2-0.1l-0.1-0.1c-0.1-0.1-0.1-0.2-0.2-0.3l-0.1-0.1c0,0,0-0.1,0-0.1c0-0.1,0-0.1,0-0.2l0,0
			c0.3-0.3,0,0,0.2-0.2l0.2-0.2c0.1,0,0.1,0,0.2-0.1c0.1,0,0.1,0,0.2,0.1L1.3,11c0.2,0.2-0.1-0.1,0.2,0.2l0,0
			C1.4,11.3,1.4,11.3,1.4,11.3L1.4,11.3z M1,11.2L1,11.2L1,11.2z M3.2,14.3c-0.2,0.1-0.3,0.2-0.4,0.4c-0.1-0.1-0.3-0.2-0.4-0.3
			l1-0.1L3.2,14.3z M3.9,3.5c-0.2,0-0.3,0-0.4-0.2C3.4,3.1,3.6,3.1,3.8,3.1c0.2,0,0.3,0.1,0.4,0.1C4.1,3.3,4,3.4,3.9,3.5z M4.4,12.9
			L4.4,12.9L4.4,12.9L4.4,12.9z M5.4,4.8c2.2-1,8.1-2,10.5-0.1c0.9,1.6-1.8,3.8-2.9,4.3c-1,0.5-2,1-3.2,1.2c-1.3,0.2-3-0.1-4-1.2
			S3.7,5.8,5.4,4.8L5.4,4.8z M6.4,18.9c-0.8-1.2-0.5-2.7,0.7-3.5c0.2-0.1,0.5-0.3,0.7-0.3c1.4-0.3,2.8-0.2,4.1,0.3
			c1,1.3,1.3,3.1,0,4.1c-1.4,1-3.2,1.1-4.7,0.2C6.9,19.5,6.7,19.2,6.4,18.9L6.4,18.9z M10.3,25.8c-0.5,1-1,0.3-1.4,0.1
			c-0.2-0.1-0.3-0.2-0.2-0.4c0-0.7,0.4-1.3,0.9-1.7c0.6-0.4,1.1-0.3,1.5,0.2C11.2,24.8,10.9,25.8,10.3,25.8L10.3,25.8z M7.9,21.6
			L7.9,21.6L7.9,21.6L7.9,21.6L7.9,21.6z M2.6,43.6c-0.1-0.2-0.2-0.5-0.3-0.7c-0.4-1-0.5-2.1-0.4-3.3c0-0.1,0.1-0.3,0.1-0.4
			c0,0,0,0,0-0.1c0-2.8,2.4-8,5.7-9.2l0.2-0.1c2-0.4,3.8,0.8,5.5,2.3c0.5,0.7,1.2,1.3,1.8,1.9l0.6,0.7c1,3.6,0.9,7.4-0.4,11
			c-2.1,2.7-4.6,5.4-7.7,4.2c-0.6-0.3-1.2-0.6-1.8-1C4.7,47.3,3.6,45.5,2.6,43.6z M9.6,51.8l0.1,0.4c0.1,0.1,0.2,0.3,0.3,0.3
			c0,0.1,0.1,0.3,0,0.5c-0.1,0.4-0.3,0.8-0.6,1c-0.4,0.3-1,0.3-1.5,0.1c-0.2-0.1-0.3-0.2-0.5-0.3c0-0.1,0-0.1,0-0.2
			c0-0.3,0.1-0.5,0.3-0.7c0.2-0.2,0.5-0.4,0.8-0.6c0.3-0.1,0.5-0.1,0.8-0.1c0.1,0,0.1-0.2,0.2-0.2l0,0C9.5,52.1,9.5,51.8,9.6,51.8
			L9.6,51.8z M7.1,51.8L7,51.9v-0.2L7.1,51.8C7.2,51.7,7.1,51.8,7.1,51.8L7.1,51.8z M2.1,67C2,64,2.7,61.1,4,58.4
			c1-1,2.2-1.8,3.6-2.1c2.7-0.4,4.8,2.3,6.9,4.4c1,2.9,0.9,6-0.1,8.8c-1,1-1.8,2.2-2.4,3.4c-0.5,0.5-1.1,0.9-1.8,1.2
			c-1.4,0.8-3,0.8-4.4,0.2C4,72.1,2.2,70.2,2.1,67z M7.2,77.4c0.3-0.2,0.6-0.4,0.9-0.5c0.3-0.1,0.5,0,0.7,0.2
			C8.9,77.2,9,77.4,9,77.6c0,0,0,0.1,0,0.1c0,0.4-0.2,0.8-0.6,1.1c-0.4,0.3-0.9,0.3-1.2,0c-0.2-0.1-0.3-0.2-0.4-0.4
			c-0.1-0.1-0.1-0.2-0.1-0.3C6.8,77.8,6.9,77.5,7.2,77.4z M6.7,76.4c0,0,0.1-0.1,0.1-0.1c0,0,0.1,0,0.1,0H7L6.7,76.4z M6.7,76.4
			l-0.1,0.1l0,0C6.6,76.4,6.7,76.4,6.7,76.4L6.7,76.4z M5.5,80.3L5.5,80.3L5.5,80.3z M2,94.5l0-0.3v-7.4v-0.1c0-0.1,0-0.5,0-0.5l0,0
			l0,0v-0.3c2-2.8,5.2-6.2,7.7-3.3c2,2.3,4,4.8,4.3,7.8c-0.1,0.2,0,0.4,0,0.5c0,0.1,0,0.2,0,0.3c0,1.1-0.6,2.1-0.8,3.2
			c-0.7,4.2-3.4,3-6.2,2.6c-1-0.1-2,0.6-3.1,0.8C3.5,96.5,2.9,95.4,2,94.5z M1.8,109c0.2-0.3,0.4-0.5,0.6-0.7
			c0.3-0.1,0.5-0.3,0.8-0.4c0.4-0.2,0.9-0.3,1.4-0.3c0.2,0.2,0.5,0.5,0.6,0.7c0,1.6-2.2,4.2-3.2,3.1v-2.1C2,109.3,1.8,109.1,1.8,109
			z M4.5,105.6l0.4-0.3c0,0.2,0,0.3,0,0.5L4.5,105.6z M3.4,117.1C3.4,117.1,3.4,117.1,3.4,117.1L3.4,117.1L3.4,117.1z M3,115.1
			c-1-0.5-0.1-1.2,0.4-1.5c0.6-0.3,1.2-0.2,1.7,0.2c0.1,0.3,0,0.6-0.1,0.9c-0.4,0.7-1.2,0.9-1.9,0.5C3,115.2,3,115.1,3,115.1
			L3,115.1z M5,119.1c-0.4-0.1-0.8-0.3-1.2-0.6c-0.1-0.2-0.2-0.3-0.2-0.4c0-0.1,0.7-0.5,1-0.4c0.2,0,0.4,0.1,0.6,0.2
			C5.6,118.5,6,119.4,5,119.1z M4.5,103.8c0.1-0.7,0.1-1.3,0.1-2c0.4,0.4,0.8,0.7,1.3,0.8C5.5,103,5,103.4,4.5,103.8z M5.9,110
			L5.9,110L5.9,110L5.9,110z M4.7,152.8L4.7,152.8L4.7,152.8L4.7,152.8z M6.4,152.1c-0.2,0.3-0.5,0.5-0.8,0.4
			c-0.3-0.1-0.7-0.2-0.4-0.5c0.3-0.3,0.6-0.5,1-0.6c0.1,0,0.2,0,0.3,0.1C6.5,151.7,6.5,151.9,6.4,152.1L6.4,152.1z M7,149.1
			c-0.1,0.2-0.2,0.3-0.4,0.4H5.8c-0.2-0.1-0.2-0.2-0.2-0.4c0,0,0,0,0,0c0.2-0.3,0.5-0.6,0.9-0.7c0.3-0.1,0.4,0.2,0.6,0.5
			C7.1,148.9,7,149,7,149.1L7,149.1z M11.2,147.4c0,0.3-0.2,0.6-0.5,0.7c-0.3,0.1-1.2-0.1-1.1-0.5c0.1-0.4,0.4-0.7,0.8-0.8
			c0.3-0.1,0.6,0,0.8,0.3C11.3,147.2,11.3,147.3,11.2,147.4L11.2,147.4z M9.9,143.8c-1.6-1-2.9-1.4-3.6-2.8
			c-1.3-2.4-1.1-5.5,0.6-7.7c1.7-2.3,3.7-4.4,7-3.4c2,0.6,5.8,1.7,4,4.7c-1.3,2-3.2,3.6-4.7,5.3C12.1,141.2,11.1,141.8,9.9,143.8
			L9.9,143.8z M14.7,143.7c-0.3,0.2-0.6,0.3-0.9,0.4c-0.2,0-0.6-0.1-0.7-0.2l0,0c0-0.1,0-0.1,0.1-0.2c0.3-0.3,0.7-0.5,1.1-0.6
			c0.2,0,0.4,0,0.6,0.1c0.1,0,0.1,0.1,0.1,0.1C15,143.5,14.8,143.6,14.7,143.7L14.7,143.7z M15.2,152.7L15.2,152.7L15.2,152.7
			L15.2,152.7z M15.6,145.4c0.5-1.3,3.7-4.2,4.8-2.1c0.5,1.5,0.6,3,0.3,4.6c-0.2,0.3-0.5,0.6-0.8,0.9
			C18.3,149.9,14.9,147.1,15.6,145.4L15.6,145.4z M18.9,164.2L18.9,164.2C18.9,164.2,18.9,164.2,18.9,164.2L18.9,164.2z M18.6,160.2
			c-0.3,0.3-1.2,0.3-1.4-0.2c-0.1-0.5,0.3-0.8,0.6-1c0.2-0.1,0.4-0.1,0.6,0c0,0,0,0.1,0.1,0.1l0,0c0.1,0,0.2,0.1,0.2,0.2
			c0,0,0,0.1,0,0.1c0,0,0,0.1,0,0.1c0,0.1,0,0.1,0,0.2C18.7,159.8,18.6,160,18.6,160.2L18.6,160.2z M18.6,160.9l-0.1,0.1h-0.1l0,0
			L18.6,160.9z M17,152.9c0-0.1,0.1-0.2,0.1-0.2c0.1-0.2,0.3-0.3,0.5-0.4l0,0c0.1,0.1,0.1,0.2,0.2,0.4c-0.1,0.1-0.2,0.1-0.3,0.2
			C17.4,152.9,17.2,152.9,17,152.9L17,152.9z M15.3,163.8c-0.2,0-0.4,0.1-0.3-0.1c0.2-0.5,0.6-0.7,1.1-0.8c0.4-0.1,0.9,0.2,1.1,0.6
			c0,0.1,0,0.2,0,0.3c-0.1,0.3-0.4,0.2-0.7,0.4C16,164.4,15.6,164.8,15.3,163.8L15.3,163.8z M18.6,169.4c-0.1,0-0.1,0.1-0.1,0.1l0,0
			L18.6,169.4L18.6,169.4z M19,167.1c0,0.4-0.3,0.8-0.7,1c-0.3,0.3-0.8,0.5-1.2,0.6c-0.1,0-0.6,0.1-0.7-0.1
			c-0.1-0.5,0.6-1.2,0.9-1.5c0.4-0.3,1-0.5,1.5-0.4C18.9,166.8,19,166.9,19,167.1L19,167.1z M19.2,160.1L19.2,160.1L19.2,160.1z
			 M21,169.3c-0.2,0.3-0.6,0.3-0.9,0.2l-0.2-0.1l0,0l0,0l0.1-0.1c0.3-0.2,0.6-0.3,1-0.3c0,0,0.1,0,0.1,0
			C21.2,169,21.1,169.2,21,169.3L21,169.3z M21,168.4L21,168.4z M24.1,167.6L24,168c-0.1,0.1-0.3,0.1-0.4,0.2
			c-0.4,0.1-0.9-0.1-1-0.6c-0.1-0.2,0-0.4,0-0.6c0.2-0.4,0.9-0.2,1.2,0C24,167.1,24.2,167.4,24.1,167.6L24.1,167.6z M27.1,163.9
			c-0.7,0.3-1.5,0.4-2.2,0.4c-1.4,0.1-2.8,0-4.2-0.4c-2.7-0.9,0.5-5.6,2.9-4.4c0.8,0.4,1.6,0.9,2.4,1.5l0,0l0,0
			C26.4,161.6,28.5,163.3,27.1,163.9L27.1,163.9z M29.1,160.6c-0.3,0.1-0.6,0.1-0.9,0c-0.1,0,0,0,0-0.1c0.1-0.4,0.4-0.6,0.7-0.8
			c0.1-0.1,0.2-0.1,0.4,0l0.2,0.2C29.6,160.2,29.5,160.5,29.1,160.6L29.1,160.6z M33.6,165.1c-0.2,0.1-0.5,0.1-0.7,0l-0.1-0.8
			c0.1-0.1,0.3-0.2,0.5-0.3c0.3-0.1,0.5,0.1,0.7,0.4l0,0C34,164.6,33.9,164.9,33.6,165.1L33.6,165.1z M34.5,167.6L34.5,167.6
			L34.5,167.6L34.5,167.6z M30.9,157.3c-0.9-0.7-1.8-1.3-2.7-1.8c-1.5-0.7-4.5-2-2.8-4.2c0.3-0.4,0.6-0.8,0.8-1.2
			c0.9-1.6-0.4-4.5-0.4-6.2c0-1.2,0.1-2.3,0.4-3.4c0.3-1.2,1.6-1.3,1.8,0c0.2,1.5,1,2.9,2.2,3.8c1.1,0.8,2.4,1.4,3.7,1.5
			c0.9,0,3-0.3,4.4,0c-0.2,2-3,5.5-3.5,6.4C34.4,153.3,32.6,158.3,30.9,157.3z M35.9,156.6l0.2-0.3l0,0
			C36,156.4,35.9,156.5,35.9,156.6L35.9,156.6z M37.5,168.5c-0.4,0.3-1.5,0.1-1.6-0.5c0,0,0-0.1,0-0.1l0.5-0.7
			c0.1-0.1,0.2-0.1,0.3-0.1c0.4-0.1,0.8,0,1,0.3c0,0.1,0.1,0.2,0.1,0.3C37.8,167.9,37.7,168.2,37.5,168.5L37.5,168.5z M39.3,165
			c-0.3,0.2-0.6,0.1-0.9-0.1c-0.1,0-0.1-0.1-0.2-0.2c0-0.1,0-0.1,0-0.1c0,0,0,0,0.1-0.1c0.1-0.1,0.1-0.1,0.1-0.1
			c0.3-0.2,0.6-0.2,0.9-0.2c0.1,0,0.1,0.1,0.2,0.2c0.1,0.2,0.1,0.2,0.1,0.3C39.5,164.9,39.4,164.9,39.3,165L39.3,165z M40,159
			c0,0.1-0.1,0.2-0.1,0.3c-0.3,0.6-0.5,1.1-0.8,1.7c-0.2,0.3-2.1,3.6-2.5,2.2c-0.2-1.1-0.2-2.2,0.1-3.3c0.1-0.6,0.2-1.3,0.4-1.9
			c0.5-1.3,1.6-1.2,2.5-0.4c0,0.1,0,0.1,0.1,0.2c0.1,0.2,0.2,0.4,0.4,0.4c0,0.1,0,0.1,0,0.2C40.1,158.5,40.1,158.7,40,159L40,159z
			 M38.5,154.8c0-0.1,0.1-0.1,0.1-0.2c0.1-0.2,0.3-0.3,0.5-0.4l0.1-0.1l0,0l0,0v0.1c0,0.2,0.1,0.3,0.1,0.5c-0.1,0-0.1,0.1-0.2,0.1
			C38.9,154.9,38.7,154.8,38.5,154.8L38.5,154.8z M39.8,153.1L39.8,153.1L39.8,153.1L39.8,153.1z M39.9,147.5l0.1-0.1l0,0
			L39.9,147.5z M36.6,140.3c-0.5-1.1-0.6-2.3-0.6-3.6c0-0.4,0-0.8,0-1.2c2-1.4,3.3-1.3,4.2,0.3c0.2,0.4-0.2,0.8,0.8,1.1
			c0,0.5,0,1.1,0,1.6s-0.4,1-0.4,1.5c-1.3,0.7-3.3,1.5-3.9,0.2L36.6,140.3z M41.5,174.9c-0.3,0.1-1,0.3-1.1-0.2
			c-0.1-0.5,0.2-1.2,0.8-0.9c0.4,0.1,0.7,0.6,0.6,1C41.7,174.8,41.6,174.8,41.5,174.9L41.5,174.9z M41.6,100.7L41.6,100.7
			c0.1,0,0.1,0.1,0.1,0.1L41.6,100.7z M41.1,98c-1.2,1-3.3-0.7-3.6-1.9c-0.3-1.2,0.3-2.4,1.4-3c0.3-0.1,0.6-0.1,0.9,0
			c0.7,0.5,1.4,1,2,1.6l0,0C41.8,95.7,42,97.2,41.1,98L41.1,98z M41.9,137.8c0-0.1,0-0.2,0-0.2l1.3,1.8l-0.4,0.2h-0.3
			c-0.4-0.4-0.6-1-0.6-1.6C41.9,138,41.9,137.9,41.9,137.8z M42.1,145.8L42.1,145.8L42.1,145.8z M42.2,144.8l-0.1-1
			c0-0.2-0.1-0.6-0.1-0.9c0-0.6,0.3-1.2,0.8-1.5c0.7-0.3,1.6-0.2,2.2,0.4l0.9,1.1c0.6,0.8,0.9,1.8,1.1,2.7c-0.3,0.2-0.6,0.3-0.9,0.4
			c0,0-0.1,0.5-0.1,0.5c-0.2-0.1-0.4,0.3-0.6,0.3c-0.4,0-0.9,0-1.3,0c0-1-0.1-0.5-0.1-0.5c-0.5-0.4-1.1-0.7-1.5-1.2
			C42.3,144.9,42.3,144.8,42.2,144.8L42.2,144.8z M43.7,150.8c0.5,0,1-0.4,1.5-0.3c0.3,0.1,0.5,0.2,0.7,0.5
			c-0.1,0.2-0.3,0.4-0.5,0.6c-0.3,0.3-0.8,0.4-1.2,0.3C44,151.7,43.3,151.8,43.7,150.8L43.7,150.8z M44.2,153.5l-0.1-0.1l0,0
			L44.2,153.5L44.2,153.5z M43.7,146.8L43.7,146.8z M44.4,147.4c0.4-0.2,0.9-0.1,1.3,0.1c0.3,0.2,0.1,0.7-0.1,1
			c-0.3,0.1-0.7,0.1-1,0C44.2,148.4,44,147.6,44.4,147.4L44.4,147.4z M42.4,155.1L42.4,155.1c0-0.1,0-0.1,0.1-0.2
			c0.3-0.3,0.6-0.5,1-0.6c0.1,0,0.3,0,0.2,0c0.1,0,0,0,0.1,0.1c0.1,0.2,0.2,0.4,0.2,0.6l0,0c-0.2,0.4-0.6,0.4-1,0.3
			c-0.2,0-0.3-0.1-0.5-0.1C42.6,155.1,42.5,155.1,42.4,155.1L42.4,155.1z M46.4,174.8c-0.2,0.5-0.5,1-0.9,1.3
			c-0.4,0.4-0.9,0.5-1.4,0.3c-0.2-0.1-0.5-0.3-0.4-0.5c0.2-0.8,0.7-1.4,1.4-1.8c0.5-0.3,0.8-0.3,1.2-0.1l0.2,0.4
			C46.5,174.6,46.5,174.7,46.4,174.8L46.4,174.8z M52.1,173.7c-0.2,0.4-0.6,0.6-1,0.5c-0.3-0.1-0.7-0.2-0.8-0.4c0,0,0-0.1,0.1-0.3
			c0.4-0.4,0.9-0.6,1.4-0.7c0.1,0,0.2,0,0.3,0C52.2,173.1,52.3,173.4,52.1,173.7L52.1,173.7z M51.5,168.4c0.2,0,0.2,0,0.2,0.2
			c0,0.5-0.4,1-1,0.7c-0.2-0.1-0.4-0.3-0.4-0.3s0-0.1,0.2-0.2C50.7,168.4,51.1,168.3,51.5,168.4z M51.2,167.5L51.2,167.5z
			 M52.3,169.1L52.3,169.1z M50.7,160.5c-0.5,1-0.9,2.1-1.3,3.2c-0.2,0.5-0.4,1-0.7,1.5l0,0l0,0c-0.2,0.4-0.4,0.7-0.5,1.1
			c-3,2.3-4.7,1.3-5.2-3c0.9-3.1,2.2-6.1,3.8-8.8c0.8-1.4,1.4-2.8,2.2-4.2c0.2-0.7,1-1.1,1.7-0.8c0,0,0,0,0.1,0
			C53.6,153.3,52.7,156.1,50.7,160.5z M52.6,97.9c-0.2,0.7-0.5,1.3-1.1,1.8c-0.5,0.5-1.2,0.8-1.9,0.6c-0.4-0.1-1.1-0.4-1.1-1
			c0-1.5,2.5-3.3,4-2.7C52.7,97,52.7,97.5,52.6,97.9L52.6,97.9z M53,104.9c0-0.1,0-0.1,0-0.2c1,0.8,0.8,1.7,1.2,2.4
			c-0.4,0.1-0.7,0.2-1,0.4C53.2,106.7,53,105.8,53,104.9L53,104.9z M53.3,113.4c0.4,0.4,0.8,0.7,1.4,0.8l0,0l-1.4,1.2
			C53.3,114.7,53.3,114.1,53.3,113.4L53.3,113.4z M53,141.9c0-0.2,0.2-0.4,0.2-0.6l1.8,1.6c-0.6,0.4-1.3,0.8-1.9,1.2
			C53.1,143.4,53,142.7,53,141.9L53,141.9z M54,146.5c0-1.2,1.6-2.2,3-1.3c1.6,1,1.4,2.9,1.7,4.5c0,0.1-0.1,0.2-0.1,0.3
			c-0.6,1.9-2.6,1.1-3.7-0.1C53.8,149.1,53,147.7,54,146.5L54,146.5z M56.8,155.5c-0.4,0.4-1.1,0.4-1.5,0c-0.1-0.1-0.2-0.2-0.2-0.4
			c0-0.1-0.1-0.1,0-0.2c0-0.1,0.1-0.2,0.1-0.4c0.2-0.3,0.4-0.5,0.7-0.6c0.2,0,0.4,0,0.7,0l0.7,0.5c0,0,0,0.1,0,0.1
			C57.1,154.9,57,155.2,56.8,155.5L56.8,155.5z M56.9,161.5l-0.1,0.1c-0.2,0.3-0.6,0.4-0.9,0.3c-0.3-0.1-0.5-0.3-0.3-0.5
			c0.2-0.3,0.5-0.5,0.8-0.5c0.2,0,0.1,0,0.2,0.1c0.1,0.1,0.1,0.3,0.1,0.5C56.8,161.5,56.9,161.5,56.9,161.5L56.9,161.5z M55.3,164.5
			L55.3,164.5l-0.1,0L55.3,164.5z M55.2,174.4c-0.3-0.1-0.5-0.4-0.5-0.7c0-0.1-0.1-0.4,0-0.5c0.2-0.2,0.5-0.2,0.8,0
			c0.2,0.2,0.4,0.5,0.4,0.9C55.7,174.3,55.5,174.4,55.2,174.4L55.2,174.4z M59,179L59,179L59,179L59,179z M55.6,169.7
			c-0.7-1.1-0.8-2.5-0.1-3.6c0.8-1.5,2.4-2.1,3.4-0.4c0.2,0.3,0.3,0.5,0.4,0.8c0-0.1,0.4,1.7,0.5,2.4c0.2,0.9,0.4,1.8,0.4,2.7
			C60.1,175,56.3,170.9,55.6,169.7L55.6,169.7z M60.5,162.3c-0.4,0.1-0.8-0.1-1-0.4c-0.1-0.1-0.1-0.2-0.2-0.3c0,0,0-0.1,0-0.1
			s0,0,0,0c0,0,0.1-0.1,0.1-0.1c0.3-0.1,0.7,0,1,0.2c0.2,0.1,0.3,0.3,0.2,0.6c0,0.1-0.1,0.2-0.2,0.2L60.5,162.3z M60.9,180.1
			C60.9,180.1,60.9,180.1,60.9,180.1c0.1-0.1,0.2-0.1,0.3-0.1c0.3-0.1,0.6-0.1,0.8,0.1c0.1,0.1,0.1,0.2,0.1,0.3
			c-0.2,0.2-0.4,0.2-0.6,0.2C61.3,180.6,61,180.4,60.9,180.1C60.9,180.1,60.9,180.1,60.9,180.1z M61.5,184.8
			c-0.2-0.1-0.4-0.3-0.5-0.6v-0.3c0-0.1,0-0.1,0.1-0.2c0.3-0.3,0.8-0.3,1.1,0.1c0,0,0,0,0.1,0.1C62.3,184.3,61.9,185,61.5,184.8
			L61.5,184.8z M62.9,192.1L62.9,192.1L62.9,192.1z M63.1,191.3c-0.1,0.1-0.2,0.1-0.3,0.1c-0.2,0-0.4-0.1-0.5-0.2c0-0.1,0-0.3,0-0.4
			c0.2-0.3,0.5-0.6,0.8-0.7l0,0L63.1,191.3z M63.1,172.1c-0.1,0-0.1-0.1-0.2-0.1c-0.2-0.2-0.4-0.5-0.4-0.8c0-0.1,0.1-0.3,0.2-0.3
			c0.1-0.1,0.3-0.1,0.4-0.1L63.1,172.1z M65,184c0,1-0.2,2-0.5,2.9c0,0.1-0.1,0.3-0.1,0.4c-0.1-0.1-0.1-0.3-0.2-0.4
			c-0.4-0.9-0.5-1.9-0.6-2.9c-0.2-1.5,0-3,0.7-4.3C65,180.9,66,182.4,65,184L65,184z M64.4,178.4L64.4,178.4L64.4,178.4L64.4,178.4
			L64.4,178.4z M65.7,159.6c-0.2,1.9-0.4,3.8-0.5,5.8c0,0.7-0.2,1.4-0.7,1.8c-0.5-0.5-0.7-1.2-0.7-1.8c-0.1-2-0.3-3.8-0.5-5.8
			c-0.1-1-0.2-2-0.1-3c0-0.5,0.1-1.1,0.4-1.5l0,0c0.2,0.1,0.5,0,0.6-0.2l0.3-0.1l0.3,0.1c0.1,0.2,0.4,0.3,0.6,0.2l0,0
			c0.3,0.5,0.4,1,0.4,1.5C65.8,157.6,65.8,158.6,65.7,159.6L65.7,159.6z M65.9,192.1L65.9,192.1L65.9,192.1L65.9,192.1z M66.1,191.3
			c-0.1,0-0.2,0-0.3-0.1v-1.2l0,0c0.4,0.1,0.7,0.4,0.8,0.7c0,0.1,0,0.2,0,0.4C66.4,191.2,66.2,191.3,66.1,191.3L66.1,191.3z
			 M67.9,184.2c-0.1,0.3-0.3,0.5-0.5,0.6c-0.5,0.1-0.8-0.5-0.8-1c0.3-0.4,0.8-0.4,1.1-0.2c0,0,0,0,0.1,0.1c0,0,0.1,0.1,0.1,0.2
			L67.9,184.2z M68,180.1c-0.1,0.3-0.4,0.4-0.7,0.5c-0.2,0-0.4-0.1-0.6-0.2c0-0.1,0-0.2,0.1-0.3c0.3-0.2,0.6-0.2,0.8-0.1
			C67.7,179.9,67.8,179.9,68,180.1C67.9,180,67.9,180.1,68,180.1C67.9,179.9,68,180.1,68,180.1L68,180.1z M68.3,162.4
			c-0.1,0-0.2-0.1-0.2-0.1c0-0.2,0.1-0.4,0.2-0.6c0.3-0.2,0.7-0.3,1-0.2c0.1,0,0.1,0,0.1,0.1c0,0,0,0.1,0,0s0,0,0,0.1
			c0,0.1-0.1,0.2-0.2,0.3C69.1,162.3,68.6,162.5,68.3,162.4L68.3,162.4z M69.8,179L69.8,179L69.8,179L69.8,179z M68.6,171.7
			c0-0.9,0.1-1.8,0.4-2.7c0.2-0.7,0.7-2.7,0.6-2.6c0,0.1,0.2-0.4,0.3-0.7c1-1.7,2.6-1.1,3.4,0.4c0.7,1.1,0.6,2.5-0.1,3.6
			C72.6,170.9,68.8,175,68.6,171.7L68.6,171.7z M72,155.5c-0.2-0.3-0.3-0.6-0.3-1c0,0,0-0.1,0-0.1l0.7-0.5c0.2,0,0.4,0,0.7,0
			c0.3,0.1,0.5,0.3,0.7,0.6c0,0.1,0.1,0.2,0.1,0.4c0,0.1,0,0.1,0,0.2c-0.2,0.5-0.8,0.8-1.4,0.6C72.3,155.7,72.1,155.6,72,155.5z
			 M73.7,164.5L73.7,164.5l-0.1,0L73.7,164.5z M72.8,161.9c-0.3,0.1-0.7,0-0.9-0.3l-0.1-0.1c0.1,0,0.1,0,0.1-0.1
			c0-0.2,0-0.4,0.1-0.5c0.1-0.1,0-0.1,0.2-0.1c0.3,0.1,0.6,0.2,0.8,0.5C73.4,161.6,73.2,161.8,72.8,161.9L72.8,161.9z M74.2,173.8
			c0,0.3-0.3,0.6-0.5,0.7c-0.2,0-0.4,0-0.6-0.2c0-0.3,0.1-0.7,0.4-0.9c0.2-0.2,0.5-0.2,0.8,0C74.3,173.4,74.2,173.7,74.2,173.8
			L74.2,173.8z M74.2,150c-1.1,1.2-3.2,2-3.8,0.1c0-0.1-0.1-0.2-0.1-0.3c0.3-1.7,0.1-3.5,1.8-4.5c1.3-0.8,2.6,0.1,3.1,1.3
			C75.5,147.7,75.2,149.1,74.2,150L74.2,150z M74,143l1.8-1.6c0,0.2,0.2,0.4,0.2,0.6c0,0.7,0,1.5,0,2.2C75,143.8,74,143.4,74,143
			L74,143z M75.9,115.4l-1.5-1.2l0,0c0.5-0.1,1.1-0.4,1.5-0.8C75.8,114.1,75.9,114.7,75.9,115.4L75.9,115.4z M76,107.5
			c-1-0.2-0.7-0.3-1.1-0.4c0.3-0.7,0.1-1.6,1.1-2.4c0,0,0,0.1,0,0.2C76,105.8,76,106.7,76,107.5L76,107.5z M76,96.7
			c2-0.6,4.2,1.3,4.2,2.7c0,0.5-0.6,0.8-1,1c-0.7,0.2-1.4-0.1-1.9-0.6c-0.5-0.5-1-1.1-1.2-1.8C75.9,97.6,76,97.1,76,96.7L76,96.7z
			 M76.5,169.1L76.5,169.1z M78.6,173.8c-0.1,0.2-0.6,0.4-0.8,0.4c-0.4,0.1-0.8-0.1-1-0.5c-0.1-0.3,0-0.6,0.1-0.8c0.1,0,0.2,0,0.3,0
			c0.5,0,1,0.3,1.4,0.7C78.6,173.6,78.6,173.7,78.6,173.8L78.6,173.8z M78.4,168.7c0.1,0.1,0.1,0.2,0.2,0.2s-0.2,0.2-0.4,0.3
			c-0.6,0.4-1-0.2-1-0.7c0-0.1,0-0.1,0.2-0.2C77.7,168.4,78.1,168.5,78.4,168.7L78.4,168.7z M77.5,167.5L77.5,167.5z M85,176.4
			c-1,0.2-1.2,0-1.6-0.3c-0.4-0.4-0.8-0.8-1-1.3c0-0.1-0.1-0.2,0-0.3l0.2-0.4c0.3-0.2,0.6-0.2,1.2,0.1c0.7,0.4,1.3,1,1.6,1.8
			C85.3,176.2,85,176.4,85,176.4L85,176.4z M80.7,166.2c-0.2-0.3-0.4-0.7-0.5-1.1l0,0l0,0c-0.2-0.5-0.5-1-0.7-1.5
			c-0.4-1.1-0.9-2.1-1.3-3.2c-2-4.4-2.8-7.2,0.1-11.1c0.7-0.3,1.5,0,1.7,0.7c0,0,0,0,0,0.1c0.7,1.4,1.4,2.8,2.2,4.2
			c1.6,2.8,2.8,5.8,3.7,8.8C85.4,167.6,83.7,168.6,80.7,166.2L80.7,166.2z M83.6,150.4c0.5-0.1,1.1-0.1,1.5,0.2
			c0.5,0.3-0.2,1-0.6,1.1c-0.4,0.1-0.9,0-1.2-0.2c-0.2-0.2-0.4-0.4-0.5-0.6C83,150.7,83.3,150.5,83.6,150.4L83.6,150.4z M83.1,147.4
			c0.4-0.2,0.9-0.3,1.3-0.1c0.5,0.2,0.3,1-0.2,1.2c-0.3,0.1-0.7,0.1-1,0C83,148.1,82.7,147.6,83.1,147.4L83.1,147.4z M85.1,146.7
			L85.1,146.7z M84.7,153.3l-0.1,0.1v-0.1L84.7,153.3L84.7,153.3z M86.3,155c0,0-0.1,0.1-0.2,0.1c-0.2,0.1-0.3,0.1-0.5,0.1
			c-0.4,0.1-0.8,0.1-1-0.3l0,0c0-0.2,0.1-0.4,0.2-0.6c0.1-0.1,0-0.1,0.1-0.1c0,0,0.2,0,0.2,0c0.4,0.1,0.7,0.3,1,0.6
			C86.3,154.9,86.3,155,86.3,155C86.3,155,86.3,155,86.3,155L86.3,155z M86.7,145.7L86.7,145.7L86.7,145.7z M86.7,143.4l-0.1,0.7
			c0,0.1-0.1,0.2-0.1,0.4c-0.5,0.5-1,0.9-1.5,1.3c0,0-0.1,0.1-0.1,0.1c-0.4,0-0.9,0-1.3,0c-0.2,0-0.4,0.1-0.6,0.2
			c0,0-0.1-0.1-0.1-0.1c-0.3-0.1-0.6-0.2-0.9-0.4c0.1-1,0.4-1.9,1-2.8l0.9-1.1c0.6-0.6,1.4-0.7,2.2-0.4c0.5,0.3,0.8,0.8,0.8,1.4
			C86.8,142.9,86.7,143.2,86.7,143.4L86.7,143.4z M86.2,139.8h-0.3l-0.3-0.3l1.4-2c0,0.1,0,0.2,0,0.2s0,0.1,0,0.1
			C87,138.5,86.7,139.2,86.2,139.8L86.2,139.8z M87,94.5L87,94.5c0.6-0.6,1.3-1.1,2-1.6c0.3-0.1,0.6,0,0.9,0c1.1,0.5,1.7,1.8,1.4,3
			c-0.3,1.2-2.4,3-3.6,1.9C86.9,97.2,87.1,95.7,87,94.5L87,94.5z M87.1,100.6L87.1,100.6C87,100.6,87,100.5,87.1,100.6L87.1,100.6z
			 M88.4,174.5c-0.1,0.5-0.8,0.3-1.1,0.2c-0.1,0-0.2-0.1-0.3-0.2c-0.1-0.4,0.2-0.9,0.6-1C88.3,173.5,88.6,174,88.4,174.5L88.4,174.5
			z M88,138.4c0-0.5,0-1.1,0-1.6c1-0.4,0.6-0.8,0.8-1.1c0.9-1.6,2.2-1.7,4.2-0.3c0,0.4,0,0.8,0,1.2c0,1.2-0.2,2.4-0.7,3.5
			c-0.6,1.2-2.5,0.4-3.7-0.2c0-0.4-0.3-0.9-0.4-1.4L88,138.4z M90.3,154.6c-0.2,0.1-0.5,0.1-0.7,0.1c-0.1,0-0.1-0.1-0.2-0.1
			c0-0.2,0.1-0.3,0.1-0.5V154l0,0l0,0l0.1,0.1c0.2,0.1,0.3,0.2,0.5,0.4C90.2,154.5,90.3,154.6,90.3,154.6L90.3,154.6z M89,153
			L89,153L89,153L89,153z M88.9,147.5l-0.1-0.1l0,0L88.9,147.5z M89,159.2c0-0.1-0.1-0.2-0.2-0.3c0-0.2,0-0.4-0.1-0.7
			c0-0.1,0-0.1,0-0.2c0.2,0,0.4-0.2,0.4-0.4c0-0.1,0-0.1,0.1-0.2c0.9-0.8,2.1-0.8,2.5,0.4c0.2,0.6,0.3,1.3,0.4,1.9
			c0.2,1.1,0.3,2.2,0.1,3.3c-0.4,1.4-2.3-1.9-2.5-2.2C89.5,160.3,89,159.8,89,159.2L89,159.2z M90.5,164.7c-0.1,0.1-0.1,0.1-0.2,0.2
			c-0.3,0.2-0.6,0.3-0.9,0.1c-0.1-0.1-0.2-0.2-0.2-0.2c0-0.1,0.1-0.2,0.1-0.3c0-0.1,0.1-0.2,0.2-0.2c0.3-0.1,0.6,0,0.9,0.2
			c0,0,0.2,0.2,0.1,0.1S90.6,164.7,90.5,164.7C90.6,164.5,90.6,164.7,90.5,164.7L90.5,164.7z M91.2,168.4c-0.2-0.2-0.3-0.5-0.3-0.8
			c0-0.1,0-0.2,0.1-0.3c0.2-0.3,0.6-0.5,1-0.3c0.1,0,0.2,0.1,0.3,0.1l0.5,0.7c0,0,0,0.1,0,0.1C92.8,168.5,91.7,168.7,91.2,168.4
			L91.2,168.4z M92.9,156.6c-0.1-0.1-0.2-0.2-0.3-0.3l0,0L92.9,156.6L92.9,156.6z M94.2,167.6L94.2,167.6L94.2,167.6L94.2,167.6z
			 M95.9,165.1c-0.2,0.1-0.5,0.1-0.7,0c-0.2-0.2-0.3-0.4-0.3-0.7l0,0c0.2-0.3,0.4-0.6,0.7-0.4c0.2,0.1,0.3,0.2,0.5,0.3L95.9,165.1z
			 M100.5,160.6c-0.3,0.1-0.6,0.1-0.9,0c-0.3-0.1-0.5-0.4-0.4-0.7l0.2-0.2c0.1-0.1,0.2-0.1,0.4,0c0.3,0.1,0.6,0.4,0.7,0.8
			C100.6,160.6,100.6,160.6,100.5,160.6L100.5,160.6z M97.9,157.3c-1.6,1.1-3.5-4-4-5.1c-0.4-0.9-3.2-4.4-3.5-6.4
			c1.3-0.4,3.5,0,4.4,0c1.4-0.1,2.7-0.7,3.7-1.5c1.3-0.9,2.1-2.3,2.2-3.8c0.3-1.3,1.5-1.2,1.8,0c0.3,1.1,0.4,2.3,0.4,3.4
			c0,1.7-1.2,4.6-0.4,6.2c0.2,0.4,0.5,0.8,0.8,1.2c1.7,2.1-1.3,3.5-2.8,4.2C99.6,156,98.7,156.6,97.9,157.3z M105.2,168.1
			c-0.2,0-0.3-0.1-0.4-0.2l-0.1-0.3c-0.1-0.3,0.1-0.6,0.3-0.7c0.3-0.2,1-0.4,1.2,0c0.2,0.4,0,0.9-0.4,1.1
			C105.6,168.2,105.4,168.2,105.2,168.1L105.2,168.1z M108.6,169.5c-0.3,0.2-0.7,0.1-0.9-0.2c-0.1-0.1-0.1-0.3-0.1-0.4
			c0,0,0.1,0,0.1,0c0.4,0,0.7,0.1,1,0.3l0.1,0.1l0,0l0,0L108.6,169.5z M107.7,168.4L107.7,168.4z M108,163.8c-1.4,0-2.8,0.6-4.2,0.4
			c-0.8,0-1.5-0.1-2.2-0.4c-1.3-0.6,0.7-2.3,1.3-2.8l0,0l0,0c0.7-0.6,1.5-1.2,2.3-1.6C107.6,158.2,110.8,162.8,108,163.8L108,163.8z
			 M109.6,160L109.6,160L109.6,160z M110.2,169.5c0-0.1-0.1-0.1-0.1-0.1l0,0L110.2,169.5L110.2,169.5z M112.3,168.5
			c0,0.2-0.5,0.1-0.7,0.1c-0.5-0.1-0.9-0.3-1.2-0.6c-0.3-0.3-0.6-0.6-0.7-1l0,0c0-0.1,0.1-0.3,0.1-0.4c0.6-0.1,1.1,0.1,1.5,0.4
			C111.9,167.4,112.5,168,112.3,168.5L112.3,168.5z M109.9,164.2L109.9,164.2C109.9,164.2,109.9,164.2,109.9,164.2L109.9,164.2z
			 M110,159.3c0,0,0-0.1,0-0.1c0.1-0.1,0.2-0.1,0.2-0.2l0,0c0.1,0.1,0.1,0,0.1-0.1c0.2-0.1,0.4-0.1,0.6,0c0.3,0.2,0.7,0.6,0.6,1
			s-1.1,0.5-1.4,0.2c-0.1-0.2-0.2-0.3-0.2-0.6C110,159.5,110,159.4,110,159.3C109.9,159.4,110.1,159.4,110,159.3L110,159.3z
			 M110.9,152.6c0.1-0.1,0.2-0.2,0.2-0.4l0,0c0.2,0.1,0.4,0.2,0.5,0.4c0.1,0.1,0.1,0.2,0.1,0.2c-0.2,0-0.4,0-0.5,0
			C111.1,152.8,111,152.7,110.9,152.6L110.9,152.6z M110.4,160.9L110.4,160.9L110.4,160.9l-0.2-0.1L110.4,160.9z M113.8,164.1
			c0,0.2-0.2,0.4-0.3,0.5c-0.3,0.2-0.7,0.3-1.1,0.1c-0.3-0.2-0.6-0.5-0.7-0.8c0-0.1,0-0.2,0-0.2c0.2-0.4,0.7-0.6,1.1-0.5
			C113.2,163.2,113.7,163.6,113.8,164.1L113.8,164.1z M108.9,148.7c-0.3-0.3-0.6-0.6-0.8-0.9c-0.4-1.5-0.3-3.1,0.3-4.6
			c1.1-2.1,4.2,0.8,4.8,2.1C114,147.1,110.5,149.9,108.9,148.7L108.9,148.7z M113.6,152.8L113.6,152.8L113.6,152.8L113.6,152.8z
			 M115.6,143.9c-0.1,0.1-0.5,0.2-0.7,0.2c-0.3,0-0.7-0.1-0.9-0.4c-0.1-0.1-0.2-0.2-0.3-0.4c0-0.1,0.1-0.1,0.1-0.1
			c0.2-0.1,0.4-0.1,0.6-0.1c0.4,0.1,0.8,0.3,1.1,0.6C115.6,143.7,115.6,143.8,115.6,143.9L115.6,143.9z M118.1,148
			c-0.3-0.1-0.5-0.3-0.5-0.7c0-0.1,0-0.2,0-0.3c0.2-0.2,0.5-0.4,0.8-0.3c0.4,0.1,0.7,0.4,0.8,0.8C119.3,147.9,118.4,148.1,118.1,148
			L118.1,148z M118.8,143c-1.1-1.1-2.1-2.2-3.3-3.5c-1.6-1.7-3.5-3-4.7-4.9c-1.9-3,1.9-4.1,4-4.7c3.3-1,5.3,1,7,3.3
			c1.7,2.1,1.9,5.1,0.6,7.5C121.8,142,120.4,142.9,118.8,143L118.8,143z M121.8,149c0-0.1-0.1-0.1-0.1-0.2c0.1-0.3,0.3-0.6,0.6-0.5
			c0.4,0.1,0.7,0.3,0.9,0.7c0.1,0.1,0,0.3-0.1,0.4c0,0,0,0,0,0h-0.8C122,149.3,121.9,149.2,121.8,149L121.8,149z M123.2,152.5
			c-0.3,0.1-0.7-0.1-0.8-0.4c-0.1-0.2-0.1-0.4,0-0.6c0.1,0,0.2-0.1,0.3-0.1c0.4,0.1,0.7,0.3,1,0.6
			C123.9,152.3,123.6,152.4,123.2,152.5L123.2,152.5z M124.1,152.8L124.1,152.8L124.1,152.8z"/>
	</g>
</g>
</svg>
