<?xml version="1.0" encoding="utf-8"?>
<!-- Generator: Adobe Illustrator 20.1.0, SVG Export Plug-In . SVG Version: 6.00 Build 0)  -->
<svg version="1.1" id="Layer_1" xmlns="http://www.w3.org/2000/svg" xmlns:xlink="http://www.w3.org/1999/xlink" x="0px" y="0px"
	 viewBox="0 0 27 27" style="enable-background:new 0 0 27 27;" xml:space="preserve">
<style type="text/css">
	.st0{fill:none;stroke:#E6DFD6;stroke-width:2;stroke-miterlimit:10;}
</style>
<title>light-net</title>
<g id="Layer_2">
	<g id="patterns">
		<circle class="st0" cx="6.7" cy="6.7" r="6.7"/>
		<circle class="st0" cx="20.3" cy="6.7" r="6.7"/>
		<circle class="st0" cx="6.7" cy="20.2" r="6.7"/>
		<circle class="st0" cx="20.3" cy="20.2" r="6.7"/>
		<path class="st0" d="M6.7,0c0,3.7-3,6.7-6.7,6.7"/>
		<path class="st0" d="M20.2,0c0,3.7-3,6.7-6.7,6.7l0,0c-3.7,0-6.7-3-6.7-6.7"/>
		<path class="st0" d="M0,6.7c3.7,0,6.8,3,6.8,6.8s-3,6.8-6.8,6.8"/>
		<circle class="st0" cx="13.5" cy="13.5" r="6.7"/>
		<path class="st0" d="M27,20.2c-3.7,0-6.8-3-6.8-6.8s3-6.8,6.8-6.8"/>
		<path class="st0" d="M27,6.7c-3.7,0-6.8-3-6.8-6.8"/>
		<path class="st0" d="M0,20.2c3.7,0,6.7,3,6.7,6.7l0,0"/>
		<path class="st0" d="M6.7,27c0-3.7,3-6.8,6.8-6.8s6.8,3,6.8,6.8"/>
		<path class="st0" d="M20.2,27c0-3.7,3-6.7,6.7-6.7l0,0"/>
	</g>
</g>
</svg>
