<svg xmlns="http://www.w3.org/2000/svg" viewBox="0 0 260 260"><defs><style>.cls-1{fill:#f6d655;}.cls-2{fill:#fff;}</style></defs><title>iconkb</title><g id="Layer_2" data-name="Layer 2"><g id="Layer_1-2" data-name="Layer 1"><circle class="cls-1" cx="130" cy="130" r="130"/><path class="cls-2" d="M85.89,16.21c11.83,12.19,21.2,27.51,25.41,45.35a35.71,35.71,0,0,1,1.12,6.77l.74,6.89c-.37,4.58-.35,9.3-1.47,13.77a92.92,92.92,0,0,1-9.48,25.46C93.77,130.24,82.47,143.62,70,155.27l-4.62,4.4-4.78,4.2c-3.19,2.79-6.34,5.61-9.63,8.24a95.85,95.85,0,0,1-21.45,13.72c11.67-12,23.52-23.76,34.18-36.43s20.31-26.06,26.75-40.68a56.82,56.82,0,0,0,2.31-5.48l1.8-5.62.93-2.8c.27-.93.4-1.9.61-2.85l1.16-5.71c.54-1.87.35-3.84.64-5.74l.64-5.74c0-3.85.22-7.73.09-11.64C98,47.41,92.52,31.73,85.89,16.21Z"/><path class="cls-2" d="M167.94,11.39c-.23,9.05-3.09,17.67-7.05,25.56a102.05,102.05,0,0,1-6.78,11.39A101.47,101.47,0,0,1,146.2,59c-11.3,13.58-25.15,24.69-39.89,34a178,178,0,0,1-47.87,20.79c-8.47,2.14-17.26,3.56-26.34,2.46-4.41-.63-9.43-2.52-12.21-6.89s-2.37-9.42-1.4-13.72a22.1,22.1,0,0,1,7-11.63,37.48,37.48,0,0,1,11.46-6.84,74.13,74.13,0,0,1,25.82-4.58A104.9,104.9,0,0,1,114,85.06a88.46,88.46,0,0,1,21.87,16.78A82.11,82.11,0,0,1,144.62,113a124.49,124.49,0,0,1,7.09,11.85,111.28,111.28,0,0,1,13.07,54.39c-.08,19.15-6.81,38.45-21.34,53.41a44.67,44.67,0,0,1-13.8,9.47,26.08,26.08,0,0,1-9.63,2,19.23,19.23,0,0,1-10.09-2.74,21,21,0,0,1-6.6-6.38,30.82,30.82,0,0,1-3.59-6.94A46,46,0,0,1,96.85,214a81.48,81.48,0,0,1,.39-13.48,114.55,114.55,0,0,1,1.93-13,172.89,172.89,0,0,1,6.69-25.13,248.21,248.21,0,0,1,22.33-46.83c9.09-14.84,19.65-28.95,33.23-41.13,6.87-6,14.52-11.63,24.21-15.31a36.31,36.31,0,0,1,16.23-2.34A31.58,31.58,0,0,1,218,63.34a29.68,29.68,0,0,1,5.86,6.08,25.9,25.9,0,0,1,4.14,8c2,6,1,12.37-.9,17.17a44.9,44.9,0,0,1-7.9,12.22,98.14,98.14,0,0,1-9.61,9.44c-13.43,11.41-28.37,19.87-43.48,27.74l-.2.11a2.11,2.11,0,0,1-2.85-.9,2.13,2.13,0,0,1,.78-2.79h0a106,106,0,0,1,34-17.64c6.29-1.8,13.11-3,20.4-1.55a22.71,22.71,0,0,1,10.42,4.94,23.52,23.52,0,0,1,6.49,9.65,37.11,37.11,0,0,1,1,21.36,49.08,49.08,0,0,1-9.71,18.1c-8.55,10.44-19.73,17.34-30.71,23.8a136,136,0,0,1-73.85,16.14c-12.71-.94-25.46-3.5-37.22-8.64s-22.76-12.25-30.79-22.13L55,183.16C65.41,190,75.72,196.3,87,200.89a114.91,114.91,0,0,0,35.28,8.1,129.79,129.79,0,0,0,70.13-15.9,76.29,76.29,0,0,0,26.41-23.57,48.31,48.31,0,0,0,7-15.05,27.7,27.7,0,0,0,.1-15.47,12.66,12.66,0,0,0-9.64-9.14c-4.95-1.24-10.85-.72-16.58.43a96.64,96.64,0,0,0-17.13,5.49,112.52,112.52,0,0,0-16.35,8.11h0L164,140.31a162.28,162.28,0,0,0,20.75-14.26c3.24-2.65,6.41-5.38,9.45-8.2a122.66,122.66,0,0,0,8.39-9c5-6.24,9.39-13.44,10.18-19.2.25-2.85-.33-4.43-1.27-5.41a13.15,13.15,0,0,0-2-1.73,18.12,18.12,0,0,0-3-1.88,12.78,12.78,0,0,0-6.23-1.24,52.73,52.73,0,0,0-7.7,1c-6,1.41-12.61,4.93-18.82,9.3-12.57,8.85-24.2,20.66-34.31,33.56a203.47,203.47,0,0,0-25.67,42.3,123.2,123.2,0,0,0-7.91,23.44A82.3,82.3,0,0,0,104.39,201a59.19,59.19,0,0,0,1,11.85,29.16,29.16,0,0,0,4.27,10.19,18.08,18.08,0,0,0,3.27,3.7,6.61,6.61,0,0,0,3.27,1.46c1.74.07,2.73-.71,4.61-2.36a28.22,28.22,0,0,0,5.09-7.25c3.14-5.85,5.31-12.81,7-19.79s3.19-14.14,4.22-21.47a99.82,99.82,0,0,0,.6-22.35,97.73,97.73,0,0,0-4.26-22.46,100.09,100.09,0,0,0-4.12-10.92A65.74,65.74,0,0,0,123.7,112a69.36,69.36,0,0,0-16.4-16.25A92,92,0,0,0,62.53,79.13c-8.08-.61-16.41-.32-24.05,2.23s-14.67,7.4-16.56,15c-.92,3.8-1,8,.95,11s5.76,4.58,9.69,5a38.27,38.27,0,0,0,12.18-.64,89.21,89.21,0,0,0,12-3.21c15.8-5.45,30.41-14,44.11-23.56A214.37,214.37,0,0,0,138,51.67a224.44,224.44,0,0,0,15.45-19.5c2.37-3.4,4.74-6.82,7.05-10.31l6.75-10.73Z"/><path class="cls-1" d="M131.48,204a60.84,60.84,0,0,1-6.18,16s-1.49.21-.79-.67c2.73-3.38,5.53-12.17,6-14.67S131.48,204,131.48,204Z"/><path class="cls-1" d="M152.84,220.81c4.12-6.11,7.51-15.39,9.64-22.38l1.11.14c-2.06,9.21-6.92,18.49-10.09,22.54Z"/><path class="cls-1" d="M90.15,208.76c4.52,2,15,4.27,20.67,5.25l-.49.64A156.07,156.07,0,0,1,90,209.79Z"/><path class="cls-1" d="M91.23,201.4c4.76,2.79,15.22,4.81,20.91,5.79l-1.08.2a76.36,76.36,0,0,1-19.14-4.81Z"/><path class="cls-1" d="M87.35,85.11c9.13,3.44,20.33,9,30.05,19.44l-1.08,1.76c-7.17-8.24-18.17-16.19-28.67-19.83C77.44,83,87.35,85.11,87.35,85.11Z"/><path class="cls-1" d="M89.32,75.59c7.07,2.06,23.27,7.26,33.67,15l.69-1c-5.89-4.82-22.92-12.77-33.13-15.42Z"/><path class="cls-1" d="M96.52,90A85.59,85.59,0,0,1,89,111.81l-1.2.1c3.1-5.76,5.74-14.31,7.14-22.82Z"/><path class="cls-1" d="M112.54,68.27c.29,4,.9,11.22.83,16a15.5,15.5,0,0,0,1.62.84s-.29-13.3-1.18-18Z"/><path class="cls-1" d="M123.53,123.1c6.92-11.34,13.7-21.5,17.23-26.36l-.1-1.32c-5,5.15-13.69,19.34-18.55,27.88Z"/><path class="cls-1" d="M128.54,138.12a152.15,152.15,0,0,1,23.12-28.71l1,1c-5.6,6.33-12.22,10.9-22.24,28Z"/><path class="cls-1" d="M212.18,114.12c-6.46,5.74-33.2,23.81-47.45,30.87-.36.18-1.58,2.79.15,1.92C184.46,137,210.71,117.36,215,114Z"/><path class="cls-1" d="M162.52,137.78c4-2.48-3.62,7.67.44,5.74,4.89-2.32,21.54-16.87,27.25-22.09l-2.36-1.77C181.67,126.58,166.5,135,162.52,137.78Z"/></g></g></svg>