<svg xmlns="http://www.w3.org/2000/svg" viewBox="0 0 195 195"><defs><style>.cls-1{fill:#639341;}</style></defs><title>kbicon</title><g id="Layer_2" data-name="Layer 2"><g id="Layer_1-2" data-name="Layer 1"><path class="cls-1" d="M97.5,0A97.5,97.5,0,1,0,195,97.5,97.5,97.5,0,0,0,97.5,0Zm53.89,42.61a23.63,23.63,0,0,1,12.08,4.9,22.36,22.36,0,0,1,4.4,4.55,19.73,19.73,0,0,1,3.1,6,19,19,0,0,1-.68,12.87,33.6,33.6,0,0,1-5.92,9.17,72.79,72.79,0,0,1-7.21,7.08l-.57.47c-5.29,4-15.44,10.93-24.18,16.16L132,104c-2.48,1.37-5,2.7-7.49,4l-.15.08a1.58,1.58,0,0,1-2-.51c3.84-2,16.06-12.62,20.29-16.49h0c1-.88,2-1.77,3-2.67a90.8,90.8,0,0,0,6.29-6.79c3.75-4.68,7-10.08,7.64-14.4.19-2.14-.25-3.32-.95-4.06a9.45,9.45,0,0,0-1.49-1.29,12.81,12.81,0,0,0-2.26-1.42,9.56,9.56,0,0,0-4.67-.92,38.12,38.12,0,0,0-5.77.71c-4.47,1.05-9.46,3.7-14.12,7a118.49,118.49,0,0,0-20.77,19.16l0,0a113.26,113.26,0,0,0-13.15,17.2h.08A159.23,159.23,0,0,0,85.3,124.08a92.93,92.93,0,0,0-5.94,17.59,60,60,0,0,0-1.06,9.11c0,1.18,0,2.35.1,3.51-1.91-.42-3.89-.91-5.68-1.47q.09-1.22.21-2.4a85.32,85.32,0,0,1,1.45-9.76,130.37,130.37,0,0,1,5-18.84A183.91,183.91,0,0,1,95.36,88l0,0c2.62-4.18,5.1-8,7.13-11l0,0a124.83,124.83,0,0,1,18.58-21.2c5.16-4.49,10.89-8.72,18.16-11.48A27.31,27.31,0,0,1,151.39,42.61Zm-47.87-3.86a166.32,166.32,0,0,0,11.59-14.62c1.78-2.55,3.55-5.11,5.29-7.73l5.06-8,.49.19a45.67,45.67,0,0,1-5.28,19.17,77.37,77.37,0,0,1-5.09,8.55,78.28,78.28,0,0,1-5.93,8A118.38,118.38,0,0,1,88,64.13c-.57-.33-1.17-.65-1.78-1,0-1.32-.14-4.37-.32-7.29A160,160,0,0,0,103.52,38.75Zm-20,7.42a27.08,27.08,0,0,1,.84,5.08L84.61,54c.07.88.13,1.83.19,2.79.13,2,.23,4,.23,5.76C83.55,61.77,82,61,80.36,60.29c-2.19-1-4.45-1.93-6.59-2.73l.17-1.48c0-2.88.16-5.79.06-8.73-.54-11.79-4.61-23.55-9.58-35.19A73.13,73.13,0,0,1,83.48,46.17ZM14.92,82c-2-3.29-1.78-7.07-1.05-10.29A16.56,16.56,0,0,1,19.11,63a28,28,0,0,1,8.6-5.12,55.54,55.54,0,0,1,19.36-3.44A81.91,81.91,0,0,1,67,56.69h0a104.71,104.71,0,0,1,20.18,8h0a65.84,65.84,0,0,1,14.61,11.51c-2.27,3.18-4.78,7.13-7,10.78-.62-1-1.28-2.06-2-3.06a51,51,0,0,0-8.91-9.57,57.49,57.49,0,0,0-12.71-8.18A68.46,68.46,0,0,0,46.9,59.35c-6.06-.46-12.31-.24-18,1.67s-11,5.55-12.42,11.28c-.69,2.85-.73,6,.71,8.24s4.32,3.44,7.27,3.78a28.73,28.73,0,0,0,9.13-.48,67.85,67.85,0,0,0,9-2.42A128,128,0,0,0,70.8,67l.35.18a70.19,70.19,0,0,1-2,8.44,132.52,132.52,0,0,1-25.34,9.67C37.48,86.93,30.89,88,24.08,87.16,20.77,86.69,17,85.27,14.92,82Zm7.25,57.38c8.76-9,17.64-17.83,25.63-27.33,7.69-9.24,14.81-19,19.64-29.57.31-.66.63-1.37,1-2.11a21.92,21.92,0,0,0,1.21-2.94l.26-.81c.19-.53.38-1.07.56-1.61a57,57,0,0,0,1.9-7.18,55.45,55.45,0,0,1,5.2,3.24c1.45,1,2.85,2.1,4.18,3.23a64.71,64.71,0,0,1-5,11.54,119.07,119.07,0,0,1-24.13,30.61l-3.47,3.3-3.58,3.15c-2.39,2.1-4.75,4.21-7.23,6.18A72.29,72.29,0,0,1,22.17,139.38Zm18.19-1.06.86-.95c7.84,5.12,15.57,9.86,24,13.3,1.68.65,3.38,1.25,5.1,1.82a59.66,59.66,0,0,0,8.11,2.27v0a75.89,75.89,0,0,0,13.25,1.94c1.74.11,3.49.15,5.23.16a48,48,0,0,1-1.85,4.69c-1.23,0-2.46-.1-3.69-.19a102.58,102.58,0,0,1-10.58-1.32c-2.52-.5-5.56-1.18-8.24-1.9h0q-2.47-.71-4.9-1.58l0,0h0c-1.4-.51-2.78-1-4.15-1.65C54.64,151.17,46.39,145.74,40.36,138.32Zm56.87,43.27A19.73,19.73,0,0,1,90,183.11a14.37,14.37,0,0,1-7.57-2.06,15.56,15.56,0,0,1-5-4.78,23,23,0,0,1-2.69-5.2,34.34,34.34,0,0,1-2.16-10.54c0-.58,0-1.15-.07-1.72,2.15.55,4.57,1.12,6.68,1.56a21.17,21.17,0,0,0,3,6.94,13.71,13.71,0,0,0,2.46,2.77,4.85,4.85,0,0,0,2.45,1.1c1.3,0,2-.53,3.46-1.77A19.85,19.85,0,0,0,93.93,165h0a46.77,46.77,0,0,0,4.18-10.12c.58-1.87,1.09-3.78,1.56-5.7,1.24-5.26,2.4-10.6,3.17-16.1a75.08,75.08,0,0,0,.45-16.77,73.39,73.39,0,0,0-3.07-16.4,74.31,74.31,0,0,1,9.9-12.5c1.28,2,2.5,4.12,3.63,6.27a83.56,83.56,0,0,1,9.79,40.79,60.32,60.32,0,0,1-2.15,15.77,83.46,83.46,0,0,1-4.33,11.07,55.92,55.92,0,0,1-9.52,13.22A33.54,33.54,0,0,1,97.23,181.59Zm72.56-50.15c-6.41,7.83-14.79,13-23,17.86a102.22,102.22,0,0,1-27.86,10.18,52.27,52.27,0,0,0,2.34-5.58,96.64,96.64,0,0,0,23-9.08,57,57,0,0,0,19.81-17.68,36,36,0,0,0,5.27-11.29,20.72,20.72,0,0,0,.08-11.6,9.52,9.52,0,0,0-7.23-6.86c-3.71-.92-8.13-.53-12.44.33a68.86,68.86,0,0,0-10.06,3c5.39-3.51,10.49-7.09,14.42-9.94a28.17,28.17,0,0,1,9.55.12,17.13,17.13,0,0,1,7.81,3.7,17.65,17.65,0,0,1,4.86,7.24,27.75,27.75,0,0,1,.72,16A36.62,36.62,0,0,1,169.79,131.44Z"/></g></g></svg>