<svg xmlns="http://www.w3.org/2000/svg" viewBox="0 0 90.28 64.66"><defs><style>.cls-1{fill:#e6dfd6;fill-rule:evenodd;}.cls-2,.cls-3{fill:#e9e3db;stroke:#ece7e0;}.cls-2{stroke-width:0.24px;}.cls-3{stroke-width:0.24px;}.cls-4{fill:none;stroke:#e9e3db;stroke-width:1.07px;}</style></defs><title>lace-trim01</title><g id="Layer_2" data-name="Layer 2"><g id="logo"><path class="cls-1" d="M46.52,19.15a4.93,4.93,0,0,0-.34,1.2c0,1.39,1.72,1.33,2.1,2.2a1.6,1.6,0,0,1,0,1.05c-.17.67-1,.71-1.2,1.56,2.15.26,3.34-1.8,4.47-2.38a19.1,19.1,0,0,1-2.49-.92,3.53,3.53,0,0,1-1.06-1c-.7-1.54,2.6-2.44,3.61-1,.2.29.51,1.07-.11,1.5-.95.67-2.46-.16-2.18-.79a1,1,0,0,1,1.11-.6c-.06-.53-.39-.61-1-.47-.84.18-1.22.88-1,1.38.52,1,2.78,1.75,4.37,1.73-.16.09-.32.18-.49.26a6.65,6.65,0,0,0-1.88,1.45c-.9,1.45-1.61,3.63-2.43,4.83-.33,2.65-1.33,6.34-1,9.45a25.05,25.05,0,0,1,5.11-12.09,7.11,7.11,0,0,1,3.35-2c1.49-.18,3.33.66,3.52,1.88A2,2,0,0,1,58.43,28c-1.33.68-2.45-1.61-.75-1.93-1.44-2.53-4.5.19-5.41,1.53.61,0,1-.22,1.54,0,0,1,1.44,1.3,1.58,2.13a1.37,1.37,0,0,1-.8,1.25,2.65,2.65,0,0,0-.43-1.12c-1.73.06-2.76,1.57-3.64,2.94-.17.26-.47.42-.6.63a18.11,18.11,0,0,0-1.18,2.89c-.26.67-.71.87-.58,1.86-.27.08-.19.49-.4.62a48.73,48.73,0,0,0-1,8.84c.87-.5.53-2,.67-2.89.71-4.44,3.19-8,5.34-11.07,2-1.46,4-4.35,7.61-4.34a4.53,4.53,0,0,1,4.25,2.39c.87,2.57-2.45,3.62-3.15,1.49a3.55,3.55,0,0,1,.7-1.24,3.1,3.1,0,0,1,1.34.59C64,31.15,62.2,30.08,61,29.94c-2.12-.26-4.42,1.69-5.29,2.35.67,0,2.07-.15,2.57.36-.18,1.46,1.62,2.43.48,3.58-1-.42-1.52-1.42-3.3-1.07-4.61,2.17-7,6.49-8,12.15,1.17-.82,1.73-2.53,2.19-3.73,1.65-2.33,3.49-4.49,6.67-5.35.8.31,1.69,0,2.46.16a4.67,4.67,0,0,1,3.21,7c1.79-.05,3.56-1.47,4.77-2.75a12.82,12.82,0,0,0,2.88-5A32.48,32.48,0,0,0,70,32.75c-.6-2.23-1.19-4.48-2.87-5.59a2.3,2.3,0,0,1-1-.19c-.72-2,1.31-2.51,2.83-2.31.6-1.66-1-2.61-1.61-3.66-1.31-.67-4-1.34-5.56-.24-.4.29-.21,1-.91.84-.51.95-.38,2.84.77,2.65.34-.54-.35-.41-.43-.81-.13-.77.36-.93.7-1.25a1.74,1.74,0,0,1,1.58,2.54,2.46,2.46,0,0,1-4.12-1.16c-.39-3.88,4.22-5.12,7.43-4,1.39.48,2.89,2.64,3.77,4.14,1.55,2.64,2,7.75,1.13,11.47-.14.59-.56,1.14-.69,1.76a16.33,16.33,0,0,1-.87,2.89c3.13-3.55,5.35-12.87,1-16.53.06-.38.37-.52.6-.73A2.8,2.8,0,0,1,74,24.16c.16-.21.51-.25.92-.22.67.59.69,1.86,1,2.85.58-1.57.83-4.11,2.37-5.07.24,0,.38-.17.72-.12,1-.78,2.39-2.19,4-2.35,2.11-.22,3.56.27,3.93,2.31,1.26-.33,2.15-1.79,3.44-2.42C90,20,89.15,20.21,88.87,21c-2.18,2-4.15,4.2-6.24,6.37a9.38,9.38,0,0,1-2.42,2.3c.36-1.31,2-2.29,2.08-4,0-1-.64-1.89-.36-3.17.24-1,1.69-2,2.75-1.08a1.62,1.62,0,0,1-.28,1.54c-.52.12-.11-.73-.63-.6-.47.57.43,1.21,1.35,1,2.63-2.31-1-4.38-3.63-2.75a11.26,11.26,0,0,0-2.63,2.25,4.82,4.82,0,0,0-.19.72c-.33.62-.92,1.17-1.2,1.76a13.22,13.22,0,0,0-1,2.69c-.16.25-.45.38-.6.63-.24,1.47-.16,3-1,3.71a15.46,15.46,0,0,1-2.56,6,20.24,20.24,0,0,1-5.13,5.53c-1.7,1.31-4.55,3.21-7.24,2.18a3.71,3.71,0,0,0,.51-5.86c-.33-.13-.34,0-.72,0-.53-.88-1.8-1-3.09-.87-3.35.33-6.71,4.44-7.34,7.93-.59,3.25-.63,7.3,2.61,8.26.26-.51-.53-.47-.63-.91.09-.91-.64-2.1-.67-3,0-.28.21-.59.19-.93a9.65,9.65,0,0,1,3-8.06c1-.88,3.62-2,4.91-.7a1.53,1.53,0,0,1-.36,2.47C54.18,42.1,50,48,51.3,53.19c.44-.59.12-2,.05-2.87,0-.21.2-.28.3-.42,0-2.22,1.58-3,2.59-4.25,3.43-1.95,7.63,1.81,5.63,4.82-.93,1.39-4.14,1.77-4.12-.75.58-.21.8.2,1.33,0,1.1-.74.38-2.84-.77-3.06-.7-.13-.89.35-1.63.44a1.9,1.9,0,0,1,.85,1.73,1.76,1.76,0,0,1-1,.53c-.39.09-.13-.49-.52-.4-1.53.33-1.87,1.66-1.68,3.31a2.56,2.56,0,0,1,3.1,1.38,2.85,2.85,0,0,1-4.15,3.15,5.66,5.66,0,0,1-2.41-2.62,19.91,19.91,0,0,0-.87-3c-.25-.26-.61-.41-.83-.7-1.23-.19-2.32,1.15-2.62,2.41-.05.22.09.5,0,.72-.55,1.63-2,3.57-4.24,3.46A3.33,3.33,0,0,1,38,55.69c-.41-2,.34-3.43,2.3-3.43,0-1.66-.23-3.29-2.21-3.24a1.2,1.2,0,0,1,0-1.54c-1.65-1.81-4.62,1.84-2,2.6.39,0,.21-.53.61-.52,1,.53.25,2.07-.78,2.27-1.78.35-2.94-1.21-2.82-2.92a3.46,3.46,0,0,1,3.53-3.14c3.09,0,4,2.46,4.81,4.94-.28.4-.18,1.17-.48,1.55.82.61,1.35,2.29.36,3.07,1.23.38,2.55-2.1,2.81-3.44C44.95,47.5,42,42,39.26,40.18a6.07,6.07,0,0,0-6-.51,4.43,4.43,0,0,0-1.7,2.49,4.38,4.38,0,0,0,2.34,4.37,3.45,3.45,0,0,1-1.53.33c-.21.1-.21.4-.19.72-1.15-1.27-3-1-4-2.28-.49.31-.56-.28-1.13-.19a22.17,22.17,0,0,1-9.45-12c-.19-.25-.33-.56-.53-.81-.36-1.33-.53-2.86-1.5-3.56,0-.32.32-.3.19-.72-1-2.78-2.9-7-5.89-8C7,19,3.6,21.86,6.36,24.37l1,0c-.12-.65-.71-.39-.53-1.22.28-1.32,2.49-.52,2.68.67.11.67-.35,1.37-.38,1.85C9,28.26,11.62,29,11.59,30.32a66.17,66.17,0,0,1-6.78-6.44A41.2,41.2,0,0,1,0,19.15c1.09.46,1.72,1.53,2.6,2.21.52.4,1.14.58,1.66,1,.64-1.59,1.4-2.75,3.26-3.2,1.89-.08,3.74.44,4.61,1.42.36,0,.25-.37.61-.32,2.08.7,2.19,3.44,3.27,5.17a10.68,10.68,0,0,1,1.1-1.66h.51a2.25,2.25,0,0,1,3.16-1.18c-2,1.22-2,4.39-2.33,7.22a19.4,19.4,0,0,0,5,11.4c-1.52-2.63-3.3-6.12-3.16-10.4A17.66,17.66,0,0,1,22,23.16a7.27,7.27,0,0,1,6.17-3.84c2.72-.06,5.37,2.44,4.39,4.43s-3.87,1.73-4-.23c-.09-1.24,1.89-2.42,2.45-.66-.2.28-.58.38-.81.63.25.62.72,0,1-.22.35-3-3.8-4-5.62-2.69a19.22,19.22,0,0,0-2.08,2,6,6,0,0,0-1.08,2.34c.72-.08,1.07-.51,1.63-.75.62.61,1.86.58,2.28,1.39,0,.5-.17.78-.08,1.34-1.83.49-2.28,2.3-3.11,3.75a26.13,26.13,0,0,1-.36,2.88c-.43,6.86,3.77,10.8,8.74,12.35a1.85,1.85,0,0,0-.74-1.11c-1-3.32.89-5.38,3.06-6.52,3.25-.64,5.86,1,7.85,2.83a8.9,8.9,0,0,0,1.68,2.33,9.47,9.47,0,0,0,2.33,4.26h.82c-.1-5.17-1.57-11.75-4.48-15.2-.94-1.12-1.87-2.13-3.63-2.19-.41.07-.49.47-1.12.33a8.73,8.73,0,0,1-.45-1.94,3.19,3.19,0,0,1,1.74-.34c.29-.35.07-1,.8-1.14-.7-1.07-3.45-2.26-4.53-.73,2.06,0,1,2.85-.69,1.65-.57-2.38,1.51-3.72,3.64-3,.29.09.66.41,1,.6,1.24.6,1.35.89,2.5,2.21A17.67,17.67,0,0,1,45,34.44c.42,1.35.69,2.75,1,4a18.77,18.77,0,0,1,.58,3.68,16.06,16.06,0,0,0,.28-1.75c0-.43-.35-.55-.43-.92-.65-6.72-2.52-14.8-7.07-16.69,2.08-.1,3.78-1.32,3.29-2.46a1.43,1.43,0,0,0-1.58-.76c-.09.84.95.67.65,1.7-1.45,1.32-2.82-1.11-1.38-2,.66,0,1.08,0,1.74,0,1.17,0,1.19,1.66.8,2.29a3.89,3.89,0,0,1-2.4,1.35c.9.75,2.1,2.48,4.15,2.42-.11-.93-1-.73-1.25-1.31-.9-2,2.44-2.62,2.15-3.71-.07-.27-.45-.34-.65-1Z"/><path class="cls-1" d="M45.85,47.24c-1.34-4.53-2.5-9.6-6.77-11.37,0-.35-.42-.33-.52-.61-1.21-.05-2-.65-3.08-.25-.63.24-.86,1.21-1.63.75-.9-1.24.45-2.66,1.49-2.69.31-.4.46-1,1.11-1a6.73,6.73,0,0,0-3.52-1.78c-1.92-.27-4.27,0-4.07,2,.15.28.75,0,1.13.29,0,.54.34.69.23,1.33-.6,1-1.86.21-2.27-.47-.34-2.81,2.19-4.08,4.75-4,3.17.11,5.6,2.74,7.35,3.76,1.47,2,3.27,4.09,4.33,6.69a12.91,12.91,0,0,1,.76,2.55C45.42,43.82,46.17,45.33,45.85,47.24Z"/><path class="cls-1" d="M42,52.24c-.51-2.5-.69-4.38-2.16-6.22a5.31,5.31,0,0,0-2.8-1.9c-1.22-.17-3,.72-3-1.28,0-.42.37-.82.39-1.14a5.24,5.24,0,0,1,3.9.13,9.76,9.76,0,0,1,3.84,7.83A9.47,9.47,0,0,0,42,52.24Z"/><path class="cls-1" d="M46.46,52.56c.12,0,.18,0,.21.1.11,3.13,1.43,5.81,4.72,6,.69,2.78-2.82,2.24-3.58.68-.23.84.94,1.73,1.78,2.12-.47,1.46-1.77,2.13-2.61,3.23a12.58,12.58,0,0,0-2.61-2.72c.43-.8,1.55-1.45,1.49-2.39-.66.35-1.05,1.2-2,1.16a1.46,1.46,0,0,1-1.27-2.13C45.44,58.47,46.58,55.88,46.46,52.56Z"/><path class="cls-2" d="M9,6.74A8.09,8.09,0,0,0,7.32,2.45a3.47,3.47,0,0,0-3.92-.93C2,2.13,1.34,4.27,1.4,6.39c0,4.4,3.12,7.41,4.78,9.63,1.88,2.17,3,3.55,3,3.55s-1.35-1.11-3.46-3a25.37,25.37,0,0,1-3.43-3.81A10.37,10.37,0,0,1,.13,6.42C0,4.08.85,1.22,3,.41A4.17,4.17,0,0,1,7.8,2,7.76,7.76,0,0,1,9,6.74Z"/><path class="cls-3" d="M8.87,19.4s1.16-1.32,2.84-3.6,4.19-5.53,4.9-9.63a4.72,4.72,0,0,0-2-4.67c-1.32-.8-2.81.22-3.65,1.2A8.45,8.45,0,0,0,9.06,6.83a8.08,8.08,0,0,1,1.39-4.58C11.2,1.11,12.92-.56,15,.41a5.77,5.77,0,0,1,2.84,5.94c-.9,4.9-3.89,7.81-5.7,9.92A33.71,33.71,0,0,1,8.87,19.4Z"/><path class="cls-3" d="M8.86,19a16.57,16.57,0,0,1-2.5-7.1,9.44,9.44,0,0,1,2-7.26,15.48,15.48,0,0,0-.72,7.11A70.51,70.51,0,0,0,8.86,19Z"/><path class="cls-3" d="M9.2,19s.33-3.42.61-7.44a19.85,19.85,0,0,0-.45-7.28,10.85,10.85,0,0,1,1.72,7.38A21.59,21.59,0,0,1,9.2,19Z"/><line class="cls-4" x1="0.01" y1="19.32" x2="17.9" y2="19.32"/><path class="cls-2" d="M27,6.74a8.09,8.09,0,0,0-1.66-4.29,3.47,3.47,0,0,0-3.92-.93c-1.42.61-2.05,2.75-2,4.87,0,4.4,3.12,7.41,4.78,9.63,1.88,2.17,3,3.55,3,3.55s-1.35-1.11-3.46-3a25.37,25.37,0,0,1-3.43-3.81,10.37,10.37,0,0,1-2.19-6.3c-.08-2.34.72-5.2,2.89-6A4.17,4.17,0,0,1,25.85,2,7.76,7.76,0,0,1,27,6.74Z"/><path class="cls-3" d="M26.92,19.4s1.16-1.32,2.84-3.6,4.19-5.53,4.9-9.63a4.72,4.72,0,0,0-2-4.67C31.32.7,29.83,1.72,29,2.7a8.45,8.45,0,0,0-1.88,4.12A8.08,8.08,0,0,1,28.5,2.24C29.26,1.11,31-.56,33.09.41a5.77,5.77,0,0,1,2.84,5.94c-.9,4.9-3.89,7.81-5.7,9.92A33.72,33.72,0,0,1,26.92,19.4Z"/><path class="cls-3" d="M26.91,19a16.57,16.57,0,0,1-2.5-7.1,9.44,9.44,0,0,1,2-7.26,15.48,15.48,0,0,0-.72,7.11A70.5,70.5,0,0,0,26.91,19Z"/><path class="cls-3" d="M27.25,19s.33-3.42.61-7.44a19.85,19.85,0,0,0-.45-7.28,10.85,10.85,0,0,1,1.72,7.38A21.59,21.59,0,0,1,27.25,19Z"/><line class="cls-4" x1="18.06" y1="19.32" x2="35.95" y2="19.32"/><path class="cls-2" d="M45.08,6.74a8.09,8.09,0,0,0-1.66-4.29,3.47,3.47,0,0,0-3.92-.93c-1.42.61-2.05,2.75-2,4.87,0,4.4,3.12,7.41,4.78,9.63,1.88,2.17,3,3.55,3,3.55s-1.35-1.11-3.46-3a25.37,25.37,0,0,1-3.43-3.81,10.37,10.37,0,0,1-2.19-6.3c-.08-2.34.72-5.2,2.89-6A4.17,4.17,0,0,1,43.9,2,7.76,7.76,0,0,1,45.08,6.74Z"/><path class="cls-3" d="M45,19.4s1.16-1.32,2.84-3.6,4.19-5.53,4.9-9.63a4.72,4.72,0,0,0-2-4.67C49.37.7,47.88,1.72,47,2.7a8.45,8.45,0,0,0-1.88,4.12,8.08,8.08,0,0,1,1.39-4.58C47.31,1.11,49-.56,51.14.41A5.77,5.77,0,0,1,54,6.35c-.9,4.9-3.89,7.81-5.7,9.92A33.71,33.71,0,0,1,45,19.4Z"/><path class="cls-3" d="M45,19a16.57,16.57,0,0,1-2.5-7.1,9.44,9.44,0,0,1,2-7.26,15.48,15.48,0,0,0-.72,7.11A70.51,70.51,0,0,0,45,19Z"/><path class="cls-3" d="M45.3,19s.33-3.42.61-7.44a19.85,19.85,0,0,0-.45-7.28,10.85,10.85,0,0,1,1.72,7.38A21.59,21.59,0,0,1,45.3,19Z"/><line class="cls-4" x1="36.12" y1="19.32" x2="54" y2="19.32"/><path class="cls-2" d="M63.13,6.74a8.09,8.09,0,0,0-1.66-4.29,3.47,3.47,0,0,0-3.92-.93c-1.42.61-2.05,2.75-2,4.87,0,4.4,3.12,7.41,4.78,9.63,1.88,2.17,3,3.55,3,3.55s-1.35-1.11-3.46-3a25.37,25.37,0,0,1-3.43-3.81,10.37,10.37,0,0,1-2.19-6.3c-.08-2.34.72-5.2,2.89-6A4.17,4.17,0,0,1,61.95,2,7.76,7.76,0,0,1,63.13,6.74Z"/><path class="cls-3" d="M63,19.4s1.16-1.32,2.84-3.6,4.19-5.53,4.9-9.63a4.72,4.72,0,0,0-2-4.67c-1.32-.8-2.81.22-3.65,1.2a8.45,8.45,0,0,0-1.88,4.12A8.08,8.08,0,0,1,64.6,2.24c.76-1.13,2.47-2.8,4.59-1.83A5.77,5.77,0,0,1,72,6.35c-.9,4.9-3.89,7.81-5.7,9.92A33.72,33.72,0,0,1,63,19.4Z"/><path class="cls-3" d="M63,19a16.57,16.57,0,0,1-2.5-7.1,9.44,9.44,0,0,1,2-7.26,15.48,15.48,0,0,0-.72,7.11A70.5,70.5,0,0,0,63,19Z"/><path class="cls-3" d="M63.35,19s.33-3.42.61-7.44a19.85,19.85,0,0,0-.45-7.28,10.85,10.85,0,0,1,1.72,7.38A21.59,21.59,0,0,1,63.35,19Z"/><line class="cls-4" x1="54.17" y1="19.32" x2="72.05" y2="19.32"/><path class="cls-2" d="M81.18,6.74a8.09,8.09,0,0,0-1.66-4.29,3.47,3.47,0,0,0-3.92-.93c-1.42.61-2.05,2.75-2,4.87,0,4.4,3.12,7.41,4.78,9.63,1.88,2.17,3,3.55,3,3.55s-1.35-1.11-3.46-3a25.37,25.37,0,0,1-3.43-3.81,10.37,10.37,0,0,1-2.19-6.3c-.08-2.34.72-5.2,2.89-6A4.17,4.17,0,0,1,80,2,7.76,7.76,0,0,1,81.18,6.74Z"/><path class="cls-3" d="M81.07,19.4s1.16-1.32,2.84-3.6,4.19-5.53,4.9-9.63a4.72,4.72,0,0,0-2-4.67C85.47.7,84,1.72,83.14,2.7a8.45,8.45,0,0,0-1.88,4.12,8.08,8.08,0,0,1,1.39-4.58c.76-1.13,2.47-2.8,4.59-1.83a5.77,5.77,0,0,1,2.84,5.94c-.9,4.9-3.89,7.81-5.7,9.92A33.71,33.71,0,0,1,81.07,19.4Z"/><path class="cls-3" d="M81.07,19a16.57,16.57,0,0,1-2.5-7.1,9.44,9.44,0,0,1,2-7.26,15.48,15.48,0,0,0-.72,7.11A70.51,70.51,0,0,0,81.07,19Z"/><path class="cls-3" d="M81.41,19s.33-3.42.61-7.44a19.85,19.85,0,0,0-.45-7.28,10.85,10.85,0,0,1,1.72,7.38A21.59,21.59,0,0,1,81.41,19Z"/><line class="cls-4" x1="72.22" y1="19.32" x2="90.1" y2="19.32"/></g></g></svg>